<?xml version="1.0" standalone="no"?>
<!DOCTYPE svg PUBLIC "-//W3C//DTD SVG 1.1//EN" "http://www.w3.org/Graphics/SVG/1.1/DTD/svg11.dtd" >
<svg xmlns="http://www.w3.org/2000/svg">
<metadata>
Created by FontForge 20120731 at Sat Aug 20 14:53:33 2016
 By admin
</metadata>
<defs>
<font id="iconfont" horiz-adv-x="1024" >
  <font-face 
    font-family="iconfont"
    font-weight="500"
    font-stretch="normal"
    units-per-em="1024"
    panose-1="2 0 6 3 0 0 0 0 0 0"
    ascent="896"
    descent="-128"
    x-height="792"
    bbox="-0.270269 -212 1506 925.059"
    underline-thickness="50"
    underline-position="-100"
    unicode-range="U+0078-E727"
  />
<missing-glyph horiz-adv-x="374" 
d="M34 0v682h272v-682h-272zM68 34h204v614h-204v-614z" />
    <glyph glyph-name=".notdef" horiz-adv-x="374" 
d="M34 0v682h272v-682h-272zM68 34h204v614h-204v-614z" />
    <glyph glyph-name=".null" horiz-adv-x="0" 
 />
    <glyph glyph-name="nonmarkingreturn" horiz-adv-x="341" 
 />
    <glyph glyph-name="x" unicode="x" horiz-adv-x="1001" 
d="M281 543q-27 -1 -53 -1h-83q-18 0 -36.5 -6t-32.5 -18.5t-23 -32t-9 -45.5v-76h912v41q0 16 -0.5 30t-0.5 18q0 13 -5 29t-17 29.5t-31.5 22.5t-49.5 9h-133v-97h-438v97zM955 310v-52q0 -23 0.5 -52t0.5 -58t-10.5 -47.5t-26 -30t-33 -16t-31.5 -4.5q-14 -1 -29.5 -0.5
t-29.5 0.5h-32l-45 128h-439l-44 -128h-29h-34q-20 0 -45 1q-25 0 -41 9.5t-25.5 23t-13.5 29.5t-4 30v167h911zM163 247q-12 0 -21 -8.5t-9 -21.5t9 -21.5t21 -8.5q13 0 22 8.5t9 21.5t-9 21.5t-22 8.5zM316 123q-8 -26 -14 -48q-5 -19 -10.5 -37t-7.5 -25t-3 -15t1 -14.5
t9.5 -10.5t21.5 -4h37h67h81h80h64h36q23 0 34 12t2 38q-5 13 -9.5 30.5t-9.5 34.5q-5 19 -11 39h-368zM336 498v228q0 11 2.5 23t10 21.5t20.5 15.5t34 6h188q31 0 51.5 -14.5t20.5 -52.5v-227h-327z" />
    <glyph glyph-name="uniE600" unicode="&#xe600;" 
d="M800 797h-580q-65 0 -111 -48.5t-46 -117.5v-494q0 -69 46 -117.5t111 -48.5h580q65 0 111 48.5t46 117.5v494q0 69 -46 117.5t-111 48.5zM886 186q0 -58 -39 -98.5t-93 -40.5h-488q-55 0 -93.5 40.5t-38.5 98.5v396q0 58 38.5 98.5t93.5 40.5h488q54 0 93 -40.5
t39 -98.5v-396zM230 426h559v-84h-559v84zM470 679h80v-590h-80v590zM470 679z" />
    <glyph glyph-name="uniE601" unicode="&#xe601;" 
d="M502 800q118 -1 218 -59t157 -158.5t56 -218.5q0 -117 -59 -216t-159 -156t-218 -56q-117 1 -215.5 59.5t-155.5 158.5t-56.5 216.5t59 216t158 157t215.5 56.5zM139 367q1 -98 50 -181.5t132.5 -132t180.5 -47.5q99 1 182.5 50t131.5 133t47 183q-1 98 -50.5 181
t-133.5 130.5t-182 46.5q-97 -1 -180 -50.5t-131 -132.5t-47 -180zM547 413q137 0 159 1q10 0 14 -4t3 -13v-29q0 -14 -2.5 -16.5t-15.5 -2.5h-143h-15v-20v-140q0 -9 -3.5 -12.5t-11.5 -3.5h-31q-14 0 -16 2.5t-2 15.5v143v15h-21h-140q-9 0 -12.5 3.5t-2.5 12.5v30
q0 14 2 16t15 2h143h16v21q0 121 -1 140q0 9 3.5 12.5t12.5 2.5h30q14 0 16.5 -2t2.5 -15v-143v-16z" />
    <glyph glyph-name="uniE602" unicode="&#xe602;" horiz-adv-x="1348" 
d="M914 159h-459q-24 0 -41.5 17t-17.5 42v326q0 24 17.5 41.5t41.5 17.5h459q25 0 42 -17.5t17 -41.5v-326q0 -25 -17 -42t-42 -17zM959 529q0 24 -17.5 41.5t-42.5 17.5h-429q-25 0 -42 -17.5t-17 -41.5v-296q0 -25 17 -42t42 -17h429q25 0 42.5 17t17.5 42v296zM803 366
h-104v-104q0 -7 -7 -7h-15q-7 0 -7 7v104h-104q-7 0 -7 7v15q0 8 7 8h104v103q0 8 7 8h15q7 0 7 -8v-103h104q8 0 8 -8v-15q0 -7 -8 -7z" />
    <glyph glyph-name="uniE603" unicode="&#xe603;" 
d="M819 761q29 0 49.5 -20.5t20.5 -49.5v-614q0 -29 -20.5 -49.5t-49.5 -20.5h-614q-29 0 -49.5 20.5t-20.5 49.5v614q0 29 20.5 49.5t49.5 20.5h614zM819 794h-614q-42 0 -72.5 -30.5t-30.5 -72.5v-614q0 -42 30.5 -72.5t72.5 -30.5h614q42 0 72.5 30.5t30.5 72.5v614
q0 42 -30.5 72.5t-72.5 30.5zM818 356l1 58h-278v277h-59v-277h-277l-1 -58h278v-279h59v279h277z" />
    <glyph glyph-name="uniE604" unicode="&#xe604;" 
d="M512 880q100 0 190.5 -38.5t159.5 -107.5q68 -68 106.5 -158.5t38.5 -191.5t-38.5 -191.5t-106.5 -158.5q-69 -69 -159.5 -107t-191 -38t-191 38t-159 106.5t-107 159t-38.5 191.5t38.5 191.5t107 159t159 107t191.5 38.5zM849 722q-66 66 -153 103t-184.5 37t-184.5 -37
t-153 -103t-103 -153.5t-37 -184.5t37 -184.5t103 -153.5t153 -103t184.5 -37t184.5 37t153 103t103 153.5t37 184.5t-37 184.5t-103 153.5zM488 180v181h-181v47h181v181h47v-181h181v-47h-181v-181h-47z" />
    <glyph glyph-name="uniE605" unicode="&#xe605;" horiz-adv-x="1000" 
d="M955 706q-25 7 -48 -5.5t-30 -37.5l-5 -17h-582l-9 70q-3 24 -21 39.5t-41 15.5h-157q-25 0 -43.5 -18.5t-18.5 -44t18.5 -44t43.5 -18.5h102l55 -445q3 -24 21 -39.5t41 -15.5h531q21 0 38 12.5t23 32.5l125 438q7 25 -5.5 47.5t-37.5 29.5zM500 396v62h125v-62h-125z
M625 334v-63h-125v63h125zM500 521v63h125v-63h-125zM297 584h141v-63h-133zM313 458h125v-62h-117zM329 334h109v-63h-102zM765 271h-77v63h95zM801 396h-113v62h131zM837 521h-149v63h167zM250 -10q0 39 27.5 66.5t66.5 27.5t66.5 -27.5t27.5 -66.5t-27.5 -66.5
t-66.5 -27.5t-66.5 27.5t-27.5 66.5zM625 -10q0 39 27.5 66.5t66.5 27.5t66 -27.5t27 -66.5t-27 -66.5t-66 -27.5t-66.5 27.5t-27.5 66.5z" />
    <glyph glyph-name="uniE606" unicode="&#xe606;" 
d="M714 831h-433q-9 0 -15.5 -6.5t-6.5 -15.5v-844q0 -9 6.5 -15.5t15.5 -6.5h433q9 0 15.5 6.5t6.5 15.5v844q0 9 -6.5 15.5t-15.5 6.5zM497.5 9q-16.5 0 -27.5 11.5t-11 27.5t11 27.5t27.5 11.5t27.5 -11.5t11 -27.5t-11 -27.5t-27.5 -11.5zM681 143h-367v622h367v-622z
" />
    <glyph glyph-name="uniE607" unicode="&#xe607;" 
d="M877 577q-9 9 -22 9t-22 -9l-319 -322l-323 320q-9 9 -22 9t-22 -9t-9 -22t9 -22l344 -341h1v-1h1q9 -9 22 -9t22 9l340 344q9 9 9 22t-9 22zM877 577z" />
    <glyph glyph-name="uniE608" unicode="&#xe608;" 
d="M785 -128h-546q-28 0 -48 20t-20 48v888q0 28 20 48t48 20h546q28 0 48 -20t20 -48v-888q0 -28 -20 -48t-48 -20zM512 -60q19 0 32.5 13.5t13.5 32.5t-13.5 32t-32.5 13t-32.5 -13t-13.5 -32t13.5 -32.5t32.5 -13.5zM569 839q0 5 -3.5 8t-7.5 3h-114q-5 0 -8.5 -3
t-3.5 -8v-11q0 -5 3.5 -8.5t8.5 -3.5h114q4 0 7.5 3.5t3.5 8.5v11zM785 782h-546v-705h546v705z" />
    <glyph glyph-name="uniE609" unicode="&#xe609;" 
d="M502 672h117v-114h-117v114zM385 786h117v-114h-117v114zM502 102h-117v-121h117v121h117v114h-117v-114zM619 558h116v-114h-116v114zM735 444v-114h-116v-114h116v114h117v114h-117zM268 899h117v-113h-117v113zM268 -19h117v-114h-117v114z" />
    <glyph glyph-name="uniE60A" unicode="&#xe60a;" 
d="M228 -69l55 -55l509 508l-509 509l-55 -55l454 -454zM228 -69z" />
    <glyph glyph-name="uniE60B" unicode="&#xe60b;" 
d="M512 -58q90 0 172 35t141 94t94 141t35 172t-35 172t-94 141t-141 94t-172 35t-172 -35t-141 -94t-94 -141t-35 -172t35 -172t94 -141t141 -94t172 -35zM512 738q96 0 177.5 -47.5t129 -129t47.5 -177.5t-47.5 -177.5t-129 -129t-177.5 -47.5t-177.5 47.5t-129 129
t-47.5 177.5t47.5 177.5t129 129t177.5 47.5zM543 378l-160 190q-6 7 -5 16.5t8 15.5l31 26q7 6 16.5 5t15.5 -8l192 -228q6 -7 5 -17q1 -10 -5 -17l-192 -228q-6 -7 -15.5 -8t-16.5 5l-31 26q-7 6 -8 15.5t5 16.5zM543 378z" />
    <glyph glyph-name="uniE60C" unicode="&#xe60c;" 
d="M559 -60l-356 444l356 450l44 -34l-328 -416l328 -409zM754 -60l-355 444l355 450l44 -34l-327 -416l327 -409z" />
    <glyph glyph-name="uniE60D" unicode="&#xe60d;" 
d="M741 385l-449 449v-119l330 -330l-330 -330v-119zM741 385z" />
    <glyph glyph-name="uniE60E" unicode="&#xe60e;" 
d="M293 385l448 -449v119l-329 330l329 329v119zM293 385z" />
    <glyph glyph-name="uniE60F" unicode="&#xe60f;" 
d="M512 896q-139 0 -257 -68.5t-186.5 -186.5t-68.5 -257t68.5 -257t186.5 -186.5t257 -68.5t257 68.5t186.5 186.5t68.5 257t-68.5 257t-186.5 186.5t-257 68.5zM892 376q0 -2 -1 -3q0 -1 -0.5 -2t-0.5 -1.5t-0.5 -1.5t-0.5 -1.5t-1 -1.5v-1l-1 -3l-1 -2l-1 -2l-1 -2
q-1 0 -1 -1l-1 -1q-1 0 -1 -1l-1 -1q-1 -2 -2 -2t-2 -1.5t-2 -2.5l-211 -212q-17 -16 -40 -16t-39 16t-16 39.5t16 39.5l116 117h-515q-23 0 -39 16t-16 39t16 39t39 16h515l-116 117q-16 16 -16 39.5t16 39.5t39 16t40 -16l211 -212q1 0 1 -1q2 -2 4 -3q1 -1 1 -2v-1
q1 -1 2 -1q0 -1 1 -1q0 -1 1 -1l1 -2l1 -2l1 -2l1 -3q1 -1 1 -3l1 -2v-1q1 -1 1 -1.5t0.5 -1.5t0.5 -2l1 -2q2 -5 0 -11q-1 -2 -1 -4z" />
    <glyph glyph-name="uniE610" unicode="&#xe610;" 
d="M376 174q-8 -8 -8 -20.5t8 -20.5q9 -9 21 -9t20 9l231 230q8 9 8 21t-8 21l-231 230q-8 9 -20 9t-21 -9q-8 -8 -8 -20t8 -21l210 -210z" />
    <glyph glyph-name="uniE611" unicode="&#xe611;" 
d="M588 9l407 414l-407 413v-234q-54 0 -104.5 -7.5t-105.5 -27.5t-101 -51.5t-88.5 -82.5t-72.5 -116.5t-47.5 -158.5t-17.5 -205q15 50 41 91t55.5 70t68 51.5t72.5 36.5t75.5 23.5t70.5 13.5t64 5.5t49.5 1t32.5 -0.5q6 -1 8 -1v-235z" />
    <glyph glyph-name="uniE612" unicode="&#xe612;" 
d="M970 -10q-1 -3 -3 -6.5t-7.5 -4t-11.5 10.5q-2 5 -5.5 14.5t-16 37.5t-27.5 54.5t-40 61t-52 62t-65 53t-78.5 39t-92.5 13.5t-107 -17v-132q-1 -3 -1.5 -8t-5 -15.5t-12 -16t-22 -3.5t-33.5 16l-337 291l-7 5q-5 3 -13.5 12.5t-10.5 19.5t6 25.5t29 30.5l341 293
q2 1 5.5 3.5t13 5.5t17.5 2t16 -9.5t12 -24.5v-143h1q110 -6 225 -55q240 -103 289 -334q26 -124 -7 -281z" />
    <glyph glyph-name="uniE613" unicode="&#xe613;" 
d="M509 521q-90 -8 -155.5 -60t-65.5 -133q0 -92 64.5 -157t156.5 -65t156.5 65t64.5 157h165q0 -105 -51.5 -194.5t-140.5 -141.5t-194 -52t-194 52t-140.5 141.5t-51.5 194.5q0 100 54.5 181t142 127t189.5 52v140l276 -222v-28l-276 -194v137z" />
    <glyph glyph-name="uniE614" unicode="&#xe614;" horiz-adv-x="1442" 
d="M911.5 334.5q142.5 -3.5 263.5 31.5t192.5 98t73.5 139.5t-66.5 142.5t-188 106.5t-262 43.5t-263.5 -32t-193 -98t-73.5 -139.5t67 -142.5t188 -106t262 -43.5zM839 439.5q-32 -22.5 -84.5 -26t-95.5 14.5t-51 46.5t24 51t85 26t96 -14.5t50.5 -46.5t-24.5 -51z
M1165.5 417q-43.5 -16 -96 -10.5t-83.5 29.5t-22 52t52.5 44t96.5 10.5t83.5 -29.5t21.5 -52t-52.5 -44zM1167 720q51 8 98.5 -6.5t63.5 -42t-9 -52.5t-76 -32.5t-98.5 6.5t-63.5 41.5t9 52.5t76 33zM922.5 841q53.5 -1 91 -22t36.5 -50t-39 -48.5t-91.5 -18t-91 22.5
t-36.5 49.5t39 48t91.5 18.5zM508.5 690q17.5 27 65.5 39t98.5 2t74 -36t6.5 -53t-65 -39t-98.5 -2t-74.5 36t-6.5 53zM888 260q-61 4 -141.5 20t-149 33t-144.5 32.5t-139.5 17t-122.5 -12t-106 -55.5t-78 -113l-2 -78q57 134 141 168l-4 -193q-41 -17 -81.5 -59t-59.5 -93
l-1 -55q30 70 77 112.5t106 56t123 12t140 -17t144.5 -32.5t149 -33t141.5 -20q90 -5 177 6t147 30.5t107.5 41t70.5 36t23 15.5v29h1l5 238l1 43l-13 -8q-12 -8 -35.5 -21t-56.5 -28t-79 -29.5t-96.5 -25.5t-115 -16t-129.5 -1zM398 101q-114 17 -193 3l5 186q28 9 65.5 10
t57 -1.5t69.5 -8.5zM741 29q-47 9 -138 30t-133 30l4 189q47 -10 138 -33t133 -32zM1086 23q-101 -17 -200 -13q-33 2 -73 7l4 183q41 -6 72 -8q99 -4 201 12zM1351 110q-91 -46 -193 -72l4 179q101 24 193 67z" />
    <glyph glyph-name="uniE615" unicode="&#xe615;" 
d="M896 0v416q0 40 -28 68t-68 28h-160v224q0 40 -28 68t-68 28h-320q-40 0 -68 -28t-28 -68v-736h-64v-64h768h64h64v64h-64zM192 0v736q0 13 9.5 22.5t22.5 9.5h320q13 0 22.5 -9.5t9.5 -22.5v-736h-384zM640 0v448h160q13 0 22.5 -9.5t9.5 -22.5v-416h-192zM288 640h64
v-64h-64v64zM416 640h64v-64h-64v64zM288 512h64v-64h-64v64zM416 512h64v-64h-64v64zM288 384h64v-64h-64v64zM416 384h64v-64h-64v64z" />
    <glyph glyph-name="uniE616" unicode="&#xe616;" 
d="M707 -123l-143 397l-145 -137l24 -177l-74 -76l-121 195l-210 143l73 75l186 -37l137 153l-401 149l120 122l445 -86l144 144q58 58 112 70.5t87 -23.5q8 -7 14 -17t10.5 -29.5t1.5 -40.5t-20.5 -52t-50.5 -64l-145 -146l76 -440zM592 388l140 -393l27 26l-77 441
l169 169q36 37 48 67.5t-3 45.5q-8 8 -19 8q-35 0 -90 -55l-168 -169l-444 87l-27 -28l397 -147l-225 -249l-172 33l151 -106l74 -119l-22 161z" />
    <glyph glyph-name="uniE617" unicode="&#xe617;" 
d="M784 575q-32 0 -55 22.5t-23 55t23 55t55 22.5t55 -22.5t23 -55t-23 -55t-55 -22.5zM784 691q-16 0 -27.5 -11t-11.5 -27.5t11 -27.5t27.5 -11t27.5 11q12 11 12 27.5t-11.5 27.5t-27.5 11zM458.5 -67q-23.5 0 -39.5 17l-338 337q-17 17 -17 40t17 40l442 442
q19 18 66 18h13h289q28 0 48 -19.5t20 -48.5v-289v-6q0 -18 -0.5 -27.5t-5 -23t-13.5 -22.5l-442 -441q-16 -17 -39.5 -17zM589 789q-31 0 -39 -8l-442 -442q-5 -5 -5 -12t5 -12l338 -338q5 -5 12.5 -5t12.5 5l442 442q7 7 7 45v6v289q0 12 -8.5 21t-20.5 9h-289h-13z
M397 333q0 -25 16 -48l85 85q-13 21 -20.5 38.5t-8.5 32.5t5 28.5t20 27.5q15 15 32 21.5t34.5 6.5t34.5 -6.5t32 -19.5l21 21l18 -18l-22 -21q23 -29 22 -60.5t-22 -65.5l-27 27q25 38 1 73l-79 -79l14 -24q5 -8 9.5 -20.5t5.5 -28t-4 -31.5t-19 -31q-16 -15 -33.5 -22
t-35.5 -6.5t-36 8t-34 21.5l-27 -26l-17 18l26 26q-29 35 -28.5 73t31.5 74l27 -27q-21 -22 -21 -47zM450.5 254q10.5 -5 21 -5.5t21 4t20.5 14.5q9 10 12 19t2 19t-5.5 21t-10.5 22l-80 -80q9 -9 19.5 -14zM564 488.5q-20 1.5 -38 -17.5q-8 -8 -11.5 -16.5t-2.5 -17.5
t5 -18.5t9 -20.5l75 75q-17 14 -37 15.5z" />
    <glyph glyph-name="uniE618" unicode="&#xe618;" 
d="M237 411q4 1 37 14.5t38 14.5q-29 33 -64 114l-81 -23q66 -113 70 -120zM567 314l61 -69q29 10 65 31.5t66 45.5t56.5 46.5t41.5 37.5l15 15l-70 72q0 -5 -31 -38q-81 -88 -204 -141zM441 451l56 -29q24 23 48 57.5t37 57.5l12 22l-88 34v-1q-35 -97 -65 -141zM636 426
q39 19 91 68t84.5 86.5t32.5 39.5l-69 66q-4 -6 -11.5 -16.5t-30 -39t-44.5 -52.5t-52.5 -50.5t-56.5 -40.5zM594 207l-157 87h150v90h-165v45h-105v-45h-180v-90h135q-35 -47 -59 -70.5t-76 -56.5l55 -83q47 36 73 61.5t52 58.5v-165h105v165l122 -68zM819 310
q-4 -5 -10 -14.5t-31.5 -36.5t-56.5 -50.5t-85.5 -51t-117.5 -45.5l33 -73q40 9 78 23t66.5 27.5t55.5 29.5t45 29.5t35.5 29t26.5 24t18.5 19t10.5 11.5zM344 456h79q-6 37 -16 113l-96 -16q3 -5 8 -17.5t7.5 -19t6.5 -17t6.5 -21t4.5 -22.5zM587 633l-27 96q-3 -2 -9.5 -6
t-36.5 -14.5t-70.5 -19t-118.5 -16.5t-173 -10v-83q113 -2 200 2.5t129.5 12.5t68.5 17t32 15z" />
    <glyph glyph-name="uniE619" unicode="&#xe619;" 
d="M735 830h-448q-23 0 -39 -16.5t-16 -39.5v-782q0 -23 16 -39.5t39 -16.5h448q23 0 39 16.5t16 39.5v782q0 23 -16 39.5t-39 16.5zM735 -8h-448v782h448v-782zM511.5 112q-16.5 0 -28 -11.5t-11.5 -28.5t11.5 -28.5t28 -11.5t28 11.5t11.5 28.5t-11.5 28.5t-28 11.5z
M348.5 244q7.5 0 13 5.5t5.5 13.5v357h289v-61q0 -7 5 -12.5t13 -5.5t13 5.5t5 12.5v80q0 8 -5 13t-13 5h-326q-7 0 -12.5 -5t-5.5 -13v-376q0 -8 5.5 -13.5t13 -5.5zM348 160h326q8 0 13 5.5t5 13.5v290q0 8 -5 13.5t-13 5.5t-13 -5.5t-5 -13.5v-271h-308q-7 0 -12.5 -5.5
t-5.5 -13.5t5.5 -13.5t12.5 -5.5zM456 697h111q7 0 12.5 5.5t5.5 13t-5.5 13t-12.5 5.5h-111q-8 0 -13.5 -5.5t-5.5 -13t5.5 -13t13.5 -5.5z" />
    <glyph glyph-name="uniE61A" unicode="&#xe61a;" 
d="M388 721h248q137 -5 228 -96t97 -227v-13q-6 -136 -97 -227t-227 -96h-250q-134 4 -227 97q-92 92 -97 226v13q1 1 1 3q4 131 97 224q92 92 227 96zM253 650q-120 -70 -144 -208q-14 -80 14 -154q47 -128 176 -176q51 -19 157 -19q154 0 176 1q146 7 230 122
q39 53 51.5 125.5t-12.5 151.5q-22 60 -67 109q-44 46 -107 70q-51 19 -157 19q-156 0 -178 -1q-80 -4 -139 -40zM656 556q34 5 57.5 -14.5t23.5 -52.5q0 -29 -20.5 -48.5t-47.5 -19.5q-29 -1 -49 19.5t-19 50.5q0 24 16 42.5t39 22.5zM625 508q-11 -26 3 -45t35 -21
q32 -4 45.5 21.5t0 50.5t-45.5 22q-28 -4 -38 -28zM368 510v-71q5 -2 36.5 -1.5t37.5 -0.5v-44h-73q-2 -6 -1.5 -42t0.5 -43h-45v84q-5 2 -38 1.5t-40 -0.5v44h77q2 11 1.5 36.5t0.5 36.5h44zM660 372q32 4 54 -16t23 -50q0 -43 -38 -63q-36 -17 -67.5 5t-30.5 58
q0 26 16.5 44.5t42.5 21.5zM625 325q-9 -21 0.5 -40t27.5 -25q40 -12 56 22q14 30 -4 54q-16 20 -45 15q-26 -4 -35 -26z" />
    <glyph glyph-name="uniE61B" unicode="&#xe61b;" 
d="M484 -78q-21 2 -22 2q-103 7 -190 58q-132 76 -192 208q-27 59 -37 117q0 2 -6 58v5v25l1 17q3 52 16 97q41 137 142 223q90 77 201 102q36 8 71 10q1 0 18 2h26q16 -2 17 -2q68 -4 135 -29q104 -40 179.5 -124.5t102.5 -191.5q13 -50 14 -94l1 -5v-28q-1 -5 -1 -6
q0 -3 -0.5 -13t-1.5 -15q-3 -37 -13 -76q-29 -105 -107.5 -191.5t-189.5 -123.5q-59 -19 -111 -23q-1 0 -22 -2h-31zM945 383q0 93 -37 177t-99 144t-147.5 94t-178.5 31q-88 -3 -168.5 -40t-139 -98t-92 -146t-30.5 -179q3 -87 40 -166t96.5 -137t142.5 -92t173 -33
q121 2 222 62.5t159.5 162t58.5 220.5zM505 755h10q47 -5 55 -7q16 -2 32 -5q13 -4 19.5 -14.5t2.5 -22.5q-12 -45 -19 -64q-16 -46 -44 -81q-5 -5 -3 -12q10 -31 21 -72q10 -36 21 -75q6 -24 14 -57q11 -43 16 -64q7 -33 15 -69q4 -21 8 -45q4 -23 7 -49q1 -13 -8 -25
q-22 -27 -52 -51q-15 -12 -57 -42q-13 -9 -31 -19q-17 -10 -33 0q-49 30 -91 66q-28 25 -47 46q-11 13 -8 29q1 8 3.5 24t3.5 24q1 10 7 34q10 51 15 71q5 25 14 60q10 42 17 69q9 32 21 76q4 14 11.5 38.5t10.5 34.5q0 3 -1 4q-25 31 -39 66q-8 19 -20 54q-5 15 -8 32
q-2 10 3.5 19.5t15.5 13.5q10 2 33 6q22 4 40 6l24 1h4h17zM496 743q-30 -2 -32 -2q-34 -5 -69 -10q-8 -2 -12 -7.5t-2 -13.5q4 -20 10 -40q21 -66 58 -109q1 -2 0 -5q-1 -7 -18 -66t-25 -89q-46 -169 -60 -280q-2 -13 6 -20q1 -2 4 -5l4 -4q52 -55 125 -100q8 -5 16 -2
q1 1 15 9q49 28 85 61q26 23 42 43q5 7 4 14q-7 48 -9 60q-15 89 -44 197q-6 23 -51 182q-1 3 1 6q6 6 9 10q40 54 59 137q2 8 -2 14t-13 8q-2 0 -15 3q-47 8 -86 9zM381 122q7 43 8 46q17 100 58 248q6 24 19 69.5t16 56.5q1 4 6 4h18q3 0 4 -4q3 -10 13.5 -46t15.5 -55
q32 -116 52 -206q13 -63 20 -113q0 -2 -2 -5q-26 -30 -61 -54q-10 -7 -51 -34q-2 -1 -4 0q-65 42 -109 89zM493 533l-1 -2q-27 -96 -30 -107q-9 -33 -22 -83q-5 -18 -15 -61q-8 -33 -11 -47q-5 -24 -12 -63q0 -2 -6 -37q-2 -8 3 -13q7 -5 18 -15.5t16 -15.5q26 -23 60 -44
q2 -2 5 -1q34 20 58 41q7 6 39 36q2 2 2 5q1 2 0 8q-7 40 -8 45q-7 36 -16 77q-7 32 -14 61q-10 38 -24 91q0 1 -13 46q-2 9 -22 79h-7zM419 699q78 15 154 0q-6 -22 -7 -23q-15 -47 -38 -79q-10 -13 -13 -15h-18h-7t-9 -1q-3 0 -6 3q-25 30 -43 78q-1 2 -13 37zM558 689
q-61 10 -123 0q11 -30 12 -32q15 -37 35 -60q2 -3 4 -3h20q3 0 5 2t6 8q15 20 26 47q1 2 15 38z" />
    <glyph glyph-name="uniE61C" unicode="&#xe61c;" 
d="M764 -73h-501v569h43v-526h415v528h194l39 176l-231 116q-8 -20 -21 -37.5t-36.5 -37t-63 -31.5t-89.5 -12v43q44 0 78.5 11t52 25t29 32.5t14 26.5t3.5 13l4 29l310 -155l-55 -242h-185v-528zM306 455h-231l-54 242l309 155l4 -29q1 -5 4 -13t15 -26.5t29.5 -32.5
t52 -25t78.5 -11v-43q-50 0 -89.5 12t-63.5 32t-37.5 37.5t-21.5 36.5l-231 -116l39 -176h197v-43zM740 476z" />
    <glyph glyph-name="uniE61D" unicode="&#xe61d;" 
d="M510 830q-91 0 -173.5 -35.5t-142 -95.5t-95 -142.5t-35.5 -173t35.5 -173t95 -142.5t142 -95t173.5 -35t173.5 35t142 95t95 142.5t35.5 173t-35.5 173t-95 142.5t-142 95.5t-173.5 35.5zM510 -15q-108 0 -199.5 53.5t-145 145.5t-53.5 200t53.5 199.5t145 145
t199.5 53.5t200 -53.5t145 -145t53 -199.5t-53 -200t-145 -145.5t-200 -53.5zM618 617l-71 -131q-28 -52 -35 -70h-1q-18 42 -105 201h-67l124 -213h-102v-47h120v-65h-120v-47h120v-95h59v95h114v47h-114v65h114v47h-98l125 213h-63zM618 617z" />
    <glyph glyph-name="uniE61E" unicode="&#xe61e;" 
d="M512 -128q-139 0 -257 68.5t-186.5 186.5t-68.5 257t68.5 257t186.5 186.5t257 68.5t257 -68.5t186.5 -186.5t68.5 -257t-68.5 -257t-186.5 -186.5t-257 -68.5zM512 861q-97 0 -185.5 -37.5t-152.5 -101.5t-101.5 -152.5t-37.5 -185.5t37.5 -185.5t101.5 -152.5
t152.5 -101.5t185.5 -37.5t185.5 37.5t152 101.5t101.5 152.5t38 185.5t-38 185.5t-101.5 152.5t-152 101.5t-185.5 37.5zM656 305q0 -41 -26 -70t-77 -36v-53h-29h-26v51q-76 6 -123 55l35 48q36 -40 88 -48v102q-24 7 -40.5 13t-34.5 17.5t-27.5 29.5t-9.5 42
q0 41 31 69.5t81 33.5v54h43v-1h12v-56q57 -10 95 -46l-35 -46q-24 24 -60 34v-91q48 -13 75.5 -35.5t27.5 -66.5zM553 254q39 11 39 45q0 26 -39 40v-85zM498 504q-22 -3 -35 -14.5t-13 -28.5q0 -25 48 -40v83zM538 701q-93 0 -171.5 -39t-124.5 -107t-46 -147v-15
q1 -11 -6.5 -19.5t-19.5 -9.5h-2q-11 0 -19 7.5t-8 18.5q-1 9 -1 18q0 94 53.5 174.5t145 127.5t199.5 47q12 0 20 -8t8 -19.5t-8 -20t-20 -8.5z" />
    <glyph glyph-name="uniE61F" unicode="&#xe61f;" 
d="M865 234q30 73 30 152t-30 152q-29 70 -82 124t-122 83q-71 31 -149 31t-149 -31q-69 -29 -122 -83t-82 -124q-30 -73 -30 -152t30 -152q29 -69 82 -123t122 -84q71 -31 149 -31q11 0 23 1l286 -2q9 0 15 6t6 14.5t-5 14.5q-7 6 -15 7l-138 1q55 28 99 73q53 54 82 123z
M545 39h-16q-5 0 -9 -2h-8q-141 0 -241.5 102t-100.5 247t100.5 247t241.5 102t241.5 -102t100.5 -247t-100 -247q-87 -88 -209 -100zM512 471q39 0 67 28t28 67.5t-28 67.5t-67 28t-67 -28t-28 -67.5t28 -67.5t67 -28zM512 621q22 0 38 -16t16 -38.5t-16 -38.5t-38 -16
t-38 16t-16 38.5t16 38.5t38 16zM699.5 481q-39.5 0 -67.5 -28t-28 -67t28 -67t67.5 -28t67 28t27.5 67t-27.5 67t-67 28zM699.5 332q-22.5 0 -38.5 16t-16 38.5t16 38t38.5 15.5t38.5 -15.5t16 -38t-16 -38.5t-38.5 -16zM328 482q-39 0 -67 -27.5t-28 -67t28 -67.5t67 -28
t67 28t28 67.5t-28 67t-67 27.5zM328.5 333q-22.5 0 -38.5 16t-16 38.5t16 38.5t38.5 16t38 -16t15.5 -38.5t-15.5 -38.5t-38 -16zM510.5 284q-39.5 0 -67 -28t-27.5 -67.5t27.5 -67t67 -27.5t67.5 27.5t28 67t-28 67.5t-67.5 28zM510.5 135q-22.5 0 -38 15.5t-15.5 38
t15.5 38.5t38 16t38.5 -16t16 -38.5t-16 -38t-38.5 -15.5z" />
    <glyph glyph-name="uniE620" unicode="&#xe620;" 
d="M302 487q-30 0 -55 3q-46 7 -64 24q-23 24 -23 58t23.5 57.5t57 23.5t57.5 -24q20 -20 26 -76q2 -26 2 -49q0 -7 -5 -12t-13 -5h-6zM241 617q-19 0 -32.5 -13t-13.5 -32t14 -32q15 -15 81 -17q-2 66 -17 81q-13 13 -32 13zM356 487h-7t-12 5t-5 12q-1 23 2 49q5 56 25 76
q24 24 57.5 24t57.5 -23.5t24 -57.5t-24 -58q-18 -17 -63 -24q-26 -3 -55 -3zM417 617q-19 0 -32 -13q-16 -15 -18 -81q67 2 82 17q13 13 13 32t-13 32t-32 13zM416.5 314q-33.5 0 -57.5 24q-20 20 -25 76q-3 26 -2 49q0 7 5 12t12 5h7q29 0 55 -3q45 -7 63 -25
q24 -23 24 -57t-24 -57.5t-57.5 -23.5zM367 444q2 -66 18 -81q13 -13 32 -13t32 13t13 32t-13 32q-15 15 -82 17zM240.5 314q-33.5 0 -57 23.5t-23.5 57.5t23 57q18 18 64 25q25 3 55 3h6q8 0 13 -5t5 -12q0 -23 -2 -49q-6 -56 -26 -76q-24 -24 -57.5 -24zM290 444
q-66 -2 -81 -17q-14 -13 -14 -32t13.5 -32t32.5 -13t32 13q15 15 17 81zM962 384q0 -7 -5.5 -12.5t-13 -5.5t-12.5 5.5t-5 12.5t5 12.5t12.5 5.5t13 -5.5t5.5 -12.5zM886 11h-746q-31 0 -53.5 22t-22.5 54v577q0 31 22.5 53.5t53.5 22.5h746q31 0 53.5 -22.5t22.5 -53.5
v-181q0 -7 -5.5 -12t-12.5 -5h-844v-379q0 -17 12 -29t28 -12h746q16 0 28 12t12 29v198q0 8 5 13t12.5 5t13 -5t5.5 -13v-198q0 -32 -22.5 -54t-53.5 -22zM100 501h826v163q0 17 -12 28.5t-28 11.5h-746q-16 0 -28 -11.5t-12 -28.5v-163zM328.5 22q-7.5 0 -12.5 5t-5 13
v672q0 8 5 13t12.5 5t13 -5t5.5 -13v-672q0 -8 -5.5 -13t-13 -5z" />
    <glyph glyph-name="uniE621" unicode="&#xe621;" horiz-adv-x="1424" 
d="M1187 795h237v-237h-237v237zM915 884h97v-97h-97v97zM1305 -6zM1184 109v238h-238v234h-237v236h-234h-3h-235h-237v-236v-2v-232v-3v-235v-237h237h235h3h234h238h235h2h235v237h-235zM226 300v60h58v122h49q24 0 24 -5q0 -2 -3 -7q-2 -9 -2 -28v-82h51v-60h-51v-56
q14 7 28 16l21 -33q53 31 91 80h-72v58h44q-19 40 -42 68l58 37q28 -33 49 -75l-49 -30h61v117h39q35 0 35 -5v-9q-4 -12 -4 -26v-77h56q-27 14 -47 26q30 46 42 79q63 -30 65 -33l-9 -11q-16 -28 -40 -61h68v-58h-91q35 -42 114 -63q-30 -28 -44 -68q-82 33 -112 84v-56
h-42q37 -12 37 -16q0 -3 -7 -10q-9 -7 -16 -16h173v-61h-66q-11 -32 -37 -60q98 -37 110 -47q-19 -21 -45 -65q-58 37 -116 63q-75 -44 -177 -63q-10 33 -42 68q88 2 135 23q-7 2 -21 7q-56 16 -79 18q-3 0 -3 5q28 26 47 54h-63v37q-12 -7 -14 -7q-12 26 -35 56v-252h-68
v177q-11 -25 -25 -46q-24 35 -47 56q65 95 75 175h-61zM541 262q-42 -51 -86 -84l-10 7q-21 21 -39 33q2 -4 9 -16q9 -10 23 -38h61q14 23 25 49q12 -2 17 -2v51zM545 104q-6 -9 -16 -21q14 -5 42 -14q7 -3 12 -3q18 17 28 38h-66z" />
    <glyph glyph-name="uniE622" unicode="&#xe622;" 
d="M512 -63q-210 0 -306.5 74.5t-96.5 230.5q0 127 87.5 244.5t211.5 159.5h208q124 -42 211.5 -159.5t87.5 -244.5q0 -156 -96.5 -230.5t-306.5 -74.5zM624 274q14 0 24 10t10 24t-10 24t-24 10h-69l-1 1q0 1 1 1l80 82q16 17 -6 40q-11 10 -24.5 11.5t-22.5 -7.5l-69 -73
l-75 74q-8 7 -20 5t-22 -12t-12 -21.5t5 -18.5l77 -76q-2 -3 -3 -6h-62v0q-15 0 -25 -10t-10 -24t10 -24t25 -10v0h68v-33h-68v0q-15 0 -25 -10t-10 -24t10 -24t25 -10v0h68v-34h1q-1 -4 -1 -8q0 -18 12.5 -30t30.5 -12t30.5 12t12.5 30q0 4 -1 8v34h70q14 0 24 10t10 24
t-10 23.5t-24 10.5h-70v33h70zM675 781l-7 -9l-1 -1l-61 -75h-205l-61 75v1q-1 0 -1 1l-7 8l1 2q-1 5 -1 6q0 18 16 24l1 1q85 17 154 17q33 0 71.5 -4t60.5 -8l23 -5v-1q17 -7 17 -24q0 -1 -1 -6zM675 781z" />
    <glyph glyph-name="uniE623" unicode="&#xe623;" 
d="M709 542h-395q-17 0 -28.5 11.5t-11.5 27.5t11.5 27.5t28.5 11.5l395 1q17 0 28.5 -11.5t11.5 -28t-11.5 -28t-28.5 -11.5zM709 384h-395q-17 0 -28.5 11.5t-11.5 28t11.5 28t28.5 11.5h395q17 0 28.5 -11.5t11.5 -28t-11.5 -28t-28.5 -11.5zM849 233l-1 -1h-1l-263 -264
q-12 -18 -33 -18q-8 0 -15 3l-1 1q-8 3 -13 8q-1 2 -5 8q-7 12 -5 24l-1 193h1v40q0 32 23 55t56 23h41v1h156l-1 362q-1 43 -16.5 56.5t-61.5 13.5l36 1h-456l26 -1q-49 0 -64 -14.5t-15 -64.5v-550q0 -49 15 -63.5t64 -14.5l77 -1q16 0 27.5 -11.5t11.5 -28t-11.5 -28
t-27.5 -11.5h-117h-39q-33 0 -56 23t-23 56v41v626v42q0 32 22 54.5t53 23.5l556 1q31 0 54 -22t24 -54v-467q6 -27 -17 -42zM670 227h-22q-43 1 -50.5 -6t-7.5 -49v-22v-64l141 141h-61zM787 739v-26v26zM787 739z" />
    <glyph glyph-name="uniE624" unicode="&#xe624;" 
d="M535 887q-10 9 -23 9t-23 -9q-11 -11 -28 -27.5t-59 -61t-80.5 -88.5t-84 -104t-78 -113.5t-54.5 -110.5t-22 -102q0 -111 57.5 -205t156.5 -148.5t215 -54.5t215 54.5t156.5 148.5t57.5 205q0 45 -22 102t-54.5 110.5t-78 113.5t-84 104t-80.5 88.5t-59 61t-28 27.5z
M512 -66q-99 0 -183 46t-133 126t-49 174q0 53 39 129.5t100 155t117 141.5t109 115q53 -52 109 -115t117 -141.5t100 -155t39 -129.5q0 -94 -49 -174t-133 -126t-183 -46zM761 296q-14 2 -24.5 -6t-11.5 -21q-9 -73 -58.5 -129t-123.5 -77q-13 -3 -19.5 -14.5t-2.5 -23.5
q7 -22 31 -22q5 0 10 1q92 26 154 96.5t73 161.5q2 13 -6.5 23t-21.5 11zM761 296z" />
    <glyph glyph-name="uniE625" unicode="&#xe625;" 
d="M190 174q28 70 68.5 123t83 82t87.5 48t84.5 24.5t71.5 6.5t50 -2l18 -2v-186l371 279l-371 280v-140q-82 -18 -150 -46.5t-114 -62t-82 -72.5t-57 -77.5t-35 -76t-19 -69.5t-6.5 -56.5t-1 -38.5t1.5 -14zM749 21h-669v526h184h1q42 49 101 95h-366v-701h828v386l-79 -64
v-242z" />
    <glyph glyph-name="uniE626" unicode="&#xe626;" 
d="M844 685q-86 86 -201.5 116.5t-230.5 0t-201 -116.5t-116.5 -201t0 -230.5t116.5 -201.5q3 -2 7.5 -6t5.5 -5q-62 -1 -102 -12q-19 -6 -26.5 -13.5t-5.5 -20.5q1 -13 8 -16t38 3q23 7 80 5t106 -16q84 -43 178 -49t184.5 27.5t159.5 102.5q86 86 116.5 201.5t0 230.5
t-116.5 201zM535 725q51 0 87 -36t36 -87.5t-36 -87.5t-87 -36t-87.5 36t-36.5 87.5t36.5 87.5t87.5 36zM600 372q0 -29 -21 -50t-50 -21t-50 21t-21 50t21 49.5t50 20.5t50 -20.5t21 -49.5zM176 366q0 51 36 87.5t87.5 36.5t87.5 -36.5t36 -87.5t-36 -87.5t-87.5 -36.5
t-87.5 36.5t-36 87.5zM535 19q-51 0 -87.5 36t-36.5 87t36.5 87.5t87.5 36.5t87 -36.5t36 -87.5t-36 -87t-87 -36zM758.5 242q-51.5 0 -87.5 36.5t-36 87.5t36 87.5t87.5 36.5t87.5 -36.5t36 -87.5t-36 -87.5t-87.5 -36.5z" />
    <glyph glyph-name="uniE627" unicode="&#xe627;" horiz-adv-x="1143" 
d="M880 364h-142q-10 0 -17 7t-7 17t7 17t17 7h142q10 0 17 -7t7 -17t-7 -17t-17 -7zM880 459h-142q-30 0 -51 -21t-21 -50t21 -50t51 -21h142q30 0 51 21t21 50t-21 50t-51 21zM500 601h142q10 0 17 -7t7 -17t-7 -17t-17 -7h-142q-10 0 -17 7t-7 17t7 17t17 7zM500 506h142
q30 0 51 21t21 50t-21 50t-51 21h-142q-30 0 -51 -21t-21 -50t21 -50t51 -21zM666 -61q-33 0 -83.5 13t-84 25t-91.5 35q-91 36 -121 42v239q46 0 84.5 -7.5t68 -22t45 -24.5t38.5 -28q16 -12 24.5 -18t22 -12t26.5 -6q159 0 184 -47h-303q-10 0 -17 -7t-7 -16.5t7 -16.5
t17 -7h333q29 0 63 13.5t53.5 26.5t52.5 37q56 41 69 41q30 0 39 -8t9 -39q0 -18 -48 -54t-113.5 -71t-141.5 -61.5t-126 -26.5zM48 364h190v-378h-190v378zM1047 246q-14 0 -31 -7.5t-29.5 -16t-36.5 -26.5q-79 -57 -120 -66q-5 22 -19 39t-36.5 26.5t-43 15.5t-50 8t-45 3
t-41.5 1q-11 0 -44 25q-25 20 -42 31t-50.5 27.5t-77 25t-95.5 9.5v47q0 10 -7 17t-17 7h-238q-10 0 -17 -7t-7 -17v-425q0 -10 7 -17t17 -7h238q10 0 17 7t7 17v43q26 -8 103 -38q61 -24 96.5 -36.5t89.5 -26t91 -13.5q67 0 180.5 43t204.5 106t91 111q0 49 -22.5 71.5
t-72.5 22.5zM738 790h142q10 0 17 -7t7 -17t-7 -17t-17 -7h-142q-10 0 -17 7t-7 17t7 17t17 7zM738 695h142q30 0 51 21t21 50t-21 50t-51 21h-142q-30 0 -51 -21t-21 -50t21 -50t51 -21z" />
    <glyph glyph-name="uniE628" unicode="&#xe628;" 
d="M362 710h154l247 -318l-254 -310h-146l250 310zM610 100z" />
    <glyph glyph-name="uniE629" unicode="&#xe629;" 
d="M52 635q-23 -23 -23 -55t23 -55l404 -392q23 -23 56 -23t57 23l403 392q24 23 24 55t-23.5 55t-57 23t-56.5 -23l-347 -337l-346 337q-24 23 -57 23t-57 -23v0z" />
    <glyph glyph-name="uniE62A" unicode="&#xe62a;" 
d="M943 149q22 21 22 51.5t-22 51.5l-378 367q-22 22 -53 22t-53 -22l-378 -367q-22 -21 -22 -51.5t22 -52t53 -21.5t53 22l325 315l325 -315q22 -22 53 -22t53 22z" />
    <glyph glyph-name="uniE62B" unicode="&#xe62b;" 
d="M0 151l512 512l512 -512l-29 -30l-483 483l-483 -483z" />
    <glyph glyph-name="uniE62C" unicode="&#xe62c;" 
d="M234 209l278 278l278 -278l46 47l-324 324l-324 -324z" />
    <glyph glyph-name="uniE62D" unicode="&#xe62d;" 
d="M846 535l-334 -334l-33 33l334 333zM511 202l-333 332l33 33l333 -332z" />
    <glyph glyph-name="uniE62E" unicode="&#xe62e;" 
d="M178 233l334 334l33 -33l-334 -333zM513 566l333 -332l-33 -33l-333 332z" />
    <glyph glyph-name="uniE62F" unicode="&#xe62f;" 
d="M939 38l-183 183q55 75 70 165t-13 178.5t-95 155.5q-73 73 -172 99.5t-197.5 0t-172 -100t-100 -172t0 -197.5t99.5 -172q71 -71 164.5 -98t188.5 -6.5t169 85.5l181 -181q12 -12 30 -12t30.5 12.5t12.5 30t-13 29.5zM237.5 237.5q-87.5 87.5 -87.5 210.5t87.5 210.5
t210.5 87.5t210 -87q84 -84 87.5 -202t-74.5 -206q-1 -1 -3 -2l-4 -6q-3 -3 -6 -5q-87 -88 -210 -88t-210.5 87.5z" />
    <glyph glyph-name="uniE630" unicode="&#xe630;" horiz-adv-x="1000" 
d="M939.5 758q-11.5 12 -28.5 12t-28 -12l-396 -396q-12 -12 -12 -28.5t11.5 -28t28.5 -11.5t28 11l396 396q12 12 12 28.5t-11.5 28.5zM792.5 333q-16.5 0 -28 -11.5t-11.5 -27.5v-199q0 -16 -11.5 -27.5t-28.5 -11.5h-515q-16 0 -28 11.5t-12 27.5v635q0 16 12 27.5
t28 11.5h396q17 0 28.5 11.5t11.5 28t-11.5 28t-28.5 11.5h-436q-32 0 -55.5 -23t-23.5 -56v-713q0 -33 23.5 -56.5t55.5 -23.5h595q33 0 56 23.5t23 56.5v238q0 16 -11.5 27.5t-28 11.5z" />
    <glyph glyph-name="uniE631" unicode="&#xe631;" 
d="M711.5 605q18.5 0 32 13t13.5 31v200q0 19 -13.5 31.5t-32 12.5t-31.5 -12.5t-13 -31.5v-200q0 -18 13 -31t31.5 -13zM623 783h-222v-67h222v67zM884 783h-83v-67h86q19 0 33 -13.5t14 -32.5v-154h-844v154q0 19 14 32.5t33 13.5h87v67h-83q-48 0 -82.5 -34.5
t-34.5 -82.5v-677q0 -48 33.5 -82.5t81.5 -34.5h745q48 0 82.5 34.5t34.5 82.5v677q0 48 -34.5 82.5t-82.5 34.5zM934 -14q0 -19 -14 -33t-33 -14h-750q-19 0 -33 14t-14 33v464h844v-464zM267 250q28 0 47.5 19.5t19.5 47t-19.5 47.5t-47.5 20t-47.5 -20t-19.5 -47.5
t19.5 -47t47.5 -19.5zM511.5 250q27.5 0 47 19.5t19.5 47t-19.5 47.5t-47 20t-47 -20t-19.5 -47.5t19.5 -47t47 -19.5zM266 5q28 0 47.5 19.5t19.5 47.5t-19.5 47.5t-47.5 19.5t-47.5 -19.5t-19.5 -47.5t19.5 -47.5t47.5 -19.5zM511.5 5q27.5 0 47 19.5t19.5 47.5
t-19.5 47.5t-47 19.5t-47 -19.5t-19.5 -47.5t19.5 -47.5t47 -19.5zM755.5 250q27.5 0 47 19.5t19.5 47t-19.5 47.5t-47 20t-47 -20t-19.5 -47.5t19.5 -47t47 -19.5zM311.5 605q18.5 0 32 13t13.5 31v200q0 19 -13.5 31.5t-32 12.5t-31 -12.5t-12.5 -31.5v-200
q0 -18 12.5 -31t31 -13z" />
    <glyph glyph-name="uniE632" unicode="&#xe632;" 
d="M528 -67q-14 16 -37.5 44.5t-83 107.5t-105 150t-83 154.5t-37.5 137.5q0 95 47 173.5t126 123t173 44.5q93 0 172.5 -45.5t126 -124.5t46.5 -171q0 -53 -37 -135.5t-82.5 -153.5t-105 -151t-83 -109t-37.5 -45zM528 826q-125 0 -215 -88.5t-90 -210.5q1 -45 32.5 -116.5
t75.5 -140.5t90 -132.5t76 -101.5t31 -39q13 15 33.5 41t73 98.5t92.5 136t72.5 137t32.5 118.5q0 79 -40.5 148t-111 110t-152.5 40zM640 568q0 -47 -32.5 -80t-79.5 -33t-80 33t-33 80t33 80t80 33t79.5 -33t32.5 -80zM528 640q-30 0 -51 -21t-21 -51t21 -51t51 -21t51 21
t21 51t-21 51t-51 21z" />
    <glyph glyph-name="uniE633" unicode="&#xe633;" 
d="M512 656l114 -232l256 -37l-185 -180l44 -255l-229 120l-229 -120l44 255l-185 180l256 37z" />
    <glyph glyph-name="uniE634" unicode="&#xe634;" 
d="M900 418l-401 401q-13 13 -31 13t-31 -12.5t-13 -31t13 -30.5l374 -374l-374 -373q-13 -13 -13 -31t13 -30.5t31 -12.5t31 12l401 402q14 13 12 33q2 20 -12 34zM598 384q1 20 -12 34l-402 401q-13 13 -30.5 13t-30.5 -12.5t-13 -30.5t13 -31l373 -374l-373 -373
q-13 -13 -13 -31t13 -30.5t30.5 -12.5t30.5 12l402 402q13 13 12 33z" />
    <glyph glyph-name="uniE635" unicode="&#xe635;" 
d="M63 832v-898h896v898h-896zM922 794v-168h-822v168h822zM100 -29v618h822v-618h-822zM343 738h56v-56h-56v56zM623 738h56v-56h-56v56zM383 456q-2 -14 -6.5 -23t-9 -13.5t-15 -7t-17.5 -3.5t-24 -1l-7 -1v-31h74v-208h39v294h-33zM603 367q-26 0 -49 -15l13 69h123v37
h-152l-30 -159h34l2 3q19 30 56 30q28 0 46.5 -18.5t18.5 -46.5t-17 -49t-46 -21q-26 0 -43.5 16.5t-17.5 41.5l-1 7h-39v-7q1 -42 28.5 -67.5t70.5 -25.5q44 0 74 29.5t30 72.5q0 46 -28 74.5t-73 28.5z" />
    <glyph glyph-name="uniE636" unicode="&#xe636;" 
d="M902 -6h-76v102h102v-19v-55q-4 -23 -26 -28zM685 134v64h-64v-204h-39q-6 0 -10.5 2.5t-7 9t-4 12.5t-2 17t-0.5 17v20v19v177q0 58 -1 78q-1 7 2 11.5t11.5 6t14 2t19 0t18.5 -0.5h165v-141h77v141q1 -1 7 -0.5t15.5 -1t18.5 -4t16 -8.5t7 -14v-90q-1 -14 -1 -42v-49
l1 -22h-243zM902 416h-320q-10 0 -17.5 7.5t-7.5 18.5v320q0 10 7.5 17.5t17.5 7.5h320q11 0 18.5 -7.5t7.5 -17.5v-320q0 -11 -7.5 -18.5t-18.5 -7.5zM864 723h-242q-1 0 -1 -4v-240h243v244zM730 657q28 5 48.5 -11.5t20.5 -42.5q1 -34 -27.5 -50.5t-55.5 -2.5
q-21 11 -27.5 34.5t4.5 45.5t37 27zM480 -6h-320q-11 0 -18.5 7.5t-7.5 17.5v320q0 11 7.5 18.5t18.5 7.5h320q11 0 18.5 -7.5t7.5 -18.5v-320q0 -10 -7.5 -17.5t-18.5 -7.5zM442 301h-242q-2 0 -2 -4v-241h244v245zM307 234q28 6 48.5 -10.5t20.5 -43.5q1 -33 -27 -50
t-56 -2q-20 11 -27 34.5t4.5 45t36.5 26.5zM480 416h-320q-11 0 -18.5 7.5t-7.5 18.5v320q0 10 7.5 17.5t18.5 7.5h320q11 0 18.5 -7.5t7.5 -17.5v-320q0 -11 -7.5 -18.5t-18.5 -7.5zM442 723h-242q-2 0 -2 -4v-240h244v244zM307 657q28 5 48.5 -11.5t20.5 -42.5
q1 -34 -27 -50.5t-56 -2.5q-20 11 -27 34.5t4.5 45.5t36.5 27zM787 -6h-13h-89v102h102v-102z" />
    <glyph glyph-name="uniE637" unicode="&#xe637;" 
d="M1009 496l-59 -57l-159 159l58 57q13 13 31 14.5t30 -9.5l105 -103q11 -11 9 -29.5t-15 -31.5v0zM763 571l161 -157l-383 -378q-6 -6 -14 -8q-1 0 -3 -1l-200 -62q-10 -3 -15 3q-6 6 -3 15l64 196q0 2 1 3q2 12 9 15l73 67h-243q-7 0 -13 7t-6 14t6 14t13 7h281l272 265
v0zM491 49l-98 97l-27 -82l42 -42l83 27v0zM758 509q-4 4 -10.5 4t-10.5 -4l-300 -294q-5 -4 -5 -10.5t5 -10.5q4 -3 10 -3t10 3l299 295q11 8 2 20v0zM90 -65q-21 0 -21 14v801q0 5 1 8.5t4.5 5t4.5 1.5h7h9h69v-27q0 -7 7.5 -13t15.5 -6t15.5 6t7.5 13v27h104v-27
q0 -7 7 -13t16 -6q8 0 15.5 6t7.5 13v27h95v-27q0 -7 7 -13t16 -6q8 0 15 6t7 13v27h95v-27q0 -7 7.5 -13t15.5 -6t15.5 6t7.5 13v27h80q16 0 16 -15v-132l59 57v75q0 31 -21.5 51.5t-53.5 20.5h-81v49q0 8 -7 13.5t-16 5.5q-8 0 -15.5 -5.5t-7.5 -13.5v-49h-95v49
q0 8 -7 13.5t-16 5.5q-8 0 -15.5 -5.5t-7.5 -13.5v-49h-95v49q0 8 -7 13.5t-15 5.5t-15.5 -5.5t-7.5 -13.5v-49h-104v49q0 8 -7 13.5t-16 5.5q-8 0 -15.5 -5.5t-7.5 -13.5v-49h-68q-42 0 -63.5 -20t-21.5 -52v-800q0 -31 24 -51.5t57 -20.5h629q32 0 53 20.5t21 51.5v276
l-58 -57v-220q0 -14 -16 -14h-630zM588 605h-379q-7 0 -12.5 -7t-5.5 -14q0 -8 5.5 -15t12.5 -7h379q7 0 12.5 7t5.5 14.5t-5.5 14.5t-12.5 7v0zM588 459h-379q-7 0 -12.5 -7t-5.5 -14q0 -8 5 -15t13 -7h379q7 0 12.5 7.5t5.5 14.5t-5.5 14t-12.5 7v0zM588 459z" />
    <glyph glyph-name="uniE638" unicode="&#xe638;" 
d="M870 763h-37v-182q0 -29 -20.5 -49.5t-49.5 -20.5t-49.5 20.5t-20.5 49.5v182h-361v-181q0 -29 -20.5 -49.5t-49.5 -20.5t-49.5 20.5t-20.5 49.5v181h-38q-37 0 -63.5 -26.5t-26.5 -63.5v-196h896v196q0 37 -26.5 63.5t-63.5 26.5zM315 601q0 -22 -15.5 -38t-37.5 -16
t-38 16t-16 38v176q0 23 16 38.5t38 15.5t37.5 -15.5t15.5 -38.5v-176zM818 601q0 -22 -15.5 -38t-38.5 -16q-22 0 -37.5 16t-15.5 38v176q0 23 15.5 38.5t37.5 15.5q23 0 38.5 -15.5t15.5 -38.5v-176zM908 439v-7v-102v-249q0 -38 -26.5 -64t-63.5 -26h-613q-37 0 -63 26
t-26 64v258v93v7h-52v-88v-12v-312q0 -37 26.5 -63.5t63.5 -26.5h716q37 0 63.5 26.5t26.5 63.5v303v21v88h-52zM537 179h71q9 -41 42 -41q20 0 31 12t11 34q0 40 -42 41h-22v44h10q25 1 34.5 11t9.5 31q0 14 -9.5 22.5t-24.5 8.5q-13 0 -21 -4t-10.5 -8.5t-6.5 -15.5
l-66 -1q23 77 106 78q101 -3 105 -82q0 -38 -45 -58q57 -19 57 -69q-4 -83 -117 -87q-47 0 -76 22t-37 62zM489 161v-62h-227v40q39 61 95 97q57 38 57 70q0 27 -34 27q-41 -1 -41 -36h-72q3 48 36.5 71t82.5 23q99 -4 106 -84q4 -57 -73 -105q-24 -14 -31.5 -19.5
t-21.5 -21.5h123z" />
    <glyph glyph-name="uniE639" unicode="&#xe639;" 
d="M803 -128h-659q-46 0 -78 32t-32 78v733q0 46 32 78t78 32h513q22 0 31 -18.5t0 -36.5t-31 -18h-513q-15 0 -26 -11t-11 -26v-733q0 -15 11 -26t26 -11h659q15 0 26 11t11 26v586q0 23 18.5 32t36.5 0t18 -32v-586q0 -46 -32 -78t-78 -32zM562 469q-23 26 0 52l364 365
q11 10 26 10t27 -10q19 -21 5 -45l-5 -8l-364 -364q-12 -11 -27 -11t-26 11zM437 458h-220q-22 0 -31 18.5t0 37t31 18.5h220q22 0 31.5 -18.5t0 -37t-31.5 -18.5zM657 239h-440q-22 0 -31 18t0 36.5t31 18.5h440q22 0 31 -18.5t0 -36.5t-31 -18z" />
    <glyph glyph-name="uniE63A" unicode="&#xe63a;" 
d="M877 -63h-711q-25 0 -43 17.5t-18 43.5v687q0 26 18 44t43 18l70 -2v-29q0 -39 27 -69.5t64 -30.5t64.5 32.5t27.5 71.5v27h221v-27q0 -39 27.5 -71.5t64.5 -32.5t64 32.5t27 71.5v27h54q26 0 43.5 -16t17.5 -41v-692q0 -26 -18 -43.5t-43 -17.5zM864 550h-686v-540h686
v540zM350 379h-98v98h98v-98zM350 232h-98v97h98v-97zM350 85h-98v97h98v-97zM497 379h-98v98h98v-98zM497 232h-98v97h98v-97zM497 85h-98v97h98v-97zM645 379h-99v98h99v-98zM645 232h-99v97h99v-97zM645 85h-99v97h99v-97zM792 379h-99v98h99v-98zM792 232h-99v97h99v-97
zM792 85h-99v97h99v-97zM731 659q-25 0 -42.5 17.5t-17.5 42.5v51q0 25 17.5 42.5t42.5 17.5t42.5 -17.5t17.5 -42.5v-51q0 -25 -17.5 -42.5t-42.5 -17.5zM326 659q-25 0 -42.5 17.5t-17.5 42.5v51q0 25 17.5 42.5t42.5 17.5t43 -17.5t18 -42.5v-51q0 -25 -18 -42.5
t-43 -17.5z" />
    <glyph glyph-name="uniE63B" unicode="&#xe63b;" 
d="M64 543v242q0 2 0.5 5t3 11t7 14.5t14.5 12t24 5.5h242v-54l-212 1q-23 -4 -25 -23q0 -21 -1 -214h-53zM673 833h242h5q3 0 11 -2.5t14.5 -7t11.5 -14.5t6 -24v-243h-54l1 212q-4 24 -23 26h-214v53zM64 225v-243q0 -2 0.5 -5t3 -11t7 -14t14.5 -11.5t24 -5.5h242v53
h-212q-23 3 -25 23q0 9 -0.5 62.5t-0.5 103t0 48.5h-53v0zM673 -66h242q2 0 5 0.5t11 3t14.5 7t11.5 14.5t6 24v242h-54l1 -212q-4 -23 -23 -25l-214 -1v-53zM64 412h899v-55h-899v55zM64 412zM192 702h43v-636h-43v636zM291 702h44v-636h-44v636zM365 702h43v-636h-43v636z
M546 702h43v-636h-43v636zM790 702h43v-636h-43v636zM438 702h76v-636h-76v636zM619 702h124v-636h-124v636z" />
    <glyph glyph-name="uniE63C" unicode="&#xe63c;" 
d="M1021 510q-13 42 -73 63h-1l-216 59q-30 46 -140 214h-1v1q-35 49 -79 49q-45 0 -78 -51l-120 -196q-36 -10 -161 -49l-79 -24q-55 -17 -69 -57t20 -97q1 -2 2 -3q62 -79 141 -179q-3 -136 -7 -258q-5 -61 18 -89q18 -21 50 -21q23 0 61 14l207 84q100 -37 236 -88
q24 -7 43 -7q13 0 25 3.5t25.5 13.5t22 32t10.5 54v3q-4 65 -13 230v1l153 206q35 51 23 92zM959 449l-158 -213q-6 -8 -5 -17v-11q10 -165 13 -229q-1 -18 -4.5 -30t-9.5 -16.5t-10 -5.5t-10 -1q-12 0 -28 5q-160 60 -243 91q-9 3 -17 0l-215 -88q-29 -11 -44 -11
q-10 0 -14 5q-9 11 -6 50v2q4 137 8 268q0 10 -6 18q-67 85 -146 185q-20 34 -14 50q5 16 37 26l78 24q113 34 170 52q9 2 14 10l124 203q19 29 38 29q20 0 40 -29q103 -157 146 -221q5 -8 13 -11l224 -60q36 -13 41 -30q5 -16 -16 -45zM959 449z" />
    <glyph glyph-name="uniE63D" unicode="&#xe63d;" 
d="M899 -62q-11 0 -18.5 7.5t-7.5 18.5v285q0 11 7.5 18.5t18.5 7.5t18.5 -7.5t7.5 -18.5v-285q0 -11 -7.5 -18.5t-18.5 -7.5zM899 327h-777q-11 0 -18.5 7.5t-7.5 18t7.5 18.5t18.5 8h777q11 0 18.5 -8t7.5 -18.5t-7.5 -18t-18.5 -7.5zM873 430h-233q-21 0 -36.5 15.5
t-15.5 36.5v233q0 22 15 37t37 15h233q22 0 37 -15t15 -37v-233q0 -21 -15 -36.5t-37 -15.5zM873 715h-233v-233h233v233zM510 430q-10 0 -17.5 8t-7.5 18v285q0 11 7.5 18.5t18 7.5t18 -7.5t7.5 -18.5v-285q0 -10 -7.5 -18t-18.5 -8zM381 430h-233q-22 0 -37 15.5t-15 36.5
v233q0 22 15 37t37 15h233q21 0 36.5 -15t15.5 -37v-233q0 -21 -15.5 -36.5t-36.5 -15.5zM381 715h-233v-233h233v233zM148 275h233q21 0 36.5 -15t15.5 -37v-233q0 -22 -15.5 -37t-36.5 -15h-233q-22 0 -37 15t-15 37v233q0 22 15 37t37 15zM148 -10h233v233h-233v-233z
M510 275q11 0 18.5 -7.5t7.5 -18.5v-285q0 -11 -7.5 -18.5t-18 -7.5t-18 7.5t-7.5 18.5v285q0 11 7.5 18.5t17.5 7.5zM640 275q11 0 18.5 -7.5t7.5 -18.5v-285q0 -11 -7.5 -18.5t-18.5 -7.5t-18.5 7.5t-7.5 18.5v285q0 11 7.5 18.5t18.5 7.5zM769 275q11 0 18.5 -7.5
t7.5 -18.5v-78q0 -10 -7.5 -18t-18 -8t-18 8t-7.5 18v78q0 11 7.5 18.5t17.5 7.5zM769 94q11 0 18.5 -8t7.5 -18v-104q0 -11 -7.5 -18.5t-18 -7.5t-18 7.5t-7.5 18.5v104q0 10 7.5 18t17.5 8zM769 94z" />
    <glyph glyph-name="uniE63E" unicode="&#xe63e;" 
d="M917 641l3 3q2 2 6 8.5t5.5 13t-2.5 17t-13 19.5l-105 109q-1 2 -3.5 4.5t-9.5 8t-14.5 7.5t-18.5 -1t-21 -13l-70 -74l175 -171zM810 526l-185 175l-421 -423l190 -163zM181 5l-71 65l-18 -78v-56h839v56h-837zM339 69l-187 157l-23 -105l108 -92z" />
    <glyph glyph-name="uniE63F" unicode="&#xe63f;" 
d="M96 526q13 0 21.5 9t8.5 22v148q0 26 19 44t45 18h148q13 0 22 9.5t9 22.5t-9 22t-22 9h-148q-52 0 -88.5 -36.5t-36.5 -88.5v-148q0 -13 9 -22t22 -9zM834 830h-148q-13 0 -22 -9t-9 -22t9 -22.5t22 -9.5h148q26 0 43.5 -18t17.5 -44v-148q0 -13 9 -22t22 -9t22 9t9 22
v148q0 52 -36 88.5t-87 36.5zM926 240q-13 0 -22 -9t-9 -22v-148q0 -26 -17.5 -43.5t-43.5 -17.5h-148q-13 0 -22 -9t-9 -22t9 -22t22 -9h148q52 0 87.5 35.5t35.5 87.5v148q0 13 -9 22t-22 9zM338 0h-148q-26 0 -45 17.5t-19 43.5v148q0 13 -8.5 22t-21.5 9t-22 -9t-9 -22
v-148q0 -52 36.5 -87.5t88.5 -35.5h148q13 0 22 9t9 22t-9 22t-22 9zM927 416h-830q-13 0 -22 -8.5t-9 -21.5t9 -22t22 -9h830q13 0 22 9t9 22t-9 21.5t-22 8.5z" />
    <glyph glyph-name="uniE640" unicode="&#xe640;" 
d="M62 717v-733q5 -6 8 -13.5t7 -13.5q6 -5 14 -8t14 -8h667q6 5 12.5 8.5t11 7.5t10.5 12q5 8 7.5 36t2.5 52t-0.5 59t-0.5 39v256q-7 -3 -12 -7.5t-10.5 -11t-8.5 -9.5q-15 -14 -19.5 -18t-8 -16t-2.5 -19.5t2 -36.5t1 -58v-235l-18 -3q-23 0 -189 -1t-293 -1t-140 2
q-2 15 -2 153t1 316t1 199v34q0 4 1 4l2 2h373q23 0 61 46q3 3 6 4q1 0 2 3q0 1 1 3h-407q-50 0 -61 -4.5t-27 -29.5q-4 -6 -6 -10zM363 247q2 14 7.5 32t12.5 41t10 32q1 6 2.5 14t2 10.5t3 7t5.5 7.5l8 8l301 306q8 8 25.5 26t26.5 27t24 19.5t26 11.5t26 -3.5t29 -18.5
q13 -13 19.5 -24t5.5 -23t-3.5 -21t-13.5 -22.5t-18.5 -21.5t-24.5 -24.5t-25 -24.5l-270 -269q-9 -8 -19 -19.5t-13 -14.5t-10.5 -8t-15 -7.5t-21.5 -6.5q-66 -27 -100 -34zM954 702v34q-3 6 -7.5 20t-7.5 20q-11 18 -25.5 31.5t-24 19t-23.5 12t-18 8.5h-39
q-5 -2 -23 -9.5t-29 -15.5q-19 -14 -334 -334q-2 -2 -22 -21t-34 -34t-17 -22q-2 -9 -22 -78.5t-29 -94.5q-1 -1 -3 -8t-3 -10t-2.5 -9t-1.5 -9.5t0.5 -8t3 -8t6.5 -6.5q16 -16 109 25q86 19 112 37l261 257q6 6 18.5 20t18.5 20q17 15 59 56.5t53 54.5q7 13 14 30t10 23z
M757 0h-637v705l-2 -2q-1 0 -1 -4v-34q0 -21 -1 -199t-1 -316t2 -153q13 -2 140 -2t293 1t189 1l18 3v0zM62 -59h43q-6 5 -14 8t-14 8q-4 6 -7 13.5t-8 13.5v-43z" />
    <glyph glyph-name="uniE641" unicode="&#xe641;" 
d="M933 819.5q10 -10.5 12 -23t-6 -20.5l-429 -428q-8 -8 -20.5 -6.5t-22.5 11.5t-12 23t6 21l429 428q7 8 20 6.5t23 -12zM834 470v-464q0 -7 -5 -12.5t-12 -5.5h-684q-7 0 -12 5.5t-5 12.5v690q0 7 5 12.5t12 5.5h461v51h-461q-28 0 -48 -20t-20 -49v-690q0 -28 20 -48.5
t48 -20.5h684q28 0 48 20.5t20 48.5v464h-51z" />
    <glyph glyph-name="uniE642" unicode="&#xe642;" 
d="M424 781h-220q-34 0 -58.5 -24t-24.5 -58v-208q0 -3 1 -7q5 -29 28 -49t54 -20h220q29 2 50.5 21.5t26.5 47.5q1 4 1 7v208q0 33 -23 56.5t-55 25.5zM458 503q0 -19 -13 -31.5t-31 -12.5h-206q-18 0 -30.5 12.5t-12.5 31.5v191q0 18 12.5 31t30.5 13h206q18 0 31 -13
t13 -31v-191zM902 701q0 32 -22 55t-54 25h-192q-33 0 -57 -23.5t-24 -56.5v-203q0 -3 1 -6q5 -29 27.5 -48.5t52.5 -19.5h192q28 2 49 21t26 47q1 3 1 6v203zM859 509q0 -17 -12.5 -29.5t-29.5 -12.5h-178q-18 0 -30.5 12.5t-12.5 29.5v187q0 18 12.5 30.5t30.5 12.5h178
q17 0 29.5 -12.5t12.5 -30.5v-187zM416 356h-214q-34 0 -57.5 -23.5t-23.5 -56.5v-202q0 -3 1 -7q5 -29 27.5 -48t52.5 -19h214q28 2 49 21t25 46q2 4 2 7v202q-1 32 -23 55t-53 25zM449 85q0 -18 -12.5 -30.5t-30.5 -12.5h-193h-7q-18 0 -30.5 12.5t-12.5 30.5v186
q0 18 12.5 30.5t30.5 12.5h200q18 0 30.5 -12.5t12.5 -30.5v-186zM721 143q-11 0 -19 -7.5t-8 -18.5v-51q0 -11 8 -18.5t19 -7.5t19 7.5t8 18.5v51q0 11 -8 18.5t-19 7.5zM835 169q-11 0 -19 -7.5t-8 -18.5v-77q0 -11 8 -18.5t19 -7.5t18.5 7.5t7.5 18.5v77q0 11 -7.5 18.5
t-18.5 7.5zM835 323q-11 0 -19 -7.5t-8 -18.5v-51q0 -11 8 -18.5t19 -7.5t18.5 7.5t7.5 18.5v51q0 11 -7.5 18.5t-18.5 7.5zM721 323q-11 0 -19 -7.5t-8 -18.5v-103q0 -10 8 -17.5t19 -7.5t19 7.5t8 17.5v103q0 11 -8 18.5t-19 7.5zM606 194q-11 0 -19 -7.5t-8 -17.5v-103
q0 -11 8 -18.5t19 -7.5t19 7.5t8 18.5v103q0 10 -8 17.5t-19 7.5zM606 323q-11 0 -19 -7.5t-8 -18.5v-26q0 -10 8 -17.5t19 -7.5t19 7.5t8 17.5v26q0 11 -8 18.5t-19 7.5z" />
    <glyph glyph-name="uniE643" unicode="&#xe643;" 
d="M910 472l-265 38l-119 241l-119 -241l-265 -38l192 -188l-45 -264l237 124l237 -124l-45 264zM526 203l-168 -89l31 188l-136 133l189 27l84 171l84 -171l188 -27l-136 -133l32 -188z" />
    <glyph glyph-name="uniE644" unicode="&#xe644;" 
d="M773 -39q-7 0 -12 4l-250 182l-250 -182q-13 -9 -25.5 0t-7.5 24l95 294l-250 181q-12 10 -7.5 24.5t20.5 14.5h309l95 294q5 15 21 15t20 -15l96 -294h309q15 0 20 -14.5t-8 -24.5l-250 -181l96 -294q5 -15 -8 -24q-6 -4 -13 -4zM153 460l208 -151q13 -10 8 -25
l-80 -245l209 152q13 9 26 0l208 -152l-79 245q-5 15 7 25l209 151h-258q-16 0 -20 15l-80 246l-80 -246q-5 -15 -20 -15h-258z" />
    <glyph glyph-name="uniE645" unicode="&#xe645;" horiz-adv-x="1080" 
d="M1078 508q-5 12 -15.5 20t-23.5 8h-352l-109 332q-4 13 -14.5 20.5t-23.5 7.5t-24 -7.5t-15 -20.5l-109 -332h-352q-13 0 -23.5 -8t-14.5 -20.5t0 -24.5t15 -20l285 -206l-109 -332q-9 -28 14 -45q24 -17 48 0l285 205l285 -205q10 -8 23 -8t24 8q24 17 15 45l-109 332
l285 206q24 17 15 45z" />
    <glyph glyph-name="uniE646" unicode="&#xe646;" 
d="M52 864v-314h313v314h-313zM328 587h-240v240h240v-240zM52 236v-314h313v314h-313zM328 -41h-240v240h240v-240zM658 864v-314h313v314h-313zM934 587h-240v240h240v-240zM494 864h36v-314h-36v314zM52 421h920v-37h-920v37zM494 162h477v-37h-477v37zM494 -41h477v-37
h-477v37z" />
    <glyph glyph-name="uniE647" unicode="&#xe647;" horiz-adv-x="1057" 
d="M990 457zM529 384zM37 384q0 100 39 191t105 157t157 105t191 39t191 -39t157 -105t105 -157t39 -191t-39 -191t-105 -157t-157 -105t-191 -39t-191 39t-157 105t-105 157t-39 191zM529 896q-104 0 -199 -40.5t-163.5 -109t-109 -163.5t-40.5 -199t40.5 -199t109 -163.5
t163.5 -109t199 -40.5t199 40.5t163.5 109t109 163.5t40.5 199t-40.5 199t-109 163.5t-163.5 109t-199 40.5zM529 -108q-100 0 -191 39t-157 105t-105 157t-39 191t39 191t105 157t157 105t191 39t191 -39t157 -105t105 -157t39 -191t-39 -191t-105 -157t-157 -105t-191 -39
zM274 130l167 47l-120 119zM338 313l119 -119l263 261l-119 119zM776 555l-75 74q-9 9 -22.5 9t-23.5 -10l-36 -36l119 -119l36 36q10 10 10.5 23.5t-8.5 22.5z" />
    <glyph glyph-name="uniE648" unicode="&#xe648;" 
d="M933 896h-843h843zM519 276l216 216l-188 190l-217 -217l-81 -81l-74 -74q-33 -33 -55 -56l-28 -28q-14 -14 -21.5 -26t-13.5 -26q-5 -9 -13 -33t-17 -53t-16.5 -55.5t-9.5 -40.5q-4 -26 5 -37t37 -8q13 2 39.5 9t56 16.5t57 19.5t41.5 17q14 6 27 16t23 19q4 3 25 24.5
t53.5 54t72.5 71.5zM826 582q7 7 16.5 16t21.5 21q11 12 16 25.5t5 26.5t-2.5 25t-6.5 21q-14 30 -39.5 58t-46.5 39q-10 5 -24 9t-28.5 4.5t-29.5 -4t-29 -15.5q-11 -10 -27.5 -25.5t-29.5 -26.5l189 -188q7 6 15 14zM497 66l-96 -119h623v119h-527z" />
    <glyph glyph-name="uniE649" unicode="&#xe649;" 
d="M542 25l344 351q11 11 11 26.5t-11 26.5t-26.5 11t-26.5 -11l-320 -326l-321 326q-10 11 -25.5 11t-26.5 -11t-11 -26.5t11 -26.5l344 -351q12 -12 29 -11q17 -1 29 11v0zM513 289q17 -1 29 11l344 350q11 11 11 27t-11 27t-26.5 11t-26.5 -11l-320 -326l-321 326
q-10 11 -25.5 11t-26.5 -11t-11 -27t11 -27l344 -350q12 -12 29 -11zM513 289z" />
    <glyph glyph-name="uniE64A" unicode="&#xe64a;" 
d="M153 354l351 -344q11 -11 26.5 -11t26.5 11t11 26.5t-11 26.5l-326 320l326 321q11 10 11 25.5t-11 26.5t-26.5 11t-26.5 -11l-351 -344q-12 -12 -11 -29q-1 -17 11 -29zM417 383q-1 -17 11 -29l350 -344q11 -11 27 -11t27 11t11 26.5t-11 26.5l-326 320l326 321
q11 10 11 25.5t-11 26.5t-27 11t-27 -11l-350 -344q-12 -12 -11 -29zM417 383z" />
    <glyph glyph-name="uniE64B" unicode="&#xe64b;" 
d="M482 743l-344 -351q-11 -11 -11 -26.5t11 -26.5t26.5 -11t26.5 11l320 326l321 -326q10 -11 25.5 -11t26.5 11t11 26.5t-11 26.5l-344 351q-12 12 -29 11q-17 1 -29 -11zM511 479q-17 1 -29 -11l-344 -350q-11 -11 -11 -27t11 -27t26.5 -11t26.5 11l320 326l321 -326
q10 -11 25.5 -11t26.5 11t11 27t-11 27l-344 350q-12 12 -29 11zM511 479z" />
    <glyph glyph-name="uniE64C" unicode="&#xe64c;" 
d="M504 662l-323 -317q-9 -9 0 -18t18 0l314 308l312 -312q9 -9 18 0q4 3 4 8.5t-4 9.5l-321 321q-9 9 -18 0v0zM504 662zM507 306l-192 -188q-5 -6 0 -11q6 -5 11 0l186 183l186 -186q5 -5 11 0q2 3 2 6t-2 5l-191 191q-6 5 -11 0v0zM507 306z" />
    <glyph glyph-name="uniE64D" unicode="&#xe64d;" 
d="M659 719q12 -48 7 -85q0 -5 -2 -38.5t-2 -43.5q0 -5 1 -7.5t4.5 -7t6.5 -7.5q9 -23 0 -67q0 -17 -12 -33q-2 -3 -11.5 -7.5t-13.5 -11.5q-5 -10 -6 -30t-2 -25q-2 -6 -13 -20t-13 -29h26q20 -50 33 -59q15 -3 37 -11q45 -19 134 -56q9 -4 36 -13.5t41 -20t19 -29.5
q0 -11 2 -60t2 -69h-841q0 20 1.5 69t1.5 60q5 19 19 29.5t41.5 20t36.5 13.5q59 25 133 56q22 7 37 11q13 9 34 59l18 4q-2 10 -11 20t-11 17q-2 12 -4 35.5t-3 35.5q-1 -2 -4.5 -2t-8 2t-6.5 3q-8 6 -13 19t-7 24.5t-3.5 28.5t-2.5 21q0 4 6.5 17t4.5 24q-18 82 2.5 139
t64.5 72q21 9 35.5 13.5t41 9.5t52 0t49.5 -19l15 -15l29 -4q5 -3 9.5 -11.5t7.5 -14.5z" />
    <glyph glyph-name="uniE64E" unicode="&#xe64e;" 
d="M400 608q20 0 34 14l30 30v-300q0 -20 14 -34t34 -14t34 14t14 34v300l30 -30q14 -14 34 -14t34 14t14 34t-14 34l-112 112q-14 14 -34 14t-34 -14l-112 -112q-14 -14 -14 -34t14 -34t34 -14zM1021 305l-128 335q-5 14 -17.5 23t-27.5 9h-130q2 -10 2 -16q0 -51 -43 -80
h138l91 -240h-154q-20 0 -34 -14t-14 -34v-48h-384v48q0 20 -14 34t-34 14h-154l91 240h138q-43 29 -43 80q0 6 2 16h-130q-15 0 -27.5 -9t-17.5 -23l-128 -335q-3 -8 -3 -17v-304q0 -20 14 -34t34 -14h928q20 0 34 14t14 34v304q0 9 -3 17z" />
    <glyph glyph-name="uniE64F" unicode="&#xe64f;" 
d="M352 464q0 -20 14 -34l112 -112q14 -14 34 -14t34 14l112 112q14 14 14 34t-14 34t-34 14t-34 -14l-30 -30v300q0 20 -14 34t-34 14t-34 -14t-14 -34v-300l-30 30q-14 14 -34 14t-34 -14t-14 -34zM1021 305l-128 335q-5 14 -17.5 23t-27.5 9h-240v-96h207l91 -240h-154
q-20 0 -34 -14t-14 -34v-48h-384v48q0 20 -14 34t-34 14h-154l91 240h207v96h-240q-15 0 -27.5 -9t-17.5 -23l-128 -335q-3 -8 -3 -17v-304q0 -20 14 -34t34 -14h928q20 0 34 14t14 34v304q0 9 -3 17z" />
    <glyph glyph-name="uniE650" unicode="&#xe650;" 
d="M890 750h-43v13q0 29 -20.5 49.5t-49.5 20.5h-1q-29 0 -49.5 -20.5t-20.5 -49.5v-13h-387v13q0 29 -20.5 49.5t-49.5 20.5h-1q-29 0 -49.5 -20.5t-20.5 -49.5v-13h-43q-29 0 -49.5 -20.5t-20.5 -49.5v-671q0 -29 20.5 -50t49.5 -21h755q29 0 49.5 21t20.5 50v671
q0 29 -20.5 49.5t-49.5 20.5zM734 763q0 18 12 30t30 12h1q17 0 29.5 -12t12.5 -30v-125q0 -17 -12.5 -29.5t-29.5 -12.5h-1q-18 0 -30 12.5t-12 29.5v125zM206 763q0 18 12.5 30t29.5 12h1q18 0 30 -12t12 -30v-125q0 -17 -12 -29.5t-30 -12.5h-1q-17 0 -29.5 12.5
t-12.5 29.5v125zM890 -5h-755q-6 0 -10 4t-4 10v493h783v-493q0 -6 -4 -10t-10 -4zM224 402h129v-64h-129v64zM449 402h128v-64h-128v64zM673 402h126v-64h-126v64zM224 273h129v-63h-129v63zM449 273h128v-63h-128v63zM673 273h126v-63h-126v63zM224 147h129v-66h-129v66z
M449 147h128v-66h-128v66zM673 147h126v-66h-126v66z" />
    <glyph glyph-name="uniE651" unicode="&#xe651;" 
d="M402 643q17 0 27 13l25 28v-280q0 -18 11 -31.5t27 -13.5t27 13.5t11 31.5v280l24 -28q12 -13 28 -13t27 13.5t11 31.5q0 19 -12 32l-89 104q-11 14 -27 14t-28 -14l-89 -104q-11 -13 -11 -32t11.5 -32t26.5 -13zM899 361l-102 313q-4 13 -14 21t-22 8h-104q1 -5 1 -15
q0 -48 -34 -75h110l73 -223h-123q-16 0 -27 -13t-11 -32v-45h-307v45q0 19 -11.5 32t-27.5 13h-124l73 223h110q-34 28 -34 75q0 3 0.5 8t0.5 7h-103q-12 0 -22 -8t-14 -21l-102 -313q-2 -5 -2 -16v-283q0 -18 11 -31.5t27 -13.5h742q16 0 27 13.5t11 31.5v283q1 8 -2 16z
M899 361z" />
    <glyph glyph-name="uniE652" unicode="&#xe652;" 
d="M763 113h-502q-24 0 -40 16.5t-16 39.5v503q0 23 16 39.5t40 16.5h279h37h19q8 0 13 -5.5t5 -13.5t-5 -13.5t-13 -5.5h-19h-37h-261q-15 0 -26 -10.5t-11 -26.5v-465q0 -16 11 -27t26 -11h466q15 0 26 11t11 27v298v33v4q0 8 5.5 13t13 5t13 -5t5.5 -13v-37v-317
q0 -23 -16 -39.5t-40 -16.5zM459 360q-5 -6 -13 -6t-13 5.5t-5 13.5t5 13l335 337q5 5 13 5t13.5 -5.5t5.5 -13t-6 -13.5zM459 360z" />
    <glyph glyph-name="uniE653" unicode="&#xe653;" 
d="M120 -64h643q23 0 39.5 16.5t16.5 39.5v410l-56 -54v-356h-643v699h393l56 55l-1 1h-448q-23 0 -39.5 -16t-16.5 -40v-699q0 -23 16.5 -39.5t39.5 -16.5zM916 795q-38 37 -83 37q-50 0 -90 -40l-383 -383q-5 -4 -6 -10q-2 -8 -61 -204q-5 -13 6 -24q6 -6 16 -6q4 0 7 1
q117 39 200 64q6 1 10 5q376 372 386 382q43 44 42 91q-1 46 -44 87zM878 656q-24 -25 -363 -358l-17 -17q-32 -10 -134 -43q31 103 41 138q363 362 378 377q23 23 50 23q22 0 44 -21q27 -26 27 -48q0 -24 -26 -51z" />
    <glyph glyph-name="uniE654" unicode="&#xe654;" 
d="M617 540q41 18 85 24l-230 195q-12 10 -28.5 10t-29.5 -10l-366 -311q-15 -12 -16.5 -30.5t10.5 -33t30.5 -16t33.5 10.5l6 5v-357q0 -12 8 -20t20 -8h279h11h167q-38 21 -62 42q-40 37 -64 86q-28 60 -28 143q0 52 17 98t38.5 74t50 52t43 32.5t25.5 13.5zM362 242h-88
v87h88v-87zM242 656q0 14 -9.5 24t-23.5 10h-65q-14 0 -24 -10t-10 -24v-119l132 110v9v0zM741 519q-104 0 -177.5 -73.5t-73.5 -177.5t73.5 -177.5t177.5 -73.5t177.5 73.5t73.5 177.5t-73.5 177.5t-177.5 73.5zM840 268v-34h-78v-47h78v-34h-78v-68h-42v68h-80v34h80v47
h-80v34h67l-82 154h48l58 -120q5 -10 11 -25h1q4 12 11 26l58 119h46l-84 -154h66z" />
    <glyph glyph-name="uniE655" unicode="&#xe655;" horiz-adv-x="1026" 
d="M946.5 441q-14.5 0 -25 -10t-10.5 -24v-404q0 -25 -18 -43.5t-44 -18.5h-718q-25 0 -43.5 18t-18.5 44v718q0 25 18 43.5t44 18.5h434q15 0 25 10.5t10 25t-10 24.5t-25 10h-434q-54 0 -92.5 -38.5t-38.5 -92.5v-718q0 -54 38.5 -92.5t92.5 -38.5h718q54 0 92.5 38.5
t38.5 92.5v404q1 13 -9 23t-24.5 10zM1009.5 880.5q-15.5 15.5 -36.5 15.5t-36 -15l-482 -483l-27 -82q-3 -8 3.5 -14t14.5 -4l82 27l483 482q14 15 14 36.5t-15.5 37z" />
    <glyph glyph-name="uniE656" unicode="&#xe656;" 
d="M1022 717q0 20 -14.5 34.5t-34.5 14.5h-588v-619h327q12 42 47.5 69.5t80.5 27.5t80.5 -27.5t47.5 -69.5h54v570zM829 447v-51h-96v-96h-64v96h-95v51h95v44h-95v52h85l-85 127h63l64 -96q63 94 64 96h63l-84 -127h85v-52h-96v-44h96zM840 172q-35 0 -60 -25t-25 -60
t25 -60t60 -25t60 25t25 60t-25 60t-60 25zM160 172q-35 0 -60 -25t-25 -60t24.5 -60t60.5 -25q35 0 59.5 25t24.5 60t-24.5 60t-59.5 25zM245 657q-101 0 -172 -71t-71 -172v-267h29q12 42 47.5 69.5t81 27.5t81 -27.5t47.5 -69.5h33v510h-76zM75 366v48q0 61 43 103.5
t103 42.5h24v-194h-170zM75 366z" />
    <glyph glyph-name="uniE657" unicode="&#xe657;" 
d="M910 -51h-833v870h605l76 76h-681q-24 0 -50 -12t-26 -30v-931q0 -20 14 -34.5t34 -14.5h881q23 0 39 9.5t16 28.5v681l-75 -75v-568zM1012 868q-11 11 -26.5 11t-27.5 -11l-669 -669q-11 -11 -11 -26.5t11 -27t27 -11.5t27 12l669 669q11 11 11 26.5t-11 26.5z" />
    <glyph glyph-name="uniE658" unicode="&#xe658;" 
d="M396 661h595q14 0 23.5 -10t9.5 -25v-453q0 -15 -9.5 -25t-23.5 -10h-595q-14 0 -24 10t-10 25v453q0 15 10 25t24 10zM261 522q3 0 7 1t14 0t17.5 -5t14 -16.5t6.5 -32.5v-256q-1 0 0 -7.5t-2 -18.5t-8 -22t-17 -18.5t-30 -7.5h-101q-4 -1 -10.5 -2t-23.5 -7t-29.5 -16
t-23 -30t-10.5 -47q0 -1 -0.5 -4t-2.5 -9.5t-5.5 -11.5t-10.5 -9.5t-16 -4.5q-4 0 -9 1t-13 9t-8 23v218q7 35 28 65l70 138q1 3 2 7.5t6.5 16.5t12.5 21.5t19 17t26 7.5h97zM196 102q42 0 71 -29.5t29 -73.5t-29 -75t-71 -31q-41 0 -69.5 31t-28.5 75q1 44 29 73.5t69 29.5
zM329 103h397q31 -43 31 -71h-395l-8 8q-6 6 -15.5 24t-9.5 39zM890.5 103q40.5 0 69.5 -30.5t29 -73.5t-29 -73t-69.5 -30t-69 30t-29 73t28.5 73.5t69.5 30.5z" />
    <glyph glyph-name="uniE659" unicode="&#xe659;" horiz-adv-x="1278" 
d="M778 591q54 24 114 32l-306 259q-17 14 -39 14t-39 -14l-487 -413q-19 -16 -21 -40.5t14 -43.5t41 -21t43 14l8 7v-476q0 -15 11 -26t27 -11h371h14h223q-51 28 -83 56q-53 49 -86 114q-36 80 -36 191q0 68 22.5 129.5t51.5 99t66.5 69t56.5 42.5t34 18zM439 195h-116
v115h116v-115zM439 195zM280 746q0 18 -13 31.5t-32 13.5h-85q-19 0 -32 -13.5t-13 -31.5v-159l175 146v13v0zM280 746zM1022 366q-23 0 -39.5 -16.5t-16.5 -40t16 -40.5q17 -16 41 -16t40 16q16 17 16 40.5t-16.5 40t-40.5 16.5zM1022 366zM943 564q-90 0 -167 -45
t-122 -122t-45 -167.5t45 -167t122 -121.5t167.5 -45t167.5 45t121.5 121.5t44.5 167t-44.5 167.5t-121.5 122t-168 45zM1103 229q-33 -33 -81 -33q-30 0 -57 16l-73 -73l33 -33q9 -9 9 -20.5t-8.5 -20t-20 -8.5t-20.5 9l-33 33l-53 -54q-9 -8 -20.5 -8t-20 8.5t-8.5 20
t9 20.5l166 166q-16 27 -16 57q0 47 33 80.5t80.5 33.5t80.5 -33.5t33 -80.5t-33 -80zM1103 229z" />
    <glyph glyph-name="uniE65A" unicode="&#xe65a;" 
d="M124 313h58v-300q0 -40 23 -60t54 -20h5h161v319q0 7 5 10h165q5 -3 5 -11v-291v-27h159q44 0 70 39q11 17 16 35v2l1 306h57q31 0 46 25q10 18 10 47v11l-7 7q-413 415 -418 420q-10 9 -27 9q-16 0 -25 -9l-417 -425v-11q0 -30 18.5 -53t40.5 -23zM904 368h-1h-109
l-1 -351q-11 -31 -34 -31h-106v267q-1 18 -12 35q-17 26 -45 26h-166q-23 0 -40.5 -18.5t-17.5 -43.5v-266h-109l-4 -1q-24 0 -24 28v353h-107q-6 5 -9 14l389 396l398 -399q-1 -6 -2 -9z" />
    <glyph glyph-name="uniE65B" unicode="&#xe65b;" 
d="M661 498q-25 24 -44 42l-34 31q-14 13 -16 15q-25 24 -56.5 22.5t-53.5 -22.5q-3 -3 -17 -16t-35 -32q-25 -23 -45 -41l-50 -46q-60 -55 -133 -121v-346q0 -21 15.5 -33t40.5 -12h176v6v152q0 36 25.5 61.5t61.5 25.5h32q36 0 61.5 -25.5t25.5 -61.5v-152v-6h176
q25 1 39.5 16.5t14.5 34.5v338q-74 68 -134 124zM959 417.5q-1 21.5 -19 39.5l-23 22q-17 17 -42 41t-54 53q-30 29 -62 59q-31 31 -61 60q-32 31 -55 53q-25 24 -41 40q-17 16 -23 21q-27 26 -66.5 26t-73.5 -33q-4 -5 -31 -30.5t-65 -60.5q-39 -37 -82 -77
q-40 -37 -83 -77q-38 -35 -65.5 -61t-33.5 -31q-14 -14 -15 -36.5t17 -38.5q16 -15 38.5 -14t35.5 12q4 3 26 23.5t52.5 49t65.5 61.5q37 33 68 63q32 30 57 53q24 23 33 31q27 24 54.5 25t56.5 -25q6 -6 29 -28t55 -53q34 -31 69 -64q38 -36 67 -64q35 -33 55 -52
q23 -21 27 -25q13 -11 35.5 -12t39.5 14q15 14 14 35.5z" />
    <glyph glyph-name="uniE65C" unicode="&#xe65c;" 
d="M951 -58h-874q18 124 97.5 219.5t197.5 136.5q-65 37 -103 102.5t-38 144.5q0 118 83 201t201.5 83t201.5 -83t83 -201q0 -77 -38.5 -142t-102.5 -105q115 -41 194.5 -136.5t97.5 -219.5z" />
    <glyph glyph-name="uniE65D" unicode="&#xe65d;" 
d="M983 156q-20 15 -57 22.5t-70.5 20t-55.5 41.5q-2 2 -3.5 7t3.5 23.5t24 41.5q29 35 37 93t-3 102q-7 46 -45 75t-86 29q-47 0 -85 -29t-46 -75q-10 -44 -2 -102t37 -93q26 -32 27 -56q34 -11 57 -27q28 -20 45 -50t21.5 -57t6.5 -52.5t-1 -34.5h235l1 38q-5 58 -40 83z
M684 185q-21 15 -61 26q-9 2 -33 7.5t-37 9.5t-32 11.5t-34.5 20t-27.5 29.5q-1 1 -2.5 3t-2.5 10t1 17t10 25t22 33q25 30 37.5 73.5t12 85t-5.5 83.5q-10 56 -57 92.5t-105.5 36.5t-105.5 -36.5t-57 -92.5q-5 -42 -5.5 -83.5t12 -85t36.5 -73.5q15 -17 23 -33t10 -25.5
t1 -16.5t-3 -10l-2 -3q-13 -17 -27.5 -29t-34 -20t-32 -12t-37 -9t-32.5 -8q-40 -10 -62 -26q-18 -13 -30 -33t-16 -40t-4.5 -37.5t0 -29t1.5 -10.5h7h295h62h64h295h6l1 11t0 28.5t-4.5 37.5t-15.5 40t-30 33z" />
    <glyph glyph-name="uniE65E" unicode="&#xe65e;" 
d="M513 757q36 -1 70 -19q63 -34 63 -120q0 -43 -7 -76t-13.5 -47t-19.5 -35q-11 -18 -16.5 -29t-11 -31.5t-5.5 -42.5q0 -17 7.5 -32.5t17 -25.5t29.5 -21.5t33 -18t39 -17.5q25 -11 38 -17t36.5 -18.5t36 -22t29.5 -25.5t25.5 -32t15 -38t6.5 -46v-69q0 -16 11 -27
t26.5 -11t26.5 11t11 27v69q0 34 -8.5 65t-20.5 53.5t-33.5 44.5t-38.5 35t-45 28.5t-43.5 22.5t-42.5 19q-46 20 -62 30q-19 12 -19 16q0 18 5 30.5t17 33.5q15 25 23.5 42.5t18 59.5t9.5 95q0 133 -105 188q-51 26 -103 26h-1q-52 0 -102 -26q-106 -55 -106 -188
q0 -53 9.5 -95t18 -59.5t23.5 -42.5q9 -15 12.5 -22t6.5 -18t3 -24q0 -4 -18 -16q-16 -9 -63 -30q-27 -12 -42 -19t-43.5 -22.5t-45 -28.5t-38.5 -35t-34 -44.5t-20.5 -53.5t-8.5 -65v-69q0 -16 11 -27t26.5 -11t27 11t11.5 27v69q0 24 6 46t14.5 38t25.5 32t29.5 25.5
t36 22t36.5 18.5t39 17q25 11 38 17.5t33 18t29.5 21.5t17.5 25.5t8 32.5q0 22 -5.5 42.5t-11 31.5t-16.5 29q-13 21 -20 35t-13.5 47t-6.5 76q0 86 62 120q34 18 70 19h1z" />
    <glyph glyph-name="uniE65F" unicode="&#xe65f;" horiz-adv-x="1381" 
d="M1380 -24h-51q0 108 -52 200.5t-142 148t-198 59.5q-44 32 -93 54q5 6 10 13q31 -15 66 -15q64 0 108.5 45t44.5 108.5t-44.5 108.5t-108.5 45q-8 0 -17 -1q-9 25 -22 48q20 4 39 4q85 0 144.5 -60t59.5 -145q0 -51 -23.5 -95.5t-64.5 -72.5q150 -39 247 -162.5
t97 -282.5zM640 420q167 -44 274.5 -181.5t107.5 -313.5q0 -26 -2 -51h-52q3 25 3 51q0 93 -36.5 178.5t-98 147t-146.5 98t-178.5 36.5t-179 -36.5t-147 -98t-98 -147t-36.5 -178.5q0 -26 3 -51h-51q-3 25 -3 51q0 176 108 313.5t274 181.5q-57 34 -91.5 92.5t-34.5 127.5
q0 106 74.5 181t180.5 75t181 -75t75 -181q0 -69 -34.5 -127.5t-92.5 -92.5zM511 845q-85 0 -144.5 -60t-59.5 -144.5t59.5 -144.5t144.5 -60t145 60t60 144.5t-60 144.5t-145 60z" />
    <glyph glyph-name="uniE660" unicode="&#xe660;" horiz-adv-x="1399" 
d="M558 587q0 24 9 45.5t25.5 38.5t38 26t45 9t45.5 -9t38.5 -26t25.5 -38.5t9 -45t-9 -45t-25.5 -38.5t-38.5 -26t-45.5 -9t-45 9t-38 26t-25.5 38.5t-9 44.5zM189 352v-1v1zM676 892q-90 0 -165.5 -44t-119.5 -119.5t-44 -165.5q0 -51 34 -126t82 -146t97 -135t82 -102.5
t34 -38.5q13 14 35.5 40t79 99t100 138.5t79 142.5t35.5 128q0 90 -44 165.5t-120 119.5t-165 44v0zM676 426q-68 0 -116.5 48t-48.5 116.5t48.5 116.5t116.5 48t116.5 -48t48.5 -116.5t-48.5 -116.5t-116.5 -48v0zM751 75l-21 -36q159 -3 266.5 -21.5t107.5 -44.5
q0 -27 -123.5 -46.5t-299.5 -19.5q-423 0 -423 66q0 25 104.5 44t260.5 22l-21 36q-169 -6 -282.5 -34.5t-113.5 -66.5q0 -102 470 -102q195 0 333 30t138 72q0 38 -113.5 66.5t-282.5 34.5zM751 75z" />
    <glyph glyph-name="uniE661" unicode="&#xe661;" horiz-adv-x="1209" 
d="M0 529v78q4 12 14 18t28 12q90 42 270.5 123.5t270.5 123.5q17 8 43 0q372 -168 559 -259q24 -8 24 -36v-54q0 -36 -36 -36h-42v-12v-253v-282q0 -23 -12 -43t-30 -29q-9 -5 -19 -6.5t-17 -1.5t-19 1t-18 1v463h-818v-463h-48q-24 0 -48 24q-18 27 -18 54v529v12h-36
q-3 2 -11 5.5t-11 5t-8.5 5t-8 6t-5.5 6.5t-4 8zM289 505h84q12 0 12 12v54q0 5 -4 8.5t-8 3.5h-169q-4 0 -8 -3.5t-4 -8.5v-54q0 -12 12 -12h85zM908 505h84q12 0 12 12v54q0 8 -3 10t-9 2h-168q-12 0 -12 -12v-48q0 -8 4 -10t14 -2q24 -6 78 -6zM601 505h85q4 0 8 4t4 8
v54q0 5 -4 8.5t-8 3.5h-169q-12 0 -12 -12v-48q0 -8 3 -10t9 -2q30 -6 84 -6zM241 270h721v-72h-721v72zM241 150h721v-72h-721v72zM241 36h721v-72h-721v72z" />
    <glyph glyph-name="uniE662" unicode="&#xe662;" 
d="M308 -33l-307 4q0 90 65.5 149t160.5 59q111 3 130 20q12 12 0 47q-44 20 -71 45q-76 69 -76 145v4q-15 -3 -30 11t-22 38l-13 51q-7 25 0.5 46t24.5 26l36 11q2 0 6.5 4.5t6.5 3.5q3 81 44 140t96 59h120q49 0 86 -37.5t49 -102.5l-38 -11q-45 0 -73 -47.5t-31 -116.5
q-1 0 -10 -2l-29 -9q-14 -4 -20 -25.5t0 -42.5l4 -42q3 -12 12.5 -24.5t17 -19t7.5 -5.5v5q0 -4 4.5 -11.5t5.5 -9.5q29 -92 122 -150q2 -7 1.5 -9.5t-3.5 -6.5q-7 -6 -33.5 -9t-49.5 -3h-23q-60 0 -115 -60t-55 -124zM1024 -61h-145l-538 3q0 76 54.5 130.5t131.5 54.5
q91 2 107 16q7 7 4 24q-1 7 -4 15q-3 9 -7.5 18.5t-7.5 14.5l-3 5q0 19 19 32t46 13t46 -13t19 -32q-7 -18 -10 -38q-2 -17 0 -27q1 -10 6 -15q10 -9 49 -12l45 -1q83 0 135.5 -48t52.5 -140zM904 424l-19 -42q-7 -23 -49 -41v-3q0 -50 -31.5 -93t-75.5 -63q-28 -13 -47 -13
q-22 0 -50 13t-55 37q-12 12 -25 28q-8 10 -15 23q-3 5 -9.5 14.5t-11 17.5t-5.5 15q-1 3 -6 10t-5 11v3q-14 -2 -22 8t-14 33l-8 42q-6 20 1 37.5t22 21.5l30 9q9 3 11 2q3 66 36.5 112.5t78.5 46.5h99q46 0 79 -46t36 -113l6 -1l29 -9q15 -4 20.5 -21.5t-0.5 -38.5z" />
    <glyph glyph-name="uniE663" unicode="&#xe663;" 
d="M636 284q-3 1 -6.5 3t-8.5 8t-8 15t-2.5 24t6.5 34q44 45 72 111.5t28 134.5q0 103 -59 160.5t-146 57.5t-146 -57.5t-59 -160.5q0 -68 28 -134.5t73 -112.5q6 -22 6 -37t-8 -25.5t-13.5 -14.5t-10.5 -6q-63 -23 -117.5 -52t-94.5 -67.5t-40 -74.5v-28q0 -126 383 -126
q381 0 381 126v28q0 37 -40.5 75.5t-96.5 67.5t-121 51z" />
    <glyph glyph-name="uniE664" unicode="&#xe664;" 
d="M512 874q-100 0 -190.5 -38.5t-156.5 -104.5t-104.5 -156.5t-38.5 -190.5t38.5 -190.5t104.5 -156.5t156.5 -104.5t190.5 -38.5t190.5 38.5t156.5 104.5t104.5 156.5t38.5 190.5t-38.5 190.5t-104.5 156.5t-156.5 104.5t-190.5 38.5zM425 164q-9 -7 -22.5 -12.5t-35 -8
t-47.5 9.5t-50 40q-19 23 -26 46t-3.5 39.5t10.5 29.5t13 20l6 6q83 68 119 97q34 24 50 32t41 8q8 0 14.5 -0.5t12.5 -2t9 -1.5t8 -3t6 -3t8 -4l6 -4l37 -37q10 -14 10 -21t-29 -22q-8 -3 -14 -2t-8 3l-3 3q-7 11 -29 29q-11 8 -24 7t-23 -6l-10 -5q-112 -83 -130 -101
q-24 -24 -15 -54q13 -39 47 -43q13 -2 25 1.5t17 8.5l5 4l72 58q11 -15 33 -18q9 -2 18 -2t14 1l4 1q-98 -83 -116 -94zM757 416l-130 -104q-2 -2 -5.5 -5t-14.5 -9.5t-22.5 -10.5t-28.5 -4t-33 7q-26 11 -42 25t-20 21l-3 8q-7 15 7 26q27 20 47 0q9 -10 20.5 -16.5
t29.5 -7t33 12.5q126 101 130 104q14 12 14.5 29.5t-14.5 39.5q-17 22 -40 25t-50 -18l-65 -54q-11 11 -44 14q-11 2 -39 -2q-3 -1 1 2q2 1 6 4q10 6 35 26t45 37l21 16q4 3 10.5 7.5t26.5 12t39.5 9t44.5 -8.5t45 -34t27 -48.5t2.5 -42.5t-11.5 -32t-14 -21z" />
    <glyph glyph-name="uniE665" unicode="&#xe665;" 
d="M790 125l-331 100l295 343l-380 -318l-310 92l896 427zM449 -3v178l109 -31z" />
    <glyph glyph-name="uniE666" unicode="&#xe666;" 
d="M915 557q-17 0 -26.5 -10t-10.5 -19l-1 -10v-383q0 -50 -32.5 -83t-83.5 -33h-498q-51 0 -83.5 32.5t-32.5 83.5v498q0 51 32.5 83.5t83.5 32.5h383h4q3 0 9.5 2t11.5 5.5t9.5 11.5t4.5 19q0 17 -10 26.5t-19 10.5l-10 1h-383q-87 0 -139.5 -52.5t-52.5 -139.5v-498
q0 -86 52.5 -139t139.5 -53h498q91 0 141.5 47t50.5 145v383v4q0 3 -2 9.5t-6 11.5t-11.5 9.5t-18.5 4.5zM263 144q-1 -1 -0.5 -4t1.5 -4t4.5 -1.5t3.5 0.5q9 2 42 7.5t56.5 13t34.5 17.5l397 397l-104 104l-397 -397q-11 -11 -18 -34.5t-12.5 -56.5t-7.5 -42zM932 700
q21 22 21 52t-21.5 51.5t-52 21.5t-51.5 -21l-89 -90l103 -103z" />
    <glyph glyph-name="uniE667" unicode="&#xe667;" 
d="M85 426q0 18 13 30.5t31 12.5h766q18 0 31 -12.5t13 -30.5v-511q0 -18 -13 -30.5t-31 -12.5h-766q-18 0 -31 13t-13 30v511v0zM256 299h512v-256h-512v256zM0 854q0 17 12.5 29.5t30.5 12.5h938q18 0 30.5 -12t12.5 -30v-257q0 -18 -12.5 -30t-30.5 -12h-938
q-18 0 -30.5 12t-12.5 30v257z" />
    <glyph glyph-name="uniE668" unicode="&#xe668;" 
d="M303 -18q-68 0 -117.5 47.5t-52.5 115.5v478q3 68 52.5 115.5t117.5 47.5h331h2l-57 -48h-276q-51 0 -87 -36t-36 -87v-462q0 -51 36 -87t87 -36h424q51 0 87 36t36 87v320l47 46v-374q-3 -68 -52.5 -115.5t-117.5 -47.5h-424zM374 217q-7 0 -8 2q-3 4 -1 16q1 8 5 23
q3 13 9 33q5 17 9.5 31t6.5 19h1q3 8 7 14.5t11 13.5q2 3 14 16l2 1q5 5 31 32q20 21 26 27l42 43l46 49l113 118l97 -98l-115 -121l-46 -48q-4 -4 -16 -17q-41 -42 -50 -51q-16 -17 -31 -32q-11 -12 -13 -14q-6 -6 -13 -11q-7 -6 -14 -9q-7 -4 -23 -10q-15 -6 -32 -11
q-16 -6 -32 -10q-15 -4 -22 -5q-2 -1 -4 -1zM738 707l14 14q11 11 19 18q9 7 18 10q8 2 16 2h2q5 0 9 -1v0q21 -3 38 -20q10 -10 16 -21q8 -16 7 -31v-3l1 -1q0 -9 -3.5 -17t-9.5 -16l-15 -15l-12 -12l-5 -5z" />
    <glyph glyph-name="uniE669" unicode="&#xe669;" 
d="M959 443l-179 48l-185 -107l184 -106l180 48l23 -84l-96 -26l86 -49l-44 -76l-86 50l25 -96l-83 -22l-48 179l-185 106v-185l132 -130l-62 -61l-70 69v-127h-87v128l-71 -69l-61 60l132 130v186l-161 -93l-47 -179l-84 23l25 95l-111 -64l-43 76l111 64l-95 26l22 83
l178 -48l161 92l-161 93l-178 -48l-23 84l95 26l-111 63l44 76l111 -64l-25 95l84 23l46 -179l162 -93v213l-132 132l62 62l70 -70v99h87v-99l70 70l62 -62l-132 -131v-213l184 106l49 180l84 -23l-25 -95l85 49l44 -76l-86 -49l96 -26z" />
    <glyph glyph-name="uniE66A" unicode="&#xe66a;" 
d="M85 -125q-28 10 -38 31q-5 10 -6.5 88t-1.5 366q0 324 1.5 382.5t9 66t45.5 9t239 1.5h274v-28v-28h-254h-253v-415v-415h399h400v262v261l29 -1l29 -2l2 -258q1 -259 -4 -277t-18 -31l-14 -12l-415 -1q-416 -1 -424 1zM314 221q32 82 35 95.5t10 23.5q6 7 20 -5
q9 -9 40 -41q53 -54 57 -61.5t-13 -14.5q-133 -59 -166 -73l-16 -6zM478 340q-56 59 -54 64.5t168 182t170 176.5q3 0 59 -59l55 -59l-26 -27q-25 -27 -155 -165t-146 -155l-16 -17zM871.5 758.5q-51.5 56.5 -53.5 61.5q-2 8 30.5 37.5t47.5 33.5q20 6 32.5 0.5t38.5 -29.5
q24 -24 30.5 -39.5t-0.5 -37.5q-5 -13 -33 -47t-36 -35q-5 -1 -56.5 55.5z" />
    <glyph glyph-name="uniE66B" unicode="&#xe66b;" 
d="M328 307h-146q-16 0 -26.5 10.5t-10.5 26t10.5 26t26.5 10.5h109v110q0 15 11 25.5t26 10.5t25.5 -10.5t10.5 -25.5v-147q0 -15 -10.5 -25.5t-25.5 -10.5zM728 203q-53 0 -93.5 -32.5t-52.5 -82.5h-141q-12 50 -52.5 82.5t-92.5 32.5q-62 0 -106 -44t-44 -106t44 -106
t106 -44q51 0 90.5 31.5t52.5 79.5h145q13 -48 53 -79.5t91 -31.5q62 0 106 44t44 106t-44 106t-106 44zM295.5 -23q-31.5 0 -54 22.5t-22.5 54t22.5 54t54 22.5t54 -22.5t22.5 -54t-22.5 -54t-54 -22.5zM727.5 -23q-31.5 0 -54 22.5t-22.5 54t22.5 54t54 22.5t54 -22.5
t22.5 -54t-22.5 -54t-54 -22.5zM913 855h-531q-37 0 -64 -26.5t-27 -64.5v-106l-222 -111q-2 -1 -4 -3q-64 -45 -64 -128v-367q0 -15 10.5 -26t25.5 -11t26 11t11 26v367q0 44 30 67l240 120q1 0 2 1l2 2q6 4 6 5q3 2 4 6q3 5 4 6q0 2 1 7q0 1 0.5 3t0.5 3v128q0 7 5.5 12.5
t12.5 5.5h531q15 0 25.5 -11t10.5 -26v-694q0 -15 10.5 -25.5t26 -10.5t26 10.5t10.5 25.5v694q0 45 -32 77.5t-77 32.5zM843 493l-72 19l-75 -43l74 -43l73 20l9 -35l-38 -10l34 -20l-17 -31l-35 20l10 -38l-34 -9l-19 72l-75 43v-75l53 -52l-25 -25l-28 28v-52h-35v52
l-28 -28l-25 25l53 52v75l-65 -37l-19 -73l-34 10l10 38l-45 -26l-17 31l45 26l-39 11l9 33l72 -19l65 37l-65 38l-72 -20l-9 34l38 10l-45 26l18 31l45 -26l-10 38l34 10l19 -73l65 -37v86l-53 53l25 25l28 -28v40h35v-40l28 28l25 -25l-53 -53v-86l75 43l19 73l34 -10
l-10 -38l35 20l17 -31l-34 -20l38 -10z" />
    <glyph glyph-name="uniE66C" unicode="&#xe66c;" 
d="M61 378v-3h1q1 -12 9.5 -19.5t20.5 -7.5t20.5 8t10.5 19v3v3q0 102 50.5 188.5t137 137t188.5 50.5q105 0 193 -53t137 -142l-136 15q-13 1 -23 -7t-11.5 -20.5t6.5 -22.5t21 -11l217 -24q13 -2 23 6t11 21l24 217v3q0 12 -8 21t-19 10q-13 1 -23 -7t-12 -20l-16 -151
q-57 103 -159.5 165t-224.5 62q-89 0 -170 -35t-139.5 -93.5t-93.5 -139.5t-35 -170v-1v0v-1v-1zM961 378v3q-2 11 -10.5 18.5t-20.5 7.5t-20.5 -8t-9.5 -19h-1v-3v-3q0 -102 -50.5 -188.5t-137 -137t-188.5 -50.5q-105 0 -193 53t-137 142l136 -15q13 -1 23 7t11.5 20.5
t-6.5 22.5t-21 12l-217 23q-13 2 -23 -6t-11 -21l-24 -217v-3q0 -12 8 -21t20 -10t22 7t12 21l16 150q57 -103 159.5 -165t224.5 -62q89 0 170 35t140 93.5t93.5 139.5t34.5 170v1v1v0v2zM339 388h58l11 15v18q-1 1 -6 7t-8 10h-55v18h63l25 -28v-30l-14 -19l14 -16v-37
l-25 -27h-63v18h55q11 13 14 16v23q-1 2 -3 4.5t-4 4.5l-4 4h-58v19zM534 394l17 -17v-61l-17 -17h-63l-20 21v115l20 21h76v-18h-68l-10 -10v-34h65zM479 317h47q1 1 3.5 3t3.5 3v46l-7 7h-57v-48zM604 299l-26 25v106l26 26h52l27 -26v-106l-27 -25h-52zM649 317l15 15v90
q-1 2 -6 8l-9 8h-37l-16 -16v-90q3 -3 8 -7.5t8 -7.5h37z" />
    <glyph glyph-name="uniE66D" unicode="&#xe66d;" 
d="M787 556q0 114 -80.5 194.5t-194.5 80.5t-194.5 -80.5t-80.5 -194.5q0 -73 37 -138l238 -481l238 481q37 64 37 138zM512 474q-48 0 -82 34t-34 82t34 81.5t82 33.5t82 -33.5t34 -81.5t-34 -82t-82 -34z" />
    <glyph glyph-name="uniE66E" unicode="&#xe66e;" 
d="M512 798q62 0 116.5 -23t94.5 -64q41 -41 64.5 -95t23.5 -116q0 -84 -47 -181.5t-103 -180.5t-149 -193q-93 110 -149 193t-103 180.5t-47 181.5q0 63 23.5 116.5t64.5 94.5q40 40 94.5 63.5t116.5 23.5zM512 394q22 0 41.5 8t33.5 22q15 15 23.5 35t8.5 41.5t-8.5 41
t-23.5 34.5q-14 14 -33.5 22.5t-41.5 8.5t-41.5 -8.5t-33.5 -22.5q-15 -15 -23.5 -34t-8.5 -41.5t8.5 -41.5t23.5 -35q14 -14 33.5 -22t41.5 -8z" />
    <glyph glyph-name="uniE66F" unicode="&#xe66f;" 
d="M927 406h-54q-7 138 -104.5 236t-234.5 107v50q0 9 -6.5 15.5t-15.5 6.5t-15.5 -6.5t-6.5 -15.5v-49q-139 -8 -238 -106.5t-106 -238.5h-49q-9 0 -15.5 -6.5t-6.5 -15.5t6.5 -15t15.5 -6h49q9 -138 107.5 -235.5t236.5 -104.5v-53v0q0 -9 6.5 -15.5t15.5 -6.5t15.5 6.5
t6.5 15.5v53q136 9 233 106.5t106 233.5h54v0q9 0 15.5 6.5t6.5 15.5t-6.5 15.5t-15.5 6.5zM490 677v-52q-88 -7 -150.5 -69.5t-69.5 -150.5h-51q7 109 84.5 186.5t186.5 85.5zM490 95q-108 7 -185 83t-86 184h51q9 -87 71.5 -148t148.5 -68v-51zM512 274q-9 0 -15.5 -6
t-6.5 -15v-64q-69 6 -119 55t-58 118h68v0q9 0 15.5 6t6.5 15t-6.5 15.5t-15.5 6.5h-1h-68q7 71 57.5 121t120.5 57v-68v0q0 -9 6.5 -15.5t15.5 -6.5t15.5 6.5t6.5 15.5v1v66q69 -8 117.5 -57.5t55.5 -118.5h-64q-9 0 -15 -6.5t-6 -15.5t6 -15.5t15 -6.5h63
q-8 -68 -56 -116.5t-116 -56.5v64q0 9 -6.5 15t-15.5 6zM534 95v52q85 8 145.5 69t69.5 146h51q-9 -106 -84.5 -182t-181.5 -85zM749 406q-7 86 -68 148t-147 71v51q107 -9 183 -86t83 -184h-51z" />
    <glyph glyph-name="uniE670" unicode="&#xe670;" 
d="M532 45v40q106 -3 178.5 -31.5t72.5 -67.5q0 -42 -80 -72.5t-192 -30.5t-191.5 30.5t-79.5 72.5q0 39 72.5 67.5t177.5 31.5v-40q-88 -2 -148.5 -19t-60.5 -40q0 -26 68.5 -45.5t162 -19.5t161.5 19.5t68 45.5q0 23 -60.5 40t-148.5 19zM282 665q0 91 68.5 155.5
t163.5 64.5t162.5 -64.5t67.5 -155.5q0 -78 -50.5 -138t-127.5 -77l-55 -529l-55 531q-75 19 -124.5 78t-49.5 135zM511 724q0 25 -18.5 42.5t-44 17.5t-44 -17.5t-18.5 -42.5t18.5 -42.5t44 -17.5t44 17.5t18.5 42.5z" />
    <glyph glyph-name="uniE671" unicode="&#xe671;" 
d="M992 862l-88 -260l-235 -698l-246 403l-383 234z" />
    <glyph glyph-name="uniE672" unicode="&#xe672;" 
d="M809 591q0 99 -87.5 169.5t-210.5 70.5t-210.5 -70.5t-87.5 -169.5q0 -37 31 -105.5t74.5 -140.5t87.5 -137.5t74.5 -108.5t30.5 -42q12 16 32 44t71.5 104.5t90.5 141.5t71.5 136t32.5 108zM303 563q0 86 61 147.5t147 61.5t147 -61.5t61 -147.5t-61 -147t-147 -61
t-147 61t-61 147zM749 295q-29 5 -40.5 -6.5t-7 -27.5t17.5 -25q141 -89 20 -166q-74 -47 -191 -69q-32 -6 -37 -3q-257 25 -284 121q-13 48 32 92q25 24 44 25q6 5 10.5 13.5t5 18.5t-11 18t-34.5 9q-119 -61 -119 -149q0 -56 47.5 -104t130 -76t179.5 -28t179.5 28t130 76
t47.5 104q0 87 -119 149z" />
    <glyph glyph-name="uniE673" unicode="&#xe673;" 
d="M617 540q41 18 85 24l-230 195q-12 10 -28.5 10t-29.5 -10l-366 -311q-15 -12 -16.5 -30.5t10.5 -33t30.5 -16t33.5 10.5l6 5v-357q0 -12 8 -20t20 -8h279h11h167q-38 21 -62 42q-40 37 -64 86q-28 60 -28 143q0 52 17 98t38.5 74t50 52t43 32.5t25.5 13.5zM362 242h-88
v87h88v-87zM242 656q0 14 -9.5 24t-23.5 10h-65q-14 0 -24 -10t-10 -24v-119l132 110v9v0zM801 371q-18 0 -30.5 -13t-12.5 -30.5t13 -29.5q12 -13 30 -13t30 13q13 12 13 29.5t-12.5 30.5t-30.5 13zM741 519q-104 0 -177.5 -73.5t-73.5 -177.5t73.5 -177.5t177.5 -73.5
t177.5 73.5t73.5 177.5t-73.5 177.5t-177.5 73.5zM861 267q-25 -25 -60 -25q-23 0 -43 12l-55 -54l25 -25q6 -7 6 -15.5t-6 -15t-15 -6.5t-15 6l-25 25l-40 -40q-7 -6 -15.5 -6t-15 6.5t-6.5 15t6 15.5l125 125q-12 20 -12 43q0 35 25 60t60.5 25t60.5 -25t25 -60.5
t-25 -60.5z" />
    <glyph glyph-name="uniE674" unicode="&#xe674;" horiz-adv-x="1074" 
d="M1074 820zM857 503l-159 134v106h-64v-52l-114 96l-54 45l-53 -45l-338 -284q-6 -5 -7 -13t5 -15l18 -22q5 -6 13.5 -7t14.5 5l347 291l347 -291q6 -6 14.5 -5t13.5 7l19 22q5 7 4.5 15t-7.5 13zM857 503zM780 288q-4 0 -9 -1q-25 0 -48 -7l-4 4l-187 213l-116 23
l-36 -136l88 -7v-66l64 -12v-66l48 14v-56l34 -7v-4q-11 -30 -11 -62q0 -24 7 -47q14 -59 61.5 -97t108.5 -38q73 0 124.5 51.5t51.5 124.5t-51.5 124.5t-124.5 51.5zM798 27q-23 0 -39 16t-16 39t16 39.5t39 16.5t39.5 -16.5t16.5 -39.5t-16.5 -39t-39.5 -16zM798 27z
M531 24h71q-9 19 -14 40q-7 24 -7 50q0 32 7 50v3l-31 10l1 40l-28 -9zM470 684l-314 -263v-397h207v192h141v57l-67 13v63l-99 7l58 203l151 -24l186 -214l4 -5q7 2 12 2.5t12.5 0t13.5 -0.5l-2 107zM470 684z" />
    <glyph glyph-name="uniE675" unicode="&#xe675;" horiz-adv-x="1074" 
d="M1074 820zM465 707zM306 557zM829 527v146q0 14 -9.5 23.5t-22.5 9.5h-81q-13 0 -22.5 -9.5t-9.5 -23.5v-26l-115 95q-11 9 -25 9t-25 -9l-77 -64q15 -15 21 -33q30 -80 21 -157q-5 -41 -22 -84v-2h-1q-19 -47 -68 -57l-22 -4l-1 -294q0 -4 -1 -10h394q31 0 53 22t22 53
v290h110q9 0 11.5 7.5t-3.5 12.5zM623 101h-183v183q0 23 26.5 40t64.5 17t65 -17t27 -40v-183zM404 426q12 31 17 62q10 66 -16 135q-3 9 -12 15q-5 4 -11 5q-17 4 -34 6q-3 1 -7 1.5t-6 0.5q-16 2 -22 3h-5q-2 0 -4.5 0.5t-4.5 0.5q-16 1 -21 2h-14q-16 1 -21 1
q-4 0 -19 -1h-6h-9q-5 0 -20 -2h-7q-5 0 -7 -1q-7 0 -23 -2q-2 -1 -5.5 -1.5t-5.5 -0.5q-17 -2 -34 -6q-17 -3 -23 -19q-38 -99 -1 -198q6 -16 23 -19q11 -3 29 -6q4 0 12 -2q3 0 14 -1l5 -1q6 -1 9 -1v-47q0 -5 3.5 -8.5t8.5 -3.5h10l-1 -252q0 -12 7 -21l18 -25l2 350h16
l-2 -370q2 -1 3 -1q1 -1 2 -1q2 0 4 -1v0q3 0 5 1l45 14q6 1 9 8q3 3 3 7l1 349q18 2 35 4h1q2 0 5 0.5t4 1.5q17 2 27 4q17 4 23 20zM149 554q2 11 6 22q6 16 23 19q66 12 133 0q10 -2 17 -11q4 -5 5 -9q4 -11 6 -22q1 -6 -4 -11.5t-12 -5.5l-52 1h-106q-7 0 -12 5t-4 12z
M162 321l-26 -27l-2 -2q-6 -10 0 -20l2 -2l26 -27q3 -3 7.5 -1.5t4.5 6.5v68q0 5 -4.5 6.5t-7.5 -1.5zM166 225l-18 -18q-8 -8 0 -17l17 -18q2 -2 5 -1t3 4l1 47q0 3 -3 4.5t-5 -1.5zM163 155l-22 -23q-10 -11 0 -21l22 -23q3 -3 6.5 -1.5t3.5 5.5v58q0 4 -3.5 5.5
t-6.5 -0.5z" />
    <glyph glyph-name="uniE676" unicode="&#xe676;" 
d="M1021 242q3 -14 -1 -32q-3 -18 -10.5 -37.5t-18.5 -34.5t-24 -22q-13 -6 -23 -6t-22 4q-10 3 -27 6q-16 3 -33 1q-17 -1 -34 -6.5t-29 -18.5q-26 -28 -30.5 -62.5t9.5 -66.5q11 -22 -3 -44q-7 -8 -21 -18q-14 -9 -31 -17q-16 -7 -36 -12q-18 -4 -32 -4q-10 0 -19 8
q-8 7 -12 16h-1q-12 34 -41 58.5t-67 24.5q-37 0 -67 -24.5t-42 -57.5q-5 -13 -16 -19t-24 -6q-16 0 -35 6q-19 5 -38 13t-34 19t-23 22q-6 8 -6.5 18t8.5 29q12 25 9.5 57t-28.5 60q-15 16 -37 21q-21 5 -41 4q-23 -1 -47 -9q-15 -4 -31 2q-12 5 -22 20q-10 16 -19 35
q-8 19 -12 39.5t-2 33.5q3 24 22 30q32 14 58.5 44t26.5 67q0 38 -26.5 66.5t-58.5 41.5q-10 3 -16.5 15.5t-6.5 25.5q0 14 4 32q4 17 12 34q6 16 16 30q9 13 20 20q9 5 17 4t18 -4q33 -13 68.5 -8.5t62.5 31.5q13 13 19 32q6 20 8 37q1 19 0 34q-2 14 -3 22q-2 7 -3.5 15.5
t1.5 15.5q6 15 23 26.5t36.5 19t38.5 11.5q18 4 29 4q15 0 23 -9.5t11 -19.5q12 -29 39.5 -51.5t64.5 -22.5q38 0 67.5 21.5t41.5 53.5q4 9 13.5 18.5t19.5 9.5q15 0 33 -5q18 -4 35 -12q18 -7 33 -19q14 -12 23 -26q6 -9 3 -20q-2 -10 -4 -14q-14 -32 -9 -67q6 -35 32 -61
t64.5 -29t70.5 13q9 5 21.5 4t21.5 -10q16 -15 28.5 -46t17.5 -63q2 -18 -6 -29q-9 -10 -17 -13q-34 -12 -58 -42t-24 -69q0 -37 20 -65q20 -27 53 -39q7 -4 13 -9q12 -10 16 -25zM514 144q49 0 92.5 18.5t76 51t51 75.5t18.5 92.5t-19 92.5q-18 43 -50 75
q-33 32 -76.5 50.5t-92.5 18.5t-92 -18.5t-75.5 -50.5t-51 -75t-18.5 -92t19 -93q18 -43 51 -75q32 -33 75 -52q43 -18 92 -18zM514 144z" />
    <glyph glyph-name="uniE677" unicode="&#xe677;" 
d="M154 2q-15 0 -24 1t-21 4t-21 10t-15 18q-19 36 12 88q210 352 353 591q31 52 81 52.5t80 -51.5q214 -363 342 -585q17 -30 20 -73q1 -24 -14.5 -38.5t-39.5 -15.5zM570 439v113q-1 24 -17.5 41t-40.5 17q-23 -1 -38.5 -17t-15.5 -41q-1 -111 0 -221q0 -25 16 -41.5
t40 -16.5q23 0 39 16t17 42v108zM568 166q0 23 -16 39t-39.5 16t-39.5 -16t-16 -39t16 -39.5t39 -16.5t39.5 16t16.5 40z" />
    <glyph glyph-name="uniE678" unicode="&#xe678;" 
d="M510 292v330q0 17 -16 29.5t-38.5 12.5t-39 -12.5t-16.5 -29.5v-330q-36 -16 -58.5 -49.5t-22.5 -74.5q0 -57 40 -96.5t96.5 -39.5t96 39.5t39.5 96.5q0 41 -22 74.5t-59 49.5zM638 362v359q0 64 -57 107q-53 40 -126 40t-125 -40q-57 -43 -57 -107v-359
q-84 -79 -84 -194q0 -111 78 -189t188.5 -78t188.5 78t78 189q0 115 -84 194zM455.5 -27q-80.5 0 -137.5 57t-57 138q0 43 18.5 82.5t51.5 67.5l13 11v392q0 30 33 52.5t78.5 22.5t78.5 -22.5t33 -52.5v-392l13 -11q33 -28 51.5 -67.5t18.5 -82.5q0 -81 -57 -138t-137.5 -57
zM673 683h43q8 0 13 5t5 12.5t-5 12.5t-13 5h-43q-7 0 -12 -5t-5 -12.5t5 -12.5t12 -5zM716 664h-43q-7 0 -12 -5.5t-5 -12.5t5 -12.5t12 -5.5h43q8 0 13 5.5t5 12.5t-5 12.5t-13 5.5zM716 610h-43q-7 0 -12 -5.5t-5 -12.5t5 -12.5t12 -5.5h43q8 0 13 5.5t5 12.5t-5 12.5
t-13 5.5zM716 555h-43q-7 0 -12 -5t-5 -12.5t5 -12.5t12 -5h43q8 0 13 5t5 12.5t-5 12.5t-13 5zM716 501h-43q-7 0 -12 -5t-5 -12.5t5 -12.5t12 -5h43q8 0 13 5t5 12.5t-5 12.5t-13 5zM716 447h-43q-7 0 -12 -5t-5 -12.5t5 -12.5t12 -5h43q8 0 13 5t5 12.5t-5 12.5t-13 5z
" />
    <glyph glyph-name="uniE679" unicode="&#xe679;" 
d="M478 317h68v269h-68v-269zM512 754q-101 0 -186 -49.5t-134.5 -134.5t-49.5 -186t49.5 -186t134.5 -134.5t186 -49.5t186 49.5t134.5 134.5t49.5 186t-49.5 186t-134.5 134.5t-186 49.5zM512 81q-126 0 -214.5 88.5t-88.5 214.5t88.5 214.5t214.5 88.5t214.5 -88.5
t88.5 -214.5t-88.5 -214.5t-214.5 -88.5zM478 182h68v67h-68v-67z" />
    <glyph glyph-name="uniE67A" unicode="&#xe67a;" horiz-adv-x="1696" 
d="M1479 332l-268 1q-11 -3 -20.5 2.5t-12.5 16.5l-40 128l-127 -594q-3 -31 -20 -31l-45 -1q-11 -2 -20 3t-12 16l-157 775l-119 -560q-3 -11 -13.5 -18t-21.5 -4l-42 -1q-11 -3 -21 3t-13 17l-79 247h-215q-11 0 -19 8t-8 19v55q0 11 8 19t19 8l267 1q29 1 34 -16l41 -129
l116 608q6 18 25 18l57 1q11 3 20.5 -2.5t12.5 -16.5l155 -769l115 553q3 11 11 17.5t18 4.5h46q11 3 21 -2.5t12 -16.5l79 -251h216q11 0 19 -8t8 -19v-55q0 -11 -8 -19t-19 -8zM1479 332z" />
    <glyph glyph-name="uniE67B" unicode="&#xe67b;" 
d="M1000 -80h-952v952q0 10 -7 17t-17 7t-17 -7t-7 -17v-976q0 -10 7 -17t17 -7h976q10 0 17 7t7 17t-7 17t-17 7zM1024 705q0 27 -18.5 45.5t-45.5 18.5t-45.5 -18.5t-18.5 -45.5q0 -31 26 -51l-102 -301h-2h-1q-22 0 -40 -14l-124 110q4 11 4 23q0 27 -18.5 45.5t-45 18.5
t-45.5 -18.5t-19 -45.5t19 -45l-79 -214h-1h-3q-15 0 -30 -7l-36 29q2 8 2 16q0 26 -18.5 45t-45 19t-45.5 -19t-19 -45q0 -17 9 -33l-131 -135q-10 2 -18 2q-26 0 -45 -18.5t-19 -45t19 -45.5t45.5 -19t45 19t18.5 45q0 17 -8 32l132 136q9 -2 16 -2q18 0 34 9l34 -27
q-4 -11 -4 -20q0 -26 19 -45t45.5 -19t45 19t18.5 45q0 25 -16 43l80 216v0q14 0 27 6l134 -119v-3q-1 -2 -1 -3q0 -26 19 -45t45.5 -19t45 19t18.5 45q0 25 -17 44l104 309q24 3 40 21t16 42z" />
    <glyph glyph-name="uniE67C" unicode="&#xe67c;" 
d="M624 293v427q0 47 -33 79.5t-79 32.5t-79 -32.5t-33 -79.5v-427q-39 -27 -61.5 -69.5t-22.5 -91.5q0 -81 57.5 -138.5t138.5 -57.5t138.5 57.5t57.5 138.5q0 49 -22.5 91.5t-61.5 69.5zM511.5 -36q-69.5 0 -118.5 49t-49 119q0 41 19 77.5t53 60.5l12 8v442
q0 35 24.5 59.5t59.5 24.5t59.5 -24.5t24.5 -59.5v-442l12 -8q34 -24 53 -60.5t19 -77.5q0 -70 -49.5 -119t-119 -49zM554 236v305q-1 16 -13 27.5t-29 11.5t-29 -11.5t-13 -27.5v-305q-31 -13 -50.5 -41t-19.5 -63q0 -46 33 -79t79 -33t79 33t33 79q0 35 -19.5 63t-50.5 41
z" />
    <glyph glyph-name="uniE67D" unicode="&#xe67d;" 
d="M969 342l-197 1q-8 -2 -15 2t-9 12l-30 94l-93 -436q-1 -23 -14 -23h-33q-8 -2 -15 2t-9 11l-115 569l-87 -411q-2 -8 -10 -13t-16 -3h-30q-9 -3 -16 1.5t-9 12.5l-59 181h-157q-8 0 -14 6t-6 14v40q0 8 6 14t14 6h196q21 1 25 -11l30 -95l85 446q4 14 18 14h42
q8 2 15 -2t9 -11l114 -564l84 405q3 8 8.5 13t12.5 3h34q8 2 15.5 -2t9.5 -12l58 -184h158q8 0 14 -6t6 -14v-40q0 -8 -6 -14t-14 -6z" />
    <glyph glyph-name="uniE67E" unicode="&#xe67e;" 
d="M428 296l137 -135v1l28 -28l366 363l-85 84l-281 -278l-83 81l-84 83l-241 -251v586h-120v-716v-120h120h726v120h-684z" />
    <glyph glyph-name="uniE67F" unicode="&#xe67f;" 
d="M691 357q-4 4 -4 9v179v170q0 42 -24 76q-28 39 -75 57q-101 38 -192 -14q-30 -18 -50 -48q-21 -32 -21 -75v-171v-173q0 -6 -5 -10q-101 -105 -72 -244q21 -102 107.5 -162t189.5 -44q80 12 137 64q105 97 85 238q-12 85 -76 148zM697 138q-14 -81 -82 -129
q-37 -26 -82 -32q-84 -11 -150 42q-54 44 -66 111q-21 111 64 186q1 2 4.5 4t6 4t3.5 5v19v361q0 40 35 62q39 26 92 21q39 -4 67 -25q28 -22 28 -56v-186v-190q0 -7 5 -11q43 -33 62 -80q22 -52 13 -106zM723 680h21h21q8 0 12.5 5t5 12t-4.5 12t-12 6h-44q-7 -1 -12 -6
t-5 -12t5 -12t13 -5zM765 553h-7h-7h-6h-21h-2q-7 0 -11.5 -4.5t-5.5 -11.5q0 -7 4.5 -12.5t11.5 -5.5q21 -1 46 0q7 0 11.5 5t4.5 12q-1 7 -5.5 12t-12.5 5zM763 572h1q14 1 18 12q3 9 -2.5 16t-14.5 7h-42q-3 0 -6 -1q-13 -5 -11.5 -19t17.5 -15h21h19zM765 499h-21
q-2 0 -6.5 0.5t-8 0.5t-6.5 -1q-8 0 -13 -4.5t-5 -12t5 -12.5t13 -5h42q7 0 12 5t5.5 12t-5 12t-12.5 5zM765 446h-43q-7 0 -12 -5.5t-5 -12.5t5 -12t13 -5h7h8h6h6h8h7q7 0 12 5t5.5 12t-4.5 12.5t-13 5.5zM767 627q11 0 15 11q2 9 -3 16t-14 7h-42q-3 0 -7 -1
q-12 -5 -11 -19q2 -14 15 -14q2 -1 23 -1zM566 289q-6 3 -6 9v161v158q1 21 -18 34q-26 16 -57 7q-34 -11 -34 -46q1 -52 1 -314q0 -6 -4 -8q-48 -23 -67 -71t-1 -98t67 -73.5t100 -7.5q46 15 72 55.5t21 88.5q-9 71 -74 105z" />
    <glyph glyph-name="uniE680" unicode="&#xe680;" horiz-adv-x="1104" 
d="M961 -125h-820q-41 0 -73 15.5t-48 44.5q-35 59 7 135l414 747q20 36 49 56t61 20t61 -20t49 -56l414 -747q42 -76 8 -135q-17 -29 -48.5 -44.5t-73.5 -15.5v0zM551 815q-22 0 -42 -37l-414 -746q-20 -37 -8 -58t54 -21h820q42 0 54.5 21t-8.5 58l-414 746q-20 37 -42 37
v0zM551 229q-16 0 -27.5 11t-11.5 28v352q0 17 11.5 28t27.5 11t27.5 -11t11.5 -28v-352q0 -17 -11.5 -28t-27.5 -11zM551 37q25 0 43 18t18 43t-18 43t-43 18t-43 -18t-18 -43t18 -43t43 -18z" />
    <glyph glyph-name="uniE681" unicode="&#xe681;" 
d="M214 -26h49q11 0 19 8t8 19v281h-103v-281q0 -11 8 -19t19 -8zM536 794h-48q-11 0 -19 -8t-8 -19v-417h102v417q0 11 -7.5 19t-19.5 8zM263 794h-49q-11 0 -19 -8t-8 -19v-246h103v246q0 11 -8 19t-19 8zM810 794h-48q-12 0 -20 -8t-8 -19v-144h103v144q0 11 -8 19t-19 8
zM871 589h-171q-14 0 -24 -10t-10 -24v-103q0 -14 10 -24t24 -10h171q14 0 24.5 10t10.5 24v103q0 14 -10.5 24t-24.5 10zM761 -26h49q11 0 19 8t8 19v383h-103v-383q0 -11 8 -19t19 -8zM598 316h-172q-14 0 -24 -10t-10 -24v-103q0 -14 10 -24t24 -10h172q14 0 24 10t10 24
v103q0 14 -10 24t-24 10zM488 -26h48q11 0 19 8t8 19v110h-102v-110q0 -11 7.5 -19t19.5 -8zM324 486h-171q-14 0 -24.5 -10t-10.5 -24v-102q0 -14 10.5 -24t24.5 -10h171q14 0 24 10t10 24v102q0 14 -10 24t-24 10z" />
    <glyph glyph-name="uniE682" unicode="&#xe682;" 
d="M1014 -72l-172 173q118 135 118 315q0 98 -38 186.5t-102.5 153t-153 102.5t-186.5 38t-186.5 -38t-153 -102.5t-102.5 -153t-38 -186.5t38 -186.5t102.5 -153t153 -102.5t186.5 -38q89 0 170.5 31t146.5 88l172 -172q9 -9 22.5 -9t23 9t9.5 22.5t-10 22.5zM480 0
q-85 0 -162 33q-74 31 -132 89q-58 57 -89 132q-33 77 -33 162t33 162q31 74 89 132q57 58 132 89q77 33 162 33t162 -33q74 -31 132 -89q58 -57 90 -132q32 -77 32 -162t-33 -162q-31 -74 -89 -132q-57 -58 -132 -89q-77 -33 -162 -33zM687 646q-29 0 -49 -20t-20 -49
q0 -19 10 -36l-75 -125h-4q-11 0 -21 -3l-51 51q3 10 3 21q0 29 -20 49t-49 20t-49 -20t-20 -49q0 -19 10 -36l-75 -125h-4q-29 0 -49 -20t-20 -49t20 -49t49 -20t49 20t20 49q0 19 -10 36l75 125h4q11 0 21 3l51 -51q-3 -10 -3 -21q0 -28 20 -48.5t49 -20.5t49 20.5
t20 48.5q0 20 -10 36l75 125h4q29 0 49 20.5t20 49t-20 48.5t-49 20zM273 250q-5 0 -5 5t5 5t5 -5t-5 -5zM411 480q-5 0 -5 5t5 5t5 -5t-5 -5zM549 342q-5 0 -5 5t5 5t5 -5t-5 -5zM687 572q-5 0 -5 5t5 5t5 -5t-5 -5z" />
    <glyph glyph-name="uniE683" unicode="&#xe683;" 
d="M890 24h-725q-8 0 -14 6t-6 15v557q0 8 6 14t14.5 6t14.5 -6t6 -14v-537h704q8 0 14 -6t6 -14.5t-6 -14.5t-14 -6zM165 237q-7 0 -13 5t-7 12q-1 8 3.5 15t13.5 9l217 39l132 175q5 7 13.5 8t15.5 -4l149 -110l183 361q3 8 11 10.5t16 -1.5t10.5 -12t-1.5 -15l-193 -384
q-5 -8 -14 -10t-17 3l-152 113l-125 -165q-5 -7 -13 -8l-225 -40q-2 -1 -4 -1z" />
    <glyph glyph-name="uniE684" unicode="&#xe684;" 
d="M993 492h-95q-13 47 -37 89l67 66q10 10 10 23t-10 22l-108 108q-9 9 -22 9t-22 -9l-67 -67q-42 24 -89 37v95q0 13 -9 22t-22 9h-153q-13 0 -22.5 -9t-9.5 -22v-95q-46 -13 -88 -37l-67 67q-10 9 -23 9t-22 -9l-108 -108q-9 -9 -9 -22t9 -23l67 -66q-24 -42 -37 -89h-95
q-13 0 -22 -9.5t-9 -22.5v-153q0 -13 9 -22t22 -9h95q13 -47 37 -89l-67 -67q-9 -9 -9 -22t9 -22l108 -108q9 -9 22 -9t22 9l67 67q43 -24 89 -37v-95q0 -12 9 -21.5t22 -9.5h153q13 0 22.5 9.5t9.5 21.5v95q47 13 88 37l67 -67q10 -9 23 -9t22 9l108 108q9 9 9 22t-9 22
l-67 67q24 43 37 89h95q12 0 21.5 9.5t9.5 21.5v153q0 13 -9 22.5t-22 9.5zM960 340h-62h-49l-13 -47q-11 -39 -30 -74l-24 -43l34 -34l44 -44l-62 -62l-44 44l-35 34l-42 -24q-35 -19 -74 -30l-47 -13v-49v-62h-88v62v49l-47 13q-39 11 -74 30l-43 24l-34 -34l-44 -44
l-62 62l44 44l34 35l-24 42q-19 35 -30 74l-13 47h-49h-62v88h62h49l13 47q11 39 31 74l24 43l-35 34l-44 44l62 62l44 -44l35 -34l42 24q35 19 74 30l47 13v49v62h88v-62v-49l47 -13q39 -11 74 -31l43 -24l34 35l44 44l62 -62l-44 -44l-34 -35l24 -42q20 -35 30 -74l13 -47
h49h62v-88zM512 576q-79 0 -135.5 -56.5t-56.5 -135.5t56.5 -135.5t135.5 -56.5q80 0 136 56.5t56 135.5t-56 135.5t-136 56.5zM602.5 293.5q-37.5 -37.5 -90.5 -37.5t-90.5 37.5t-37.5 90.5t37.5 90.5t90.5 37.5t90.5 -37.5t37.5 -90.5t-37.5 -90.5z" />
    <glyph glyph-name="uniE685" unicode="&#xe685;" 
d="M1024 800q0 40 -28.5 68t-68 28t-67.5 -28t-28 -68q0 -49 40 -77l-141 -467q-19 -1 -36 -9l-318 325q7 17 7 36q0 40 -28 68t-68 28t-68 -28t-28 -68q0 -47 38 -76l-139 -468q-38 -2 -64.5 -29.5t-26.5 -66.5t28 -67.5t68 -28.5t68 28.5t28 67.5q0 49 -40 78l139 466
q22 1 42 12l317 -322q-10 -20 -10 -42q0 -40 28 -68t68 -28t68 28t28 68q0 48 -40 77l141 468q38 2 64.5 29.5t26.5 65.5z" />
    <glyph glyph-name="uniE686" unicode="&#xe686;" 
d="M841 622h-660q-10 0 -17 -7t-7 -17v-432q0 -10 7 -17t17 -7h100q12 0 19 9l134 167l62 -51q7 -6 16.5 -5.5t16.5 7.5l119 129q18 -11 40 -11q31 0 53.5 22.5t22.5 54t-22.5 54t-54 22.5t-54 -22.5t-22.5 -54.5q0 -15 5 -28l-107 -117l-63 52q-7 6 -17 5t-17 -8l-142 -177
h-65v384h612v-384h-331q-10 0 -17 -7t-7 -17v-118h-141q-10 0 -17 -7t-7 -17t7 -17t17 -7h165h72h86q10 0 17 7t7 17t-7 17t-17 7h-86h-48v94h331q10 0 17 7t7 17v432q0 10 -7 17t-17 7zM688 492q12 0 20 -8.5t8 -20t-8 -20t-20 -8.5t-20.5 8.5t-8.5 20t8.5 20t20.5 8.5z
" />
    <glyph glyph-name="uniE687" unicode="&#xe687;" 
d="M1008 785q0 39 -27.5 67t-67 28t-67 -28t-27.5 -67q0 -48 39 -76l-138 -459q-18 -1 -35 -9l-314 319q7 18 7 36q0 39 -27.5 67t-66.5 28t-66.5 -28t-27.5 -67q0 -46 37 -74l-137 -461q-37 -2 -63 -29.5t-26 -64.5q0 -39 27.5 -67t66.5 -28t67 28t28 67q0 47 -39 76
l136 459q22 1 42 12l311 -317q-10 -20 -10 -41q0 -40 28 -67.5t67 -27.5t66.5 27.5t27.5 67.5q0 47 -39 76l139 459q37 2 63 29t26 65z" />
    <glyph glyph-name="uniE688" unicode="&#xe688;" horiz-adv-x="1110" 
d="M135 795v-785h726v785h-726zM248 359q1 -4 -10.5 -6t-23.5 0t-13 6q-2 14 0 42.5t0 42.5q0 5 11.5 6.5t23.5 -0.5t12 -6q2 -14 0 -42.5t0 -42.5zM74 10h848v-61h-848v61z" />
    <glyph glyph-name="uniE689" unicode="&#xe689;" 
d="M1024 800q0 40 -28.5 68t-68 28t-67.5 -28t-28 -68q0 -49 40 -77l-141 -467q-19 -1 -36 -9l-318 325q7 17 7 36q0 40 -28 68t-68 28t-68 -28t-28 -68q0 -47 38 -76l-139 -468q-38 -2 -64.5 -29.5t-26.5 -66.5t28 -67.5t68 -28.5t68 28.5t28 67.5q0 49 -40 78l139 466
q22 1 42 12l317 -322q-10 -20 -10 -42q0 -40 28 -68t68 -28t68 28t28 68q0 48 -40 77l141 468q38 2 64.5 29.5t26.5 65.5z" />
    <glyph glyph-name="uniE68A" unicode="&#xe68a;" 
d="M539 488v307q0 11 -8 19t-19 8t-19 -8t-8 -19v-307q-35 -9 -58.5 -38t-23.5 -67t23.5 -67t58.5 -38v-305q0 -11 8 -19t19 -8t19 8t8 19v305q35 9 58.5 38t23.5 67t-23.5 67t-58.5 38zM539 335q-14 -8 -27 -8t-27 8q-29 16 -29 48t29 48q14 8 27 8t27 -8q29 -16 29 -48
t-29 -48zM878 673v122q0 11 -8 19t-19 8t-19 -8t-8 -19v-122q-35 -9 -58.5 -38.5t-23.5 -67t23.5 -67t58.5 -38.5v-489q0 -11 8 -19t19 -8t19 8t8 19v489q35 9 58.5 38.5t23.5 67t-23.5 67t-58.5 38.5zM878 520q-14 -8 -27 -8t-27 8q-29 16 -29 47.5t29 48.5q14 7 27 7
t27 -7q29 -17 29 -48.5t-29 -47.5zM200 304v491q0 11 -8 19t-19 8t-19 -8t-8 -19v-491q-35 -9 -58.5 -38.5t-23.5 -67t23.5 -66.5t58.5 -39v-120q0 -11 8 -19t19 -8t19 8t8 19v120q35 10 58.5 39t23.5 66.5t-23.5 67t-58.5 38.5zM200 151q-14 -8 -27 -8t-27 8q-29 16 -29 48
t29 48q14 7 27 7t27 -7q29 -16 29 -48t-29 -48z" />
    <glyph glyph-name="uniE68B" unicode="&#xe68b;" 
d="M520 106l323 317q9 9 0 18t-18 0l-314 -308l-312 312q-9 9 -18 0q-4 -3 -4 -8.5t4 -9.5l321 -321q9 -9 18 0v0zM520 106zM517 462l192 188q5 6 0 11q-6 5 -11 0l-186 -183l-186 186q-5 5 -11 0q-2 -3 -2 -6t2 -5l191 -191q6 -5 11 0v0zM517 462z" />
    <glyph glyph-name="uniE68C" unicode="&#xe68c;" 
d="M534 96q5 -7 3.5 -15t-8.5 -13t-15.5 -3.5t-13.5 8.5l-290 414q-5 7 -3.5 15.5t8.5 13.5t15.5 3.5t13.5 -8.5zM534 73q-5 -7 -13.5 -8.5t-15.5 3.5t-8.5 13t3.5 15l290 415q5 7 13.5 8.5t15.5 -3.5t8.5 -13.5t-3.5 -15.5zM534 354q5 -7 3.5 -15t-8.5 -13t-15.5 -3.5
t-13.5 8.5l-290 414q-5 7 -3.5 15.5t8.5 13.5t15.5 3.5t13.5 -8.5zM534 331q-5 -7 -13.5 -8.5t-15.5 3.5t-8.5 13t3.5 15l290 415q5 7 13.5 8.5t15.5 -3.5t8.5 -13.5t-3.5 -15.5z" />
    <glyph glyph-name="uniE68D" unicode="&#xe68d;" 
d="M241 -58q15 18 77.5 24.5t199.5 4.5q243 -5 269 -12q16 -12 17 -26q0 -11 -80 -18t-215 -7q-241 0 -266 15q-12 6 -2 19zM415 49q0 22 -28.5 30t-106.5 8q-122 0 -157 13q-46 17 -60 78q-13 55 -13 268v12v42q0 67 -0.5 97t4.5 76t6 61.5t17 43.5t23.5 34t39.5 20
t50.5 15t72 5t88 3.5t113.5 -0.5h48h49q79 0 113 0.5t88 -3.5t72 -5t50.5 -15t39.5 -20t23.5 -34t17 -43.5t5.5 -61.5t4.5 -76t-0.5 -97v-42q0 -220 -12 -275q-13 -64 -58 -82q-40 -14 -159 -14q-78 0 -107 -8t-29 -30q0 -21 -22 -30t-74.5 -9t-75 9t-22.5 30zM901 163.5
q0 10.5 -7 18t-17 7.5t-17 -7.5t-7 -18t7 -18t17 -7.5t17 7.5t7 18zM901 510v268h-778v-537h778v269zM487 414q-34 133 -56 142q-18 7 -44 -43q-4 -7 -8 -15q-26 -53 -47.5 -65.5t-80.5 -7.5q-78 7 -96 35q-13 21 22 31q19 6 49 6q55 0 77.5 19t58.5 98q22 48 46.5 79.5
t36 27.5t30 -46t33.5 -97q9 -36 20 -66.5t20.5 -48t15.5 -17.5q9 0 15 7.5t6 18t43 18t105 7.5q134 0 139 -25q0 -3 -1 -7q-5 -14 -38 -23.5t-80 -10.5q-67 -1 -94 -14t-50 -57q-39 -74 -67 -62t-55 116z" />
    <glyph glyph-name="uniE68E" unicode="&#xe68e;" 
d="M876 726h-728q-12 0 -20 -8t-8 -19v-469q0 -11 8 -19t20 -8h103q13 0 21 10l153 190l70 -58q8 -7 19 -6t18 9l130 140l2 2t5 6t4.5 8.5t1.5 10.5t-4 11q-7 8 -16 8t-16 -5l-7 -5l-122 -132l-72 59q-8 7 -20 6q-11 -1 -18 -10l-162 -201h-75v437h698v-437h-371
q-12 0 -20 -8t-8 -19v-134h-166q-27 0 -27 -21.5t27 -21.5h367q28 0 28 21.5t-28 21.5h-158v118h371q12 0 20 8t8 19v469q0 11 -8 19t-20 8z" />
    <glyph glyph-name="uniE68F" unicode="&#xe68f;" 
d="M986 756h-948q-16 0 -27 -11t-11 -27v-475h191l111 108q13 -7 29 -7q11 0 21 3l70 -96q-1 -6 -1 -11q0 -27 18.5 -45.5t45.5 -18.5q26 0 44.5 18t19.5 44l188 187q24 -13 51 -13q45 0 76.5 31.5t31.5 76.5t-31.5 76.5t-76.5 31.5t-76.5 -31.5t-31.5 -76.5q0 -26 12 -50
l-176 -174q-14 8 -31 8q-10 0 -20 -3l-71 97q1 5 1 10q0 27 -18.5 45.5t-45.5 18.5t-45.5 -18.5t-18.5 -45.5v-1l-103 -100h-100v358q0 10 7 17t17 7h848q10 0 17 -7t7 -17v-493q0 -10 -7 -17t-17 -7h-808h-2q-13 0 -22.5 -9.5t-9.5 -22.5t9.5 -22.5t22.5 -9.5h2h288v-96
h-157q-13 0 -22.5 -9.5t-9.5 -22.5t9.5 -22.5t22.5 -9.5h477q13 0 22.5 9.5t9.5 22.5t-9.5 22.5t-22.5 9.5h-128v96h378q16 0 27 11t11 27v596q0 16 -11 27t-27 11zM788 564q18 0 31 -13t13 -31t-13 -31t-31 -13t-31 13t-13 31t13 31t31 13z" />
    <glyph glyph-name="uniE690" unicode="&#xe690;" 
d="M914 738h-752q-11 0 -19 -8t-8 -19v-492q0 -12 8 -20t19 -8h115q13 0 21 11l153 189l70 -58q8 -7 19 -6t18 9l136 146q21 -12 45 -12q36 0 62 25.5t26 61.5t-26 61.5t-62 25.5t-61.5 -25.5t-25.5 -61.5q0 -17 6 -33l-122 -132l-71 59q-9 7 -20 6q-12 -1 -19 -10
l-162 -201h-74v437h697v-437h-377q-11 0 -19 -8t-8 -19v-134h-160q-12 0 -20 -8t-8 -19.5t8 -19.5t20 -8h367q11 0 19 8t8 19.5t-8 19.5t-19 8h-152v106h376q12 0 19.5 8t7.5 20v492q1 11 -7 19t-20 8zM739 590q14 0 23.5 -9.5t9.5 -23.5t-9.5 -23.5t-23 -9.5t-23 9.5
t-9.5 23.5t9.5 23.5t22.5 9.5zM739 590z" />
    <glyph glyph-name="uniE691" unicode="&#xe691;" 
d="M300 832l456 -447l-456 -446l-35 34l421 412l-421 412z" />
    <glyph glyph-name="uniE692" unicode="&#xe692;" 
d="M273 384l432 431l34 -34l-431 -431zM705 -46l-432 431l35 34l431 -431z" />
    <glyph glyph-name="uniE693" unicode="&#xe693;" 
d="M404 612l-29 -29l217 -199l-217 -199l29 -29l245 228zM404 612z" />
    <glyph glyph-name="uniE694" unicode="&#xe694;" 
d="M375 384l245 -228l29 29l-217 199l217 199l-29 29zM620 612z" />
    <glyph glyph-name="uniE695" unicode="&#xe695;" 
d="M930 777h-836q-12 0 -21 -9t-9 -21v-547q0 -12 9 -21t21 -9h128q14 0 23 11l170 211l78 -64q9 -8 21 -7t20 10l151 162q23 -14 50 -14q40 0 68.5 28.5t28.5 68.5t-28 68.5t-68.5 28.5t-69 -28.5t-28.5 -68.5q0 -19 7 -36l-136 -147l-79 65q-9 8 -22 7t-21 -11l-180 -223
h-82v485h774v-485h-418q-13 0 -22 -9t-9 -22v-148h-178q-12 0 -21 -9t-9 -21.5t9 -21.5t21 -9h209h90h109q13 0 22 9t9 21.5t-9 21.5t-22 9h-109h-60v118h419q12 0 21 9t9 21v547q0 12 -9 21t-21 9zM735 613q15 0 26 -11t11 -26t-11 -25.5t-26 -10.5t-25.5 10.5t-10.5 25.5
t10.5 26t25.5 11zM735 613z" />
    <glyph glyph-name="uniE696" unicode="&#xe696;" 
d="M506.5 554q-8.5 0 -14 -6t-5.5 -14v-258q0 -8 5.5 -14t14 -6t14.5 6t6 14v258q0 8 -6 14t-14.5 6zM506.5 199q-8.5 0 -14 -5.5t-5.5 -14.5v-1q0 -9 5.5 -14.5t14 -5.5t14.5 5.5t6 14.5v1q0 9 -6 14.5t-14.5 5.5zM865 115v1l-323 580q-13 25 -36 25q-24 0 -38 -27
l-329 -585l-1 -3q-8 -30 7 -50q15 -19 40 -19h640q26 0 40 20q15 24 0 58zM831 79q-1 -2 -6 -2h-640q-5 0 -8 3q-3 4 -1 13l327 582h1q1 2 1 3h1v-1l323 -579q5 -14 2 -19z" />
    <glyph glyph-name="uniE697" unicode="&#xe697;" 
d="M872 -54h-720q-76 0 -107 52t7 119l363 657q37 68 96.5 68t96.5 -68l364 -657q38 -67 7.5 -119t-107.5 -52zM512 773q-19 0 -37 -32l-364 -657q-18 -33 -7 -51t48 -18h720q37 0 48 18t-7 51l-364 657q-18 32 -37 32zM512 257q-14 0 -24 10t-10 24v310q0 15 10 25t24 10
t24 -10t10 -25v-310q0 -14 -10 -24t-24 -10zM512 88q22 0 37.5 16t15.5 38t-15.5 38t-37.5 16t-38 -16t-16 -38t16 -38t38 -16z" />
    <glyph glyph-name="uniE698" unicode="&#xe698;" 
d="M848 30h-672q-70 0 -98.5 48.5t5.5 110.5l339 606q35 63 90 63t90 -63l339 -607q34 -61 5.5 -109.5t-98.5 -48.5zM512 794q-18 0 -34 -30l-339 -607q-17 -30 -7 -46.5t44 -16.5h672q34 0 44 16.5t-7 46.5l-339 607q-16 30 -34 30zM512 317q-13 0 -22.5 9.5t-9.5 22.5v287
q0 13 9.5 22.5t22.5 9.5t22.5 -9.5t9.5 -22.5v-287q0 -13 -9.5 -22.5t-22.5 -9.5zM464 206q0 19 14 33t34 14t34 -14t14 -33h-96zM560 211q0 -20 -14 -34t-34 -14t-34 14t-14 34h96z" />
    <glyph glyph-name="uniE699" unicode="&#xe699;" 
d="M510 434q-8 0 -14 5.5t-6 14.5v331q0 8 6 13.5t14 5.5t14 -5.5t6 -13.5v-331q0 -9 -6 -14.5t-14 -5.5zM510 -69q-8 0 -14 5.5t-6 13.5v335q0 8 6 14t14 6t14 -6t6 -14v-335q0 -8 -6 -13.5t-14 -5.5zM822 521q-8 0 -13.5 5.5t-5.5 13.5v245q0 8 5.5 13.5t13.5 5.5t14 -5.5
t6 -13.5v-245q0 -8 -6 -13.5t-14 -5.5zM822 -69q-8 0 -13.5 5.5t-5.5 13.5v422q0 8 5.5 14t13.5 6t14 -6t6 -14v-422q0 -8 -6 -13.5t-14 -5.5zM202 321q-8 0 -14 5.5t-6 14.5v444q0 8 6 13.5t14 5.5t13.5 -5.5t5.5 -13.5v-444q0 -9 -5.5 -14.5t-13.5 -5.5zM202 -69
q-8 0 -14 5.5t-6 13.5v222q0 8 6 14t14 6t13.5 -6t5.5 -14v-222q0 -8 -5.5 -13.5t-13.5 -5.5zM510 266q-43 0 -73.5 30.5t-30.5 73t30.5 73t73.5 30.5t73.5 -30.5t30.5 -73t-30.5 -73t-73.5 -30.5zM510 434q-27 0 -46 -19t-19 -45.5t19 -45.5t46 -19t45.5 19t18.5 45.5
t-18.5 45.5t-45.5 19zM822 352q-43 0 -73 30.5t-30 73.5t30 73.5t73 30.5t73.5 -30.5t30.5 -73.5t-30.5 -73.5t-73.5 -30.5zM822.5 521q-26.5 0 -45.5 -19t-19 -46t19 -45.5t45.5 -18.5t45.5 18.5t19 45.5t-19 46t-45.5 19zM202 153q-43 0 -73.5 30.5t-30.5 73t30.5 73
t73.5 30.5t73 -30.5t30 -73t-30 -73t-73 -30.5zM201.5 321q-26.5 0 -45.5 -19t-19 -45.5t19 -45.5t45.5 -19t45.5 19t19 45.5t-19 45.5t-45.5 19z" />
    <glyph glyph-name="uniE69A" unicode="&#xe69a;" 
d="M485 457q-9 0 -15 6t-6 15v362q0 8 6 14.5t15 6.5t15 -6.5t6 -14.5v-362q0 -9 -6 -15t-15 -6zM485 -93q-9 0 -15 6t-6 15v366q0 9 6 15.5t15 6.5t15 -6.5t6 -15.5v-366q0 -9 -6 -15t-15 -6zM826 551q-9 0 -15 6.5t-6 15.5v267q0 8 6 14.5t15 6.5t15.5 -6.5t6.5 -14.5
v-267q0 -9 -6.5 -15.5t-15.5 -6.5zM826 -93q-9 0 -15 6t-6 15v461q0 9 6 15t15 6t15.5 -6t6.5 -15v-461q0 -9 -6.5 -15t-15.5 -6zM148 333q-8 0 -14.5 6.5t-6.5 15.5v485q0 8 6.5 14.5t15 6.5t15 -6.5t6.5 -14.5v-485q0 -9 -6.5 -15.5t-15.5 -6.5zM148 -93q-8 0 -14.5 6
t-6.5 15v243q0 9 6.5 15t15 6t15 -6t6.5 -15v-243q0 -9 -6.5 -15t-15.5 -6zM485 273q-47 0 -80 33t-33 80t33 80.5t80 33.5t80 -33.5t33 -80.5t-33 -80t-80 -33zM485 457q-29 0 -49.5 -21t-20.5 -50t20.5 -49.5t49.5 -20.5t50 20.5t21 49.5t-21 50t-50 21zM826 368
q-47 0 -80 33t-33 80t33 80t80 33t80 -33t33 -80t-33 -80t-80 -33zM826 551q-29 0 -49.5 -20.5t-20.5 -49.5t20.5 -50t49.5 -21t50 21t21 50t-21 49.5t-50 20.5zM148 150q-46 0 -79.5 33t-33.5 80t33.5 80t80 33t80 -33t33.5 -80t-33.5 -80t-80.5 -33zM148 333
q-29 0 -49.5 -20.5t-20.5 -49.5t20.5 -50t50 -21t50 21t20.5 50t-20.5 49.5t-50.5 20.5z" />
    <glyph glyph-name="uniE69B" unicode="&#xe69b;" 
d="M847 -31h-672q-70 0 -98.5 48.5t5.5 111.5l339 612q35 63 90 63t90 -63l340 -612q34 -63 5.5 -111.5t-99.5 -48.5zM511.5 740q-17.5 0 -34.5 -30l-339 -613q-17 -30 -7 -47t44 -17h672q35 0 45 17t-7 47l-339 613q-17 30 -34.5 30zM511.5 259q-13.5 0 -22.5 9t-9 23v289
q0 13 9 22.5t22.5 9.5t22.5 -9.5t9 -22.5v-289q0 -14 -9 -23t-22.5 -9zM511 101q21 0 35.5 15t14.5 35.5t-14.5 35.5t-35 15t-35 -15t-14.5 -35.5t14.5 -35.5t34.5 -15z" />
    <glyph glyph-name="uniE69C" unicode="&#xe69c;" 
d="M485 457q-9 0 -15 6t-6 15v362q0 8 6 14.5t15 6.5t15 -6.5t6 -14.5v-362q0 -9 -6 -15t-15 -6zM485 -93q-9 0 -15 6t-6 15v366q0 9 6 15.5t15 6.5t15 -6.5t6 -15.5v-366q0 -9 -6 -15t-15 -6zM826 551q-9 0 -15 6.5t-6 15.5v267q0 8 6 14.5t15 6.5t15.5 -6.5t6.5 -14.5
v-267q0 -9 -6.5 -15.5t-15.5 -6.5zM826 -93q-9 0 -15 6t-6 15v461q0 9 6 15t15 6t15.5 -6t6.5 -15v-461q0 -9 -6.5 -15t-15.5 -6zM148 333q-8 0 -14.5 6.5t-6.5 15.5v485q0 8 6.5 14.5t15 6.5t15 -6.5t6.5 -14.5v-485q0 -9 -6.5 -15.5t-15.5 -6.5zM148 -93q-8 0 -14.5 6
t-6.5 15v243q0 9 6.5 15t15 6t15 -6t6.5 -15v-243q0 -9 -6.5 -15t-15.5 -6zM485 273q-47 0 -80 33t-33 80t33 80.5t80 33.5t80 -33.5t33 -80.5t-33 -80t-80 -33zM485 457q-29 0 -49.5 -21t-20.5 -50t20.5 -49.5t49.5 -20.5t50 20.5t21 49.5t-21 50t-50 21zM826 368
q-47 0 -80 33t-33 80t33 80t80 33t80 -33t33 -80t-33 -80t-80 -33zM826 551q-29 0 -49.5 -20.5t-20.5 -49.5t20.5 -50t49.5 -21t50 21t21 50t-21 49.5t-50 20.5zM148 150q-46 0 -79.5 33t-33.5 80t33.5 80t80 33t80 -33t33.5 -80t-33.5 -80t-80.5 -33zM148 333
q-29 0 -49.5 -20.5t-20.5 -49.5t20.5 -50t50 -21t50 21t20.5 50t-20.5 49.5t-50.5 20.5z" />
    <glyph glyph-name="uniE69D" unicode="&#xe69d;" horiz-adv-x="1061" 
d="M438 342h-344q-13 0 -22.5 -9.5t-9.5 -22.5v-344q0 -13 9.5 -22.5t22.5 -9.5h344q13 0 22.5 9.5t9.5 22.5v342q0 15 -9.5 24.5t-22.5 9.5zM962 342h-344q-13 0 -22.5 -9.5t-9.5 -22.5v-344q0 -13 9.5 -22.5t22.5 -9.5h344q13 0 22.5 9.5t9.5 22.5v342q0 15 -9.5 24.5
t-22.5 9.5zM962 831h-344q-13 0 -22.5 -9.5t-9.5 -22.5v-343q0 -13 9.5 -22.5t22.5 -9.5h344q13 0 22.5 9.5t9.5 22.5v343q0 13 -9.5 22.5t-22.5 9.5zM944 505q0 -14 -9.5 -23.5t-22.5 -9.5h-246q-13 0 -22.5 9.5t-9.5 23.5v244q0 13 9.5 22.5t22.5 9.5h246q13 0 22.5 -9.5
t9.5 -22.5v-244zM438 831h-344q-13 0 -22.5 -9.5t-9.5 -22.5v-343q0 -13 9.5 -22.5t22.5 -9.5h344q13 0 22.5 9.5t9.5 22.5v343q0 13 -9.5 22.5t-22.5 9.5z" />
    <glyph glyph-name="uniE69E" unicode="&#xe69e;" 
d="M223 387h185v42h-185v-42zM223 318h185v42h-185v-42zM223 456h185v42h-185v-42zM832 832h-640q-53 0 -90.5 -37.5t-37.5 -90.5v-640q0 -53 37.5 -90.5t90.5 -37.5h640q53 0 90.5 37.5t37.5 90.5v640q0 53 -37.5 90.5t-90.5 37.5zM129 318h65v180h-57v28h57v48h30v-48h185
v48h29v-48h57v-28h-57v-180h65v-28h-374v28zM143 192q-5 12 -15 29q79 30 132 62l18 -26q-73 -40 -135 -65zM488 194q-65 34 -136 63l17 27q92 -38 135 -60zM593 195h-29v220q-19 -31 -39 -57q-6 17 -12 35q59 81 89 184l31 -11q-19 -53 -40 -98v-273zM885 249
q-10 -43 -63 -43h-117q-55 0 -55 56v156l-34 -8l-5 28l39 9v80h30v-73l63 15v104h30v-97l98 23q-2 -77 -4 -119q-2 -35 -11 -45q-10 -14 -36 -14q-12 0 -30 1q-2 14 -6 32q16 -2 33 -3q20 -1 21 31q2 32 3 81l-68 -16v-172h-30v165l-63 -15v-157q0 -33 31 -33h106
q34 0 39 26q5 25 8 60q16 -6 32 -10q-5 -38 -11 -62z" />
    <glyph glyph-name="uniE69F" unicode="&#xe69f;" 
d="M486 452q0 -19 -13.5 -33t-32.5 -14h-328q-19 0 -33 14t-14 33v327q0 20 14 33.5t33 13.5h328q19 0 32.5 -13.5t13.5 -33.5v-327zM967 452q0 -19 -13.5 -33t-33.5 -14h-327q-19 0 -33 14t-14 33v327q0 20 14 33.5t33 13.5h327q20 0 33.5 -13.5t13.5 -33.5v-327zM486 -18
q0 -20 -13.5 -33.5t-32.5 -13.5h-328q-19 0 -33 13.5t-14 33.5v327q0 19 14 33t33 14h328q19 0 32.5 -14t13.5 -33v-327zM920 356h-327q-19 0 -33 -14t-14 -33v-327q0 -20 14 -33.5t33 -13.5h327q20 0 33.5 13.5t13.5 33.5v327q0 19 -13.5 33t-33.5 14zM934 8
q0 -17 -11.5 -28.5t-28.5 -11.5h-275q-16 0 -27.5 11.5t-11.5 28.5v275q0 16 11.5 27.5t27.5 11.5h275q17 0 28.5 -11.5t11.5 -27.5v-275z" />
    </font>
</defs>
</svg>
