<?xml version="1.0" standalone="no"?>
<!DOCTYPE svg PUBLIC "-//W3C//DTD SVG 1.1//EN" "http://www.w3.org/Graphics/SVG/1.1/DTD/svg11.dtd" >
<svg xmlns="http://www.w3.org/2000/svg">
<metadata>
Created by FontForge 20120731 at Wed Jul 19 11:08:22 2017
 By admin
</metadata>
<defs>
<font id="iconfont" horiz-adv-x="1024" >
  <font-face 
    font-family="iconfont"
    font-weight="500"
    font-stretch="normal"
    units-per-em="1024"
    panose-1="2 0 6 3 0 0 0 0 0 0"
    ascent="896"
    descent="-128"
    x-height="792"
    bbox="-0.222222 -252 1277 896"
    underline-thickness="0"
    underline-position="0"
    unicode-range="U+0078-E762"
  />
<missing-glyph 
 />
    <glyph glyph-name=".notdef" 
 />
    <glyph glyph-name=".notdef" 
 />
    <glyph glyph-name=".null" horiz-adv-x="0" 
 />
    <glyph glyph-name="nonmarkingreturn" horiz-adv-x="341" 
 />
    <glyph glyph-name="x" unicode="x" horiz-adv-x="1001" 
d="M281 543q-27 -1 -53 -1h-83q-18 0 -36.5 -6t-32.5 -18.5t-23 -32t-9 -45.5v-76h912v41q0 16 -0.5 30t-0.5 18q0 13 -5 29t-17 29.5t-31.5 22.5t-49.5 9h-133v-97h-438v97zM955 310v-52q0 -23 0.5 -52t0.5 -58t-10.5 -47.5t-26 -30t-33 -16t-31.5 -4.5q-14 -1 -29.5 -0.5
t-29.5 0.5h-32l-45 128h-439l-44 -128h-29h-34q-20 0 -45 1q-25 0 -41 9.5t-25.5 23t-13.5 29.5t-4 30v167h911zM163 247q-12 0 -21 -8.5t-9 -21.5t9 -21.5t21 -8.5q13 0 22 8.5t9 21.5t-9 21.5t-22 8.5zM316 123q-8 -26 -14 -48q-5 -19 -10.5 -37t-7.5 -25t-3 -15t1 -14.5
t9.5 -10.5t21.5 -4h37h67h81h80h64h36q23 0 34 12t2 38q-5 13 -9.5 30.5t-9.5 34.5q-5 19 -11 39h-368zM336 498v228q0 11 2.5 23t10 21.5t20.5 15.5t34 6h188q31 0 51.5 -14.5t20.5 -52.5v-227h-327z" />
    <glyph glyph-name="shezhi" unicode="&#xe600;" 
d="M848 271q47 0 79.5 33t32.5 79.5t-32.5 79t-79.5 32.5h-19q-6 17 -14 33l14 14q33 32 33 78.5t-33 79.5t-79.5 33t-78.5 -33l-14 -14q-16 8 -33 14v19q0 47 -32.5 79.5t-79 32.5t-79.5 -32.5t-33 -79.5v-19q-16 -6 -33 -14l-13 14q-33 33 -79.5 33t-79 -33t-32.5 -79.5
t32 -78.5l14 -14q-8 -16 -13 -33h-20q-46 0 -79 -32.5t-33 -79t33 -79.5t79 -33h20q5 -16 13 -32l-14 -14q-32 -33 -32 -79.5t32.5 -79t79 -32.5t79.5 33l13 13q16 -7 33 -13v-20q0 -46 33 -79t79.5 -33t79 33t32.5 79v20q17 6 33 13l14 -13q32 -33 78.5 -33t79.5 32.5
t33 79t-33 79.5l-14 14q8 16 14 32h19zM789 185q17 -16 17 -39.5t-17 -39.5q-15 -16 -39 -16t-40 16l-43 43l-18 -10q-29 -16 -60 -25l-21 -6v-61q0 -23 -16.5 -39.5t-39.5 -16.5t-39.5 16.5t-16.5 39.5v61l-20 6q-32 9 -60 25l-19 10l-43 -43q-16 -16 -39.5 -16t-39.5 16
t-16 39.5t16 39.5l43 43l-10 19q-16 28 -25 60l-6 20h-61q-23 0 -39.5 16.5t-16.5 40t16.5 39.5t39.5 16h61l6 21q9 32 25 60l10 18l-43 43q-16 17 -16 40t16 40q16 15 39.5 15t39.5 -15l43 -44l19 11q28 15 60 25l20 5v61q0 24 16.5 40t39.5 16t39.5 -16t16.5 -40v-61
l21 -5q32 -10 60 -25l18 -11l43 44q16 15 40 15t39 -15q17 -17 17 -40t-17 -40l-43 -43l11 -18q15 -28 24 -60l6 -21h61q23 0 39.5 -16t16.5 -39.5t-16.5 -40t-39.5 -16.5h-61l-6 -20q-9 -32 -24 -60l-11 -19zM512.5 551q-69.5 0 -119 -49t-49.5 -118.5t49.5 -119t119 -49.5
t118.5 49.5t49 119t-49 118.5t-118.5 49zM512.5 271q-46.5 0 -79.5 33t-33 79.5t33 79t79.5 32.5t79 -32.5t32.5 -79t-32.5 -79.5t-79 -33z" />
    <glyph glyph-name="shezhi1" unicode="&#xe601;" 
d="M960 204l-122 -40l56 -111l-134 -134l-111 56l-39 -123h-190l-39 123l-111 -56l-134 134l55 111l-126 40v190l126 39l-55 111l134 135l111 -56l39 125h190l39 -125l111 56l134 -135l-56 -111l122 -39v-190zM515.5 541q-98.5 0 -168 -70t-69.5 -169t69.5 -168.5t168 -69.5
t168 69.5t69.5 168.5t-69.5 169t-168 70zM515.5 195q-44.5 0 -75.5 31.5t-31 75.5t31 75.5t75.5 31.5t75.5 -31.5t31 -75.5t-31 -75.5t-75.5 -31.5z" />
    <glyph glyph-name="xiazai" unicode="&#xe602;" 
d="M961.5 363q-26.5 0 -45.5 -18.5t-19 -45.5v-384h-769v384q0 27 -18.5 45.5t-45 18.5t-45.5 -18.5t-19 -45.5v-448q0 -27 19 -45.5t45 -18.5h897q27 0 45.5 18.5t18.5 45.5v448q0 27 -18.5 45.5t-45 18.5zM577 363v393q0 23 -19 39.5t-45.5 16.5t-45 -16.5t-18.5 -39.5
v-393h-193l257 -256l256 256h-192z" />
    <glyph glyph-name="sale2" unicode="&#xe620;" 
d="M896 -180h-768q-40 0 -68 28t-28 68v448q0 40 28 68t68 28h64l272 209q-2 8 -2 15q0 26 18.5 45t45 19t45.5 -19t19 -45q0 -16 -9 -31l251 -193h64q40 0 68 -28t28 -68v-448q0 -40 -28 -68t-68 -28zM546 25h129v25h-101v182h-28v-207v0zM362 25l22 63h87l24 -63h31
l-84 207h-30l-79 -207h29zM171 207.5q-9 -13.5 -9 -29.5q0 -14 7.5 -25.5t21.5 -19.5q12 -6 40 -12.5t37 -10.5q13 -5 18.5 -12t5.5 -16.5t-6 -18t-18 -13t-27 -4.5q-18 0 -32 6t-20.5 16t-8.5 26l-26 -2q1 -21 11.5 -37.5t29.5 -24.5t47 -8q22 0 39.5 8t27 22.5t9.5 31
t-8.5 29t-26.5 21.5q-13 5 -46 12.5t-41 15t-8 18.5q0 13 11.5 22t36.5 9q23 0 35.5 -10t14.5 -29l26 2q-1 18 -10.5 32t-26.5 21.5t-40 7.5q-21 0 -38 -7t-26 -20.5zM566 634q-18 -14 -40 -14q-32 0 -52 26l-250 -186h576zM862 50h-127v70h114v24h-114v63h122v25h-149v-207
h154v25v0zM426 210q5 -17 15 -43l21 -57h-70l23 60q7 20 11 40z" />
    <glyph glyph-name="jiantouyou" unicode="&#xe662;" 
d="M228 -153l55 -55l509 508l-509 509l-55 -55l454 -454zM228 -153z" />
    <glyph glyph-name="list" unicode="&#xe64d;" 
d="M40 591h944q16 0 28 12t12 28.5t-12 28.5t-28 12h-944q-16 0 -28 -12t-12 -28.5t12 -28.5t28 -12zM984 322h-944q-16 0 -28 -12t-12 -28.5t12 -28.5t28 -12h944q16 0 28 12t12 28.5t-12 28.5t-28 12zM984 -29h-944q-16 0 -28 -11.5t-12 -28.5t12 -28.5t28 -11.5h944
q16 0 28 11.5t12 28.5t-12 28.5t-28 11.5z" />
    <glyph glyph-name="down-thin" unicode="&#xe62e;" 
d="M846 535l-334 -334l-33 33l334 333zM511 202l-333 332l33 33l333 -332z" />
    <glyph glyph-name="up-thin" unicode="&#xe630;" 
d="M178 233l334 334l33 -33l-334 -333zM513 566l333 -332l-33 -33l-333 332z" />
    <glyph glyph-name="android" unicode="&#xe75f;" 
d="M250 52q0 -26 18 -44.5t43 -18.5h44q-2 -8 -2 -16v-126q0 -24 17 -41.5t41 -17.5t41 17.5t17 41.5v126q0 8 -3 16h108q-3 -8 -3 -16v-126q0 -24 17 -41.5t41 -17.5t41 17.5t17 41.5v126q0 8 -2 16h44q25 0 43 18.5t18 44.5v436h-540v-436v0zM154 488q-24 0 -41 -17.5
t-17 -41.5v-254q0 -25 17 -42.5t41 -17.5t41 17.5t17 42.5v254q0 24 -17 41.5t-41 17.5zM886 488q-24 0 -41 -17.5t-17 -41.5v-254q0 -25 17 -42.5t41 -17.5t41 17.5t17 42.5v254q0 24 -17 41.5t-41 17.5zM653 726l10 17l11 17l24 37q5 8 -3 13.5t-13 -2.5l-26 -40l-10 -17
l-11 -17q-55 22 -115 22t-115 -22l-10 17l-11 17l-26 40q-5 8 -13 2.5t-3 -13.5l24 -37l11 -17l10 -17q-62 -30 -99.5 -82.5t-37.5 -115.5h540q0 63 -37.5 115.5t-99.5 82.5zM404.5 607q-11.5 0 -20 9t-8.5 21t8.5 21t20 9t20 -9t8.5 -21t-8.5 -21t-20 -9zM636 607
q-12 0 -20.5 9t-8.5 21t8.5 21t20.5 9t20 -9t8 -21t-8 -21t-20 -9z" />
    <glyph glyph-name="msnui-v" unicode="&#xe6a4;" 
d="M841 313q-106 -154 -194 -230q-48 -41 -102.5 -70t-100.5 -21q-41 6 -71.5 44.5t-47 91.5t-32 118t-27 123.5t-32 109t-48.5 73.5q-15 4 -29.5 -1t-24.5 -13t-20 -15t-19 -5t-18 15q-10 9 -12.5 19.5t4 23.5t13.5 23.5t23 25t25 22.5t26 22q9 8 14 11q4 4 21.5 19
t24 20.5t23 17.5t26 17t25 12t27.5 8.5t27 0.5t29 -7q41 -16 62 -65.5t27 -111.5t11 -124.5t25 -115.5t59 -75q30 25 55.5 52.5t47.5 62.5t32 76.5t3 84.5q-14 42 -120 18q0 81 81 146q78 61 165 61q96 0 130 -83q9 -23 12 -50q13 -126 -96 -295l-24 -36v0z" />
    <glyph glyph-name="iconfontyoujiantou" unicode="&#xe62f;" 
d="M512 749q-91 0 -174 -35.5t-143.5 -95.5t-96 -143t-35.5 -174t35.5 -174t96 -143t143.5 -95.5t174 -35.5t174 35.5t143 95.5t95.5 143t35.5 174t-35.5 174t-95.5 143t-143 95.5t-174 35.5zM724 281q0 -1 -1 -3q-1 0 -1 -1q-3 -6 -6 -9v0h-1q-1 -2 -2 -3l-262 -252
q-14 -14 -34 -14q-22 0 -36 15q-15 15 -14.5 35.5t15.5 35.5l226 217l-227 215q-15 14 -15.5 34.5t13.5 35.5q15 16 36 16q20 0 35 -14l264 -250q12 -11 15 -27t-5 -31z" />
    <glyph glyph-name="xiugaiziliaoicon" unicode="&#xe64c;" 
d="M887 765h-719q-14 0 -23 -9.5t-9 -22.5v-833q0 -13 9 -22t23 -9h602q13 0 22.5 9t9.5 22v593h85q14 0 23 9.5t9 22.5v208q0 13 -9 22.5t-23 9.5zM856 557h-86q-14 0 -23 -9.5t-9 -22.5v-593h-538v769h656v-144zM287 20h364q5 0 8.5 4t3.5 9t-3.5 9t-8.5 4h-364
q-6 0 -9.5 -4t-3.5 -9t3.5 -9t9.5 -4zM287 145h364q5 0 8.5 4t3.5 9t-3.5 9t-8.5 4h-364q-6 0 -9.5 -4t-3.5 -9t3.5 -9t9.5 -4zM385 484q0 -6 4 -10t10 -4v0q2 -30 22.5 -53t47 -23t47 23t22.5 53h1q5 0 9 4t4 10q0 10 -8 14q4 13 4 27q0 35 -23 60t-56 25t-56.5 -25
t-23.5 -60q0 -14 4 -27q-8 -4 -8 -14zM299 258h339q8 0 8 7v27q0 3 -3 5q-50 49 -115 65q-2 1 -3 1h-4q-2 0 -4 -1q-20 -11 -48.5 -11t-48.5 11q-2 1 -4 1h-2h-2q-67 -16 -118 -66q-2 -2 -2 -5v-27q0 -7 7 -7zM887 446h-56v-258h56q14 0 23 9t9 23v194q0 13 -9 22.5t-23 9.5
zM887 140h-56v-271h56q14 0 23 9t9 22v208q0 14 -9 23t-23 9z" />
    <glyph glyph-name="shoucang" unicode="&#xe639;" 
d="M669 570q61 0 106.5 -39t53.5 -98q11 -81 -46 -141q-86 -88 -256 -259q-4 -3 -9 -3t-8 3q-134 134 -248 249q-45 46 -54 100q-9 50 12.5 95.5t64.5 70.5q38 22 81 22q64 0 111 -44q18 -17 38 -17q16 0 30 8q7 5 20 15q25 16 35 22q33 16 69 16zM669 624q-48 0 -92 -23
q-10 -4 -19.5 -10.5t-22 -15.5t-19.5 -13v0q-2 1 -3 2q-63 59 -147 59q-57 0 -107 -29q-58 -33 -86.5 -94t-16.5 -127q12 -71 69 -128q115 -116 247 -249q19 -19 46 -19t46 19q170 170 257 259q75 78 60 185q-11 80 -72.5 132t-139.5 52v0z" />
    <glyph glyph-name="download" unicode="&#xe628;" 
d="M843 63v0h-659q-10 0 -17.5 -7.5t-7.5 -18t7.5 -18t17.5 -7.5h659v0q11 0 18.5 7.5t7.5 18t-7.5 18t-18.5 7.5zM494 118q8 -8 19 -8v0v0q11 0 19 8l318 318q8 8 8 19t-8 18.5t-18.5 7.5t-18.5 -8l-274 -273v495v0q0 11 -7.5 18.5t-18.5 7.5t-18.5 -7.5t-7.5 -18.5v0v-495
l-274 273q-7 8 -18 8t-18.5 -7.5t-8 -18.5t7.5 -19l318 -318v0z" />
    <glyph glyph-name="icon05" unicode="&#xe650;" 
d="M471 746h62q102 -9 178 -85.5t81 -178.5q10 -104 -59 -192t-172 -105q-77 -17 -154 12t-128.5 93t-57.5 142q-10 74 21.5 144t93 116t135.5 54zM472 489q-19 -13 -46 -19.5t-42 -7.5t-53 -0.5t-45 0.5q3 -89 70.5 -154t155.5 -60q84 0 146.5 63t68.5 148q-8 3 -26 10
t-29 11.5t-23 15t-18 23.5q-1 5 -9.5 28.5t-12.5 33t-13 25.5t-19 28q-2 -4 -10 -19.5t-11 -21.5t-10.5 -19.5t-12 -20t-12.5 -17.5t-14.5 -18t-16 -15t-18.5 -14zM222 62q8 17 15 28.5t18.5 25.5t26 20t31.5 4q207 1 414 0q54 6 90 -78q2 -4 75 -206v-2h-760v1
q65 154 90 207zM208 -110h49h49q7 82 37 218q-35 -19 -58 -55.5t-43 -87.5t-34 -75zM418 102q1 -6 6 -27.5t7 -30.5t7.5 -27.5t10.5 -29t13 -24.5t18 -25q13 -16 34 -17.5t35 13.5q11 11 20 25t14 24.5t11 31t8 27.5t7.5 32t6.5 28q-131 1 -198 0zM687 108q30 -124 35 -218
h94q-3 8 -29.5 76.5t-44.5 102.5q-4 8 -11.5 14.5t-12.5 9.5t-17 8.5t-14 6.5z" />
    <glyph glyph-name="sale3" unicode="&#xe631;" horiz-adv-x="1027" 
d="M931 -162h-836q-39 0 -67 31.5t-28 76.5v414q0 44 28 76t67 32h836q40 0 67.5 -32t27.5 -76v-414q0 -45 -27.5 -76.5t-67.5 -31.5zM95 438q-27 0 -46 -23t-19 -55v-414q0 -33 19 -55.5t46 -22.5h836q27 0 46 22.5t19 55.5v414q0 32 -19 55t-46 23h-836zM284 62
q0 -31 -23.5 -49t-64.5 -18t-64 19t-23 47v9h38v-8q0 -20 14.5 -31t34.5 -11q26 0 38.5 11.5t12.5 28.5q0 13 -15 24.5t-43 20.5q-39 13 -56 27.5t-17 34.5q0 29 23.5 46.5t56.5 17.5q42 0 61 -21t19 -45h-38q2 15 -9.5 27t-32.5 12q-20 0 -31.5 -9t-11.5 -24q0 -12 9 -20.5
t47 -20.5q36 -12 55.5 -29t19.5 -39zM505 -2h-39l-23 71h-72l-23 -71h-39l81 233h33zM435 95l-27 82h-3l-26 -82h56zM703 -2h-170v230h37v-205h133v-25zM912 -2h-167v230h159v-26h-121v-71h111v-26h-111v-82h129v-25zM974 419l-461 314l-460 -314l-17 25l477 325l477 -325z
M560 750.5q0 -19.5 -14 -33t-33 -13.5t-32.5 13.5t-13.5 33t13.5 33t32.5 13.5t33 -13.5t14 -33zM513.5 689q-25.5 0 -43.5 18t-18 43.5t18 43.5t43.5 18t43.5 -18t18 -43.5t-18 -43.5t-43.5 -18zM513 782q-13 0 -22.5 -9t-9.5 -22.5t9.5 -22.5t22.5 -9t22.5 9t9.5 22.5
t-9.5 22.5t-22.5 9z" />
    <glyph glyph-name="shangchuantupian" unicode="&#xe643;" 
d="M885 748h-746q-31 0 -53 -22t-22 -53v-746q0 -31 22 -53t53 -22h746q31 0 53 22t22 53v746q0 31 -22 53t-53 22zM681 562q39 0 66 -27.5t27 -66t-27 -66t-66 -27.5t-66 27.5t-27 66t27 66t66 27.5zM755 39h-486q-30 0 -45.5 20.5t-6.5 50.5l95 299q9 29 29 32.5t38 -21.5
l157 -213q18 -24 45 -24.5t45 23.5l48 61q19 25 40.5 21.5t32.5 -32.5l56 -148q11 -28 -3.5 -48.5t-44.5 -20.5z" />
    <glyph glyph-name="xiazai1" unicode="&#xe642;" 
d="M785 315q-10 24 -37 24h-472q-27 0 -37 -24t9 -43l236 -236q12 -12 28 -12t28 12l236 236q19 19 9 43zM512 812q-33 0 -56 -23t-23 -56v-394q0 -32 23 -55t56 -23t56 23t23 55v394q0 33 -23 56t-56 23zM945 -54h-866q-33 0 -56 -23.5t-23 -56t23 -55.5t56 -23h866
q33 0 56 23t23 55.5t-23 56t-56 23.5z" />
    <glyph glyph-name="ios" unicode="&#xe762;" 
d="M929 61q-27 -82 -71 -146q-21 -30 -34 -46.5t-33.5 -38t-42.5 -31t-47 -10.5q-33 0 -81 20.5t-88 20.5q-41 0 -89.5 -20.5t-78.5 -21.5q-23 -1 -46 9.5t-44.5 32.5t-36 40t-34.5 48q-34 49 -60 112.5t-39.5 133t-5.5 141.5t40 127q34 59 90.5 93.5t121.5 35.5
q36 1 94 -21.5t74 -22.5t49 13.5t73 25t75 8.5q17 -1 36 -5t46.5 -13.5t55.5 -31t49 -52.5q-112 -75 -111 -194q1 -44 15.5 -81.5t32.5 -58.5t41.5 -38.5t33 -22t15.5 -6.5zM662 647q29 34 43.5 77t10.5 87q-39 -2 -81 -23.5t-70 -54.5q-28 -32 -44 -74.5t-10 -83.5
q41 -3 82 17.5t69 54.5v0z" />
    <glyph glyph-name="shape3" unicode="&#xe627;" 
d="M841 239l-302 -449q-10 -14 -27 -14v0q-17 0 -26 14l-302 448q-56 89 -56 192q0 100 51.5 185.5t140 135t192.5 49.5t192.5 -49.5t140 -135t51.5 -185.5q0 -103 -55 -191zM512 736q-87 0 -160.5 -41t-116.5 -111.5t-43 -153.5q0 -85 46 -158l274 -407l275 409
q45 71 45 156q0 83 -43 153.5t-116.5 111.5t-160.5 41zM512 255q-75 0 -128.5 52t-53.5 124.5t53.5 124t128.5 51.5t128.5 -51.5t53.5 -124t-53.5 -124.5t-128.5 -52zM512 543q-49 0 -83.5 -32.5t-34.5 -79t34.5 -79.5t83.5 -33t83.5 33t34.5 79.5t-34.5 79t-83.5 32.5z" />
    <glyph glyph-name="dingwei" unicode="&#xe61c;" 
d="M512 588q-66 0 -113 -47t-47 -113t47 -113t113 -47t113 47t47 113t-47 113t-113 47zM512 332q-40 0 -68 28t-28 68t28 68t68 28t68 -28t28 -68t-28 -68t-68 -28zM512 812q-104 0 -192.5 -51.5t-140 -140t-51.5 -192.5q0 -57 51 -167.5t117 -213.5t129.5 -181t86.5 -78
t86.5 78t129 181.5t117 214t51.5 166.5q0 104 -51.5 192.5t-140 140t-192.5 51.5zM512 -116q-19 0 -72 66.5t-108 154.5t-97.5 182t-42.5 141q0 87 43 160.5t116.5 116.5t160.5 43t160.5 -43t116.5 -116.5t43 -160.5q0 -47 -42.5 -140.5t-97.5 -181.5t-108 -155t-72 -67z
" />
    <glyph glyph-name="xiugaimimaicon" unicode="&#xe651;" 
d="M542 744h-59q-90 0 -154 -60t-64 -145v-63h88v51q0 52 39 89t94 37h52q55 0 94.5 -37t39.5 -89v-51h87v63q0 85 -64 145t-153 60zM818 417h-612q-33 0 -56.5 -23.5t-23.5 -56.5v-402q0 -34 23.5 -57.5t56.5 -23.5h612q33 0 56.5 23.5t23.5 57.5v402q0 33 -23.5 56.5
t-56.5 23.5zM306 52q-32 0 -54.5 22.5t-22.5 54.5t22.5 55t54.5 23t55 -23t23 -55t-23 -54.5t-55 -22.5zM519 52q-32 0 -55 22.5t-23 54.5t23 55t55 23t54.5 -23t22.5 -55t-22.5 -54.5t-54.5 -22.5zM731 52q-32 0 -54.5 22.5t-22.5 54.5t22.5 55t54.5 23t54.5 -23t22.5 -55
t-22.5 -54.5t-54.5 -22.5z" />
    <glyph glyph-name="taobaozhongchou4qizuoyoujiantou" unicode="&#xe60d;" 
d="M741 385l-449 449v-119l330 -330l-330 -330v-119zM741 385z" />
    <glyph glyph-name="taobaozhongchou4qizuojiantou" unicode="&#xe60e;" 
d="M293 385l448 -449v119l-329 330l329 329v119l-448 -448v0zM293 385z" />
    <glyph glyph-name="sale4" unicode="&#xe632;" horiz-adv-x="1042" 
d="M935 491h-76l-245 174q3 11 3 19q0 40 -29 69t-69.5 29t-69 -29t-28.5 -69q0 -9 3 -21l-241 -172h-77q-44 0 -75 -31t-31 -75v-444q0 -44 31 -75.5t75 -31.5h829q44 0 75 31.5t31 75.5v444q0 44 -31 75t-75 31zM519 720q15 0 25.5 -10.5t10.5 -25.5t-10.5 -26t-25.5 -11
t-26 11t-11 26t11 25.5t26 10.5zM455 609q28 -23 64 -23q37 0 65 25l168 -120h-463zM979 -59q0 -19 -13 -32t-31 -13h-829q-18 0 -31 13t-13 32v444q0 19 13 32t31 13h829q18 0 31 -13t13 -32v-444zM330 169q-10 15 -30 24q-13 6 -47 14q-31 7 -37 13q-5 4 -5 11q0 9 8 16
q9 7 30 7t31 -8q9 -8 11 -24l1 -8l42 3v8q-1 20 -12 37q-11 16 -30 25q-19 8 -44 8q-22 0 -40 -8q-20 -8 -30 -24q-10 -15 -10 -33q0 -16 8 -30q9 -14 25 -22q13 -7 42 -14q26 -6 35 -9q11 -5 15 -10t4 -12t-4 -13q-4 -5 -14 -9q-11 -4 -24 -4q-16 0 -28 5t-17.5 13t-6.5 22
l-1 8l-42 -4v-7q1 -23 13 -41.5t33 -27.5t50 -9q24 0 43 9q20 9 30.5 25t10.5 36q0 18 -10 33zM594 291h-44v-220l-90 220h-41l-85 -222h47l22 63h75l23 -63h194v41h-101v181zM417 170l19 49q2 7 4 13q2 -8 5 -16l18 -46h-46zM881 110h-126v53h113v41h-113v47h121v40h-165
v-221h170v32v8z" />
    <glyph glyph-name="icon4" unicode="&#xe61d;" 
d="M72 400v57q6 13 29 24q197 90 396 181q16 7 29 1q120 -55 409 -187q18 -8 18 -27v-41q-1 -25 -27 -25h-30v-9v-185v-206q0 -38 -33 -51q-8 -3 -16 -3.5t-19.5 0t-16.5 -0.5v341h-597v-341h-37q-21 2 -35 18q-13 15 -13 40v387v10h-24q-24 -3 -33 17zM285 382v0h62
q10 0 10 10q-1 16 0 39q0 9 -10 9q-63 -1 -124 0q-9 0 -9 -9q1 -25 0 -38q0 -11 11 -11h60zM739 382h62q10 0 10 10v38q0 10 -9 10q-68 -1 -124 0q-10 0 -9 -11v-36q-1 -11 11 -11h59zM513 382h61q10 0 10 9v39q0 10 -9 10q-71 -1 -124 0q-10 0 -10 -10q1 -22 0 -37
q0 -11 11 -11h61zM249 210h527v-55h-527v55zM249 123h527v-55h-527v55zM249 36h527v-55h-527v55z" />
    <glyph glyph-name="dingwei1" unicode="&#xe618;" 
d="M512.5 355q-47.5 0 -81.5 34t-34 82t34 82.5t81.5 34.5t81.5 -34.5t34 -82.5t-34 -82t-81.5 -34zM512.5 556q-34.5 0 -59 -25t-24.5 -60t24.5 -59.5t59 -24.5t59 24.5t24.5 59.5t-24.5 60t-59 25zM512 -53l-12 15q-13 15 -31.5 38.5t-62 86t-76.5 120.5t-59.5 129.5
t-26.5 125.5q0 116 78.5 198.5t190.5 82.5q110 0 189 -82.5t79 -198.5q1 -54 -26 -125.5t-60 -129.5t-76.5 -120t-62.5 -86t-32 -39zM513 711q-99 0 -168.5 -73t-69.5 -176q0 -55 28.5 -127.5t73.5 -143.5t75.5 -114.5t59.5 -79.5q29 36 60 79.5t76 114.5t73.5 143.5
t28.5 127.5q-1 103 -70.5 176t-166.5 73zM705 157v-31h63l64 -237h-634l63 237h48v31h-79l-79 -300h728l-79 300h-95z" />
    <glyph glyph-name="dingwei2" unicode="&#xe648;" 
d="M513 670q-115 0 -196 -81.5t-81 -195.5q0 -43 28.5 -106.5t69 -123.5t81.5 -113.5t70 -86.5l28 -33q11 13 30 34.5t66.5 83t84 117t66.5 120.5t30 108q0 114 -81 195.5t-196 81.5v0zM513 254q-57 0 -98 40.5t-41 98t41 98t98.5 40.5t98 -40.5t40.5 -98t-40.5 -98
t-98.5 -40.5v0z" />
    <glyph glyph-name="xuehua" unicode="&#xe656;" 
d="M949 537v-6l-1 -2q-2 -14 -17 -23q-9 -5 -49 -28l-5 -3l4 -2q31 -8 32 -9q11 -3 17 -14t2 -23q-3 -12 -13 -18t-22 -4q-5 2 -53 14q-2 1 -39 11q1 -3 4 -4q50 -34 65 -44q15 -9 15 -25q1 -18 -14 -28q-16 -9 -32 1q-4 2 -31 20l-30 20t-37 24q-4 3 -6 0q15 -17 16 -18
q11 -12 8 -27q-4 -19 -22 -23q-17 -5 -30 8q-15 15 -24 25q-4 4 -8 1q-2 -1 -45 -26l-4 -2q0 -1 1 -2h5h34q12 0 20.5 -9t8.5 -21.5t-8.5 -21.5t-20.5 -9h-17.5h-17.5h-5q2 -3 4 -4q40 -23 44 -26q5 -3 9 2q12 13 25 25q17 17 37 5q9 -6 13 -16t0 -19q-2 -5 -12 -18
q0 -1 -12 -13l0.5 -0.5t0.5 -1.5l6 3q55 35 95 62q15 10 30 4q17 -7 19 -25t-14 -29q-10 -7 -21 -14t-24.5 -16t-20.5 -14l-4 -3q2 -1 5 0q74 20 84 22q7 2 11 2q11 -1 19.5 -9t8.5 -19q1 -11 -5 -20.5t-18 -12.5q-5 -1 -14.5 -3.5t-12.5 -3.5l-7 -2l6 -4q38 -21 50 -28
q13 -8 16 -22l1 -3v-6l-1 -1q-2 -17 -17 -23.5t-31 2.5q-4 3 -48 28q-1 0 -6 3l1 -6q6 -21 7 -27q3 -10 0 -19q-7 -21 -30 -21q-23 1 -29 24q-4 16 -12 45.5t-10 38.5l-2 6l-1 -3q-5 -72 -5 -83q-1 -12 -10 -21t-21 -9q-13 1 -21.5 9.5t-8.5 21.5q0 10 1 29q1 12 3 42.5
t3 47.5l-2 5h-1.5h-0.5q-6 -21 -7 -23q-3 -10 -11 -17q-17 -12 -35 0q-18 11 -13 32q4 14 10 36q2 5 -2 7q-1 0 -47 27l-5 2q3 -6 4 -6q14 -26 15 -28q5 -9 5 -16q1 -10 -5 -18.5t-16 -11.5q-23 -7 -35 13l-18 30l-3 5v-3q-1 -54 -1 -56q0 -4 5 -5q30 -7 36 -9q11 -3 17 -13
t4 -22q-2 -11 -10.5 -18t-19.5 -7q-2 1 -19 4q-1 0 -12 3q0 -1 -1 -2l5 -4q18 -10 52 -27l50 -25q24 -12 17 -36q-4 -14 -17 -19.5t-27 0.5l-70 35q0 1 -5 3q0 -3 3 -6l61 -61q9 -10 9 -22t-9 -21.5t-21.5 -9.5t-21.5 10q-4 4 -11.5 11t-8.5 9q-1 0 -6 4v-6v-58
q0 -25 -22 -31l-6 -2h-5l-1 1q-15 4 -21 12t-6 24v54v6l-5 -4l-21 -21q-11 -11 -26.5 -8t-22.5 16q-10 20 7 37q12 12 33.5 33t27.5 28l3 4q-2 0 -6 -2l-70 -35q-11 -5 -22 -2.5t-17 12.5q-8 12 -4.5 25.5t16.5 19.5q6 3 87 44q14 7 17 8q0 1 3 5l-0.5 0.5l-0.5 0.5
q-19 -5 -20 -5q-12 -2 -17 -1q-11 2 -17.5 10.5t-6.5 18.5q-1 11 6 19.5t17 11.5q18 4 34 8q5 1 5 6v53l-1 5l-3 -5q0 -1 -6.5 -12t-10.5 -17q-10 -17 -28 -15q-18 1 -25.5 16t1.5 30q2 5 5 9.5t6 10.5t5 9l3 4q-3 1 -5 -1q-42 -24 -46 -26t-3 -7q6 -20 10 -35q3 -12 -3 -23
t-18 -14.5t-23 2.5t-15 19q-1 2 -2.5 8.5t-2.5 10.5l-3 4q-2 -5 -2 -6q0 -5 1 -29l3 -40q2 -43 2 -50q1 -12 -8 -20.5t-21 -9.5q-12 0 -21.5 8.5t-9.5 19.5q-1 8 -2 27t-1 30q-1 1 -3 29l-0.5 0.5l-0.5 0.5q-5 -18 -5 -19q-19 -69 -19 -72q-4 -12 -14.5 -18t-22.5 -3
t-18.5 13.5t-3.5 22.5l3 15q1 1 6 21l-6 -3q-50 -28 -51 -29q-14 -8 -28 -2t-17 22q-1 0 -2 3v6l1 2q3 15 18 23q9 5 48 28q1 1 6 4l-4 1q-31 9 -33 9q-11 4 -16.5 14.5t-2.5 22.5t13.5 18.5t21.5 3.5q6 -1 53 -14q3 -1 39 -10q-1 2 -4 4q-50 33 -65 43q-14 10 -15 25
q-1 19 15 28q16 10 32 0q4 -3 33 -22q7 -5 29.5 -20l34.5 -23q5 -3 7 1l-17 17q-11 12 -8 28q4 18 21.5 23t30.5 -8q15 -15 25 -26q3 -4 8 -1q1 1 45 26l3 3v1h-6h-33q-12 0 -21 9t-9 21.5t9 21.5t21 9h17h17l5 1q-1 2 -3 3q-42 24 -45 26q-5 3 -8 -1l-26 -26
q-16 -16 -37 -4q-19 11 -13 34q2 8 12 18q1 1 12 13l-0.5 1l-0.5 1l-6 -2q-56 -37 -95 -63q-15 -10 -30 -4q-17 7 -19 25q-2 19 14 30q13 8 38 24.5t29 19.5l4 3q-3 0 -6 -1q-74 -20 -83 -22q-7 -2 -12 -1q-11 1 -19 8.5t-9 18.5q-1 12 5.5 21t17.5 12q5 2 14.5 4.5
t12.5 2.5q1 0 7 3l-6 3q-36 21 -50 29q-13 8 -16 22l-1 2v6l1 2q2 16 17.5 23t31.5 -3q4 -2 47 -27q1 -1 7 -4q-2 6 -2 7q-5 20 -7 26q-3 10 0 19q7 22 31 21q22 0 28 -23q5 -17 13 -47.5t10 -37.5l2 -5l1 2q0 7 1 25.5t2 28.5q2 29 2 33q2 12 11.5 19.5t20.5 6.5
q13 -1 21 -9.5t8 -21.5q-1 -12 -3 -45q0 -7 -1 -21t-1 -18q-2 -22 -2 -35l2 -4l2 3q2 4 3.5 10.5t2.5 9.5q4 12 15 18t23 3q12 -4 18 -15t3 -23q-3 -11 -10 -35q-1 -4 3 -6q7 -4 14.5 -8.5t17 -10t15.5 -8.5l3 -2v2q-16 28 -18 31q-4 9 -5 16q0 11 6 19t16 11q22 7 35 -13
l17 -30l3 -5l1 4v55t-4 5q-30 7 -37 9q-12 4 -18 15.5t-2 23.5t15 17.5t24 2.5q1 0 21 -5l1 1l-3 4l-24 12l-80 40q-24 12 -16 37q4 14 17 19.5t27 -1.5l70 -35l5 -2q-1 2 -4 5l-61 61q-9 10 -9 22.5t9 21.5t21.5 9t22.5 -10q4 -3 10.5 -9.5t8.5 -9.5l6 -5v7v57q0 25 22 31
q1 0 6 2h5q1 -1 2 -1q14 -4 20 -12t6 -23q0 -47 1 -55v-5h1l24 24q13 13 30 8t21 -22t-8 -30l-61 -61l-4 -4q0 -1 1 -1l5 2q55 28 69 35q11 5 22 3q21 -5 23 -24q4 -23 -16 -33q-2 -1 -30 -16q-57 -28 -73 -36q-1 0 -5 -5q1 0 1 -1q19 4 20 5q12 1 18 0q10 -2 17 -10t7 -19
t-7 -19.5t-18 -10.5q-20 -6 -33 -9q-5 -1 -5 -5q1 -11 1 -31.5v-22.5v-5q3 5 3 6q16 27 17 29q11 17 30 14q17 -2 24 -16.5t-1 -29.5q-4 -6 -9.5 -16t-7.5 -13l-2 -5l2 1q46 26 49.5 28t1.5 7q-8 30 -10 35q-5 21 13 33q13 9 27.5 3t19.5 -22q0 -1 6 -21l1 -0.5l1 -0.5l2 5
q0 2 -0.5 3.5t-0.5 3.5v3q-1 18 -2 43q-4 60 -4 67q-1 12 7 20t20 10q11 1 20.5 -5.5t12.5 -17.5q1 -5 2 -20q0 -11 1.5 -31.5t1.5 -28.5q0 -1 1 -11q3 6 6 18q19 68 20 73q6 22 32 21q9 0 17 -7t10 -17q1 -7 -2 -19q0 -3 -8 -30l6 3q50 29 52 30q14 8 27.5 1.5t17.5 -22.5z
" />
    <glyph glyph-name="mima" unicode="&#xe744;" 
d="M680 375h-336v111q0 15 2 32.5t12 47t26.5 52t50 39.5t78 17t77.5 -17t49.5 -39.5t26.5 -52t12 -46.5t2 -32v-112v0zM546 86v-122h-68v122q-33 22 -33 65q0 31 19.5 52.5t47.5 21.5t47.5 -21.5t19.5 -52.5q0 -43 -33 -65zM747 375v112q0 5 -0.5 14.5t-5 37t-12.5 52
t-25.5 54.5t-41.5 52t-63 36.5t-87 14.5t-87 -14t-63 -37.5t-41.5 -51t-25.5 -55.5t-12.5 -51t-5 -37.5l-0.5 -14.5v-112h-101v-524h672v524h-101z" />
    <glyph glyph-name="jiejuefangan" unicode="&#xe62a;" 
d="M478 65h-251v674h623v-302q4 1 11 2t23.5 -4t25.5 -18v306q0 29 -22.5 51.5t-51.5 22.5h-595q-29 0 -51.5 -22.5t-22.5 -51.5v-644q0 -30 22.5 -52.5t51.5 -22.5h257q-11 12 -16 27.5t-5 24.5l1 9v0zM714 392q-80 0 -136.5 -57t-56.5 -137t56.5 -136.5t136.5 -56.5
t137 56.5t57 136.5t-57 137t-137 57zM682 100l-95 96l36 36l59 -59l123 123l37 -36zM339 359v0q-8 0 -13 5.5t-5 12.5t5 12.5t13 5.5h179q7 0 12.5 -5.5t5.5 -12.5t-5.5 -12.5t-12.5 -5.5h-179v0v0v0zM339 241v0q-8 0 -13 5.5t-5 13t5 13t13 5.5h97q7 0 12.5 -5.5t5.5 -13
t-5.5 -13t-12.5 -5.5h-97v0v0v0zM339 476v0q-8 0 -13 5.5t-5 13t5 12.5t13 5h295q7 0 12.5 -5t5.5 -12.5t-5.5 -13t-12.5 -5.5h-295v0v0v0zM339 593v0q-8 0 -13 5.5t-5 13t5 13t13 5.5h387q7 0 12.5 -5.5t5.5 -13t-5.5 -13t-12.5 -5.5h-387v0v0v0z" />
    <glyph glyph-name="jiejuefangan1" unicode="&#xe649;" 
d="M738.5 332q-65.5 0 -112 -46.5t-46.5 -112t46.5 -112t112 -46.5t111.5 46.5t46 112t-46 112t-111.5 46.5zM832 212l-115 -114q-6 -6 -14 -6t-14 6l-47 46q-6 6 -6 14.5t6 14.5t14.5 6t14.5 -6l32 -32l100 100q6 6 14.5 6t14.5 -6t6 -14.5t-6 -14.5v0zM910 723
q0 29 -22.5 51.5t-51.5 22.5h-595q-29 0 -51.5 -22.5t-22.5 -51.5v-644q0 -30 22.5 -52.5t51.5 -22.5h306h2q12 0 21 9t9 22q0 12 -8.5 20.5t-20.5 9.5v0h-323v674h623v-376v-2v-2v0v0q0 -12 9 -20t21 -8t20.5 8.5t9.5 20.5v0v363zM536 353q0 7 -5.5 12.5t-12.5 5.5h-174
q-7 0 -12.5 -5.5t-5.5 -12.5t5.5 -12.5t12.5 -5.5h174q7 0 12.5 5.5t5.5 12.5zM344 257q-7 0 -12.5 -5t-5.5 -12.5t5.5 -13t12.5 -5.5h92q7 0 12.5 5.5t5.5 13t-5.5 12.5t-12.5 5h-92zM634 485h-290q-7 0 -12.5 -5.5t-5.5 -13t5.5 -12.5t12.5 -5h290q7 0 12.5 5t5.5 12.5
t-5.5 13t-12.5 5.5zM724 599h-380q-7 0 -12.5 -5.5t-5.5 -13t5.5 -12.5t12.5 -5h380q7 0 12.5 5t5.5 12.5t-5.5 13t-12.5 5.5z" />
    <glyph glyph-name="moxing" unicode="&#xe674;" 
d="M870 755l-384 141q-32 0 -44 -6l-397 -135q-45 -22 -45 -64v-505q0 -39 38 -58l404 -198q28 -10 57 0l378 198q32 21 32 58v512q0 38 -39 57zM563 173h-64v358l128 58l83 -141zM736 403l141 -237h-263zM211 448l83 141l141 -58v-358h-70q-51 83 -154 275zM314 173h-276
l148 237q6 -13 22 -42t22 -42q15 -26 42.5 -78t41.5 -75zM557 698l45 -77l-141 -58l-147 58l44 77h199zM384 768l77 96l70 -96h-147zM294 627l-166 71h211zM275 595l-77 -128q-29 51 -115 205zM435 154v-116q-5 8 -25 43.5t-39 65.5zM499 154h51l-51 -103v103zM646 595
l186 77l-109 -205zM621 627l-39 71h205zM557 768l-77 102l301 -108zM365 768h-224l307 102zM19 704q26 -51 154 -275l-154 -250v525zM326 154q39 -64 52 -90q42 -77 64 -109l-404 199h288zM595 154h282l-391 -199zM742 429l148 275v0v-518z" />
    <glyph glyph-name="woyaomaihuo" unicode="&#xe605;" 
d="M1000 469q0 -50 -35 -85t-85 -35t-85 35t-35 85q0 -50 -35 -85t-85 -35t-85 35t-35 85q0 -50 -35 -85t-84.5 -35t-85 35t-35.5 85q0 -50 -35 -85t-84.5 -35t-84.5 35t-35 85l84 225h791zM850 739h-659q-19 0 -32 13t-13 31.5t13 31.5t32 13h659q19 0 32 -13t13 -31.5
t-13 -31.5t-32 -13zM176 305v0q6 0 12 1q1 0 2 0.5l1 0.5q1 0 3 0.5t3 0.5q14 3 24 7v0v-221h599v221q10 -4 24 -7q1 0 3 -0.5l2 -0.5q1 0 2 -0.5l1 -0.5q7 -1 13 -1v0q7 -1 15 -1q14 0 30 3v-303q0 -18 -13 -31.5t-32 -13.5h-689q-19 0 -32 13.5t-13 31.5v303q15 -3 30 -3
q7 0 15 1z" />
    <glyph glyph-name="gongjuweixiu" unicode="&#xe61b;" 
d="M870 260q-33 32 -78 39.5t-85 -11.5l-113 113l113 113q40 -20 85.5 -12.5t77.5 39.5v0q31 32 39 75t-10 83l-7 17l-70 -70l-44 6l-5 43l70 70l-17 8q-41 18 -86 8.5t-76 -42.5q-29 -32 -36 -76t12 -83l-113 -113l-113 113q19 39 12.5 83t-36.5 76q-30 33 -75 42.5
t-86 -8.5l-17 -8l70 -70l-6 -43l-43 -6l-70 70l-8 -17q-18 -41 -8.5 -86t42.5 -75q32 -30 76 -36.5t83 12.5l113 -113l-113 -113q-39 19 -83 12t-76 -36q-33 -31 -42.5 -76t8.5 -86l8 -17l70 70l43 -5l6 -44l-70 -70l17 -7q43 -19 89.5 -8.5t76.5 47.5q27 31 32 73.5
t-13 79.5l113 113l113 -113q-18 -37 -12.5 -79.5t31.5 -73.5q31 -37 77.5 -47.5t89.5 8.5l17 7l-70 70l5 44l44 5l70 -70l7 17q18 41 10 84t-39 74v0zM344 540q-33 -20 -67.5 -14.5t-61 24.5t-39.5 52.5t-4 68.5l52 -51l75 9l9 75l-51 52q35 9 68.5 -4t52.5 -39.5t24.5 -61
t-14.5 -67.5l-5 -8l127 -126l-32 -32l-126 127zM383 226l5 -9q20 -33 14.5 -67.5t-24.5 -61t-52.5 -39.5t-68.5 -4l51 52l-9 75l-75 10l-52 -52q-9 36 4 69.5t39.5 52t61 24.5t67.5 -14l8 -5l319 319l-4 8q-21 33 -15 67.5t24.5 61t52.5 39.5t69 4l-52 -52l10 -75l75 -9
l52 51q9 -35 -4 -68.5t-39.5 -52.5t-61 -24.5t-67.5 14.5l-9 5l-159 -160l-33 -33v0zM883 130l-52 52l-75 -10l-10 -75l52 -52q-35 -9 -69 4t-52.5 39.5t-24.5 61t15 67.5l4 9l-126 126l16 15l15 16l126 -126l9 4q33 21 67.5 15t61 -24.5t39.5 -52t4 -69.5z" />
    <glyph glyph-name="icon33fangdajing" unicode="&#xe625;" 
d="M599.5 832q-95.5 0 -176.5 -47t-128 -128t-47 -177q0 -116 69 -210l-226 -222q-20 -19 -20 -46t18 -46q20 -20 47 -20t46 19l232 227q85 -53 185 -53q96 0 177 47t128 128t47 176.5t-47 176.5t-128 128t-176.5 47zM599 191q-120 0 -204.5 84.5t-84.5 204.5t84.5 205
t204.5 85t205 -85t85 -205t-85 -204.5t-205 -84.5zM599.5 726q-101.5 0 -173.5 -72t-72 -173.5t72 -173.5t173.5 -72t173 72t71.5 173.5t-71.5 173.5t-173 72zM764 454h-1h-1q-13 0 -22.5 9t-9.5 22q-3 54 -48.5 89.5t-106.5 32.5q-14 -1 -24 8t-10.5 22.5t8.5 23.5t22 11
q88 4 153 -48q67 -54 71 -135q1 -14 -8.5 -24t-22.5 -11z" />
    <glyph glyph-name="1121212" unicode="&#xe617;" 
d="M191 5h5v-22h13v22h5q2 0 3 1.5t0 2.5l-11 21q-1 2 -3.5 2t-3.5 -2l-11 -21q-1 -1 0 -2.5t3 -1.5zM230 5h5v-22h13v22h5q2 0 3 1.5t0 2.5l-11 21q-1 2 -3.5 2t-3.5 -2l-11 -21q-1 -1 0 -2.5t3 -1.5zM187 -26h69v-13h-69v13zM294 -9v-20l-9 -1v-9h29v9v0l-10 1v20
q12 2 12 16v26h-34v-26q0 -14 12 -16zM446 5h5v-22h14v22h4q2 0 3 1.5t1 2.5l-12 21q-1 2 -3.5 2t-3.5 -2l-11 -21q-1 -1 0.5 -2.5t2.5 -1.5zM485 5h5v-22h14v22h4q2 0 3 1.5t1 2.5l-12 21q-1 2 -3.5 2t-3.5 -2l-11 -21q-1 -1 0 -2.5t3 -1.5zM443 -26h69v-13h-69v13zM550 -9
v-20l-10 -1v-9h29v9h1l-11 1v20q13 2 13 16v26h-34v-26q0 -14 12 -16zM702 5h4v-22h14v22h5q2 0 3 1.5t0 2.5l-11 21q-1 2 -3.5 2t-3.5 -2l-12 -21q0 -1 1 -2.5t3 -1.5zM738 6.5q1 -1.5 3 -1.5h4v-22h14v22h5q1 0 2.5 1.5t0.5 2.5l-11 21q-1 2 -3.5 2t-3.5 -2l-12 -21
q0 -1 1 -2.5zM698 -26h69v-13h-69v13zM805 -9v-20l-9 -1v-9h28v9h1l-10 1v20q12 2 12 16v26h-34v-26q0 -14 12 -16zM319 259h4v-22h14v22h5q1 0 2.5 1.5t0.5 3.5l-11 20q-1 3 -3.5 3t-3.5 -3l-12 -20q0 -2 1 -3.5t3 -1.5zM358 259h4v-22h14v22h5q1 0 2.5 1.5t0.5 3.5l-12 20
q0 3 -2.5 3t-3.5 -3l-12 -20q0 -2 1 -3.5t3 -1.5zM315 229h69v-14h-69v14zM410 261q0 -14 12 -16v-20h-9v-10h28v10h1h-10v20q12 2 12 16v26h-34v-26zM518 436h-268v-255h-127v-267h778v267h-127v255h-256zM530 411h88v-51h43v51h89v-219h-220v219zM274 411h88v-51h44v51h88
v-219h-220v219zM366 -62h-219v219h88v-52h43v52h88v-219zM622 -62h-220v219h88v-52h44v52h88v-219zM789 157h88v-219h-219v219h87v-52h44v52zM574 259h5v-22h13v22h5q2 0 3 1.5t0 3.5l-11 20q-1 3 -3.5 3t-3.5 -3l-11 -20q-1 -2 0 -3.5t3 -1.5zM613 259h5v-22h13v22h5
q2 0 3 1.5t0 3.5l-11 20q-1 3 -3.5 3t-3.5 -3l-11 -20q-1 -2 0 -3.5t3 -1.5zM570 229h70v-14h-70v14zM665 261q0 -14 13 -16v-20h-10v-10h29v10v0h-10v20q12 2 12 16v26h-34v-26zM0 614v-700h67v563h890v-563h67v700l-512 240l-512 -240v0zM901 534h-778v27h778v-27z
M791 607h-558v27h558v-27zM681 679h-338v27h338v-27z" />
    <glyph glyph-name="mima1" unicode="&#xe638;" 
d="M513 305q-11 0 -19 -7.5t-8 -18.5v-105q0 -11 8 -19t19 -8t18.5 8t7.5 19v105q0 11 -7.5 18.5t-18.5 7.5zM778 515h-16v66q0 103 -73 176.5t-176.5 73.5t-176.5 -73.5t-73 -176.5v-66h-16q-64 0 -109.5 -45t-45.5 -110v-268q0 -64 45.5 -109.5t109.5 -45.5h531
q64 0 109.5 45.5t45.5 109.5v268q0 65 -45.5 110t-109.5 45zM342 581q0 71 50 121t120.5 50t121 -50t50.5 -121v-66h-342v66zM854 92q0 -32 -22 -54t-54 -22h-531q-32 0 -54 22t-22 54v268q0 32 22 54t54 22h531q32 0 54 -22t22 -54v-268z" />
    <glyph glyph-name="sale" unicode="&#xe622;" 
d="M870 -37h-716q-37 0 -63.5 25.5t-26.5 62.5v410q0 37 26.5 62.5t63.5 25.5h60l253 191q-2 8 -2 15q0 24 17.5 41t42.5 17t42 -17t17 -41q0 -15 -8 -29l234 -177h60q37 0 63.5 -25.5t26.5 -62.5v-410q0 -37 -26.5 -62.5t-63.5 -25.5zM544 151h120v22h-95v167h-25v-189z
M372 151l21 57h81l22 -57h29l-79 189h-27l-74 -189h27zM194 317.5q-8 -12.5 -8 -26.5q0 -13 6.5 -23.5t20.5 -17.5q11 -6 37 -12t34 -9q12 -5 17.5 -11.5t5.5 -15.5t-5.5 -16t-16.5 -11.5t-26 -4.5q-16 0 -29 5.5t-19.5 15t-7.5 23.5l-24 -2q0 -19 10 -34t27.5 -22.5
t43.5 -7.5q21 0 37.5 7.5t25 20.5t8.5 28.5t-8 27t-25 18.5q-11 6 -42 12.5t-38.5 13t-7.5 17.5t10.5 19.5t33.5 8.5q22 0 33.5 -9t13.5 -27l24 2q0 16 -9 29.5t-25 20t-38 6.5q-19 0 -35 -6.5t-24 -19zM562 709q-17 -13 -37 -13q-30 0 -48 24l-234 -171h538zM838 173h-118
v65h107v22h-107v58h114v22h-139v-189h143v22zM432 320q5 -15 14 -39l20 -52h-66l21 55q7 18 11 36z" />
    <glyph glyph-name="xiazai2" unicode="&#xe607;" 
d="M512 832q-91 0 -174 -35.5t-143 -95.5t-95.5 -143t-35.5 -174t35.5 -174t95.5 -143t143 -95.5t174 -35.5t174 35.5t143 95.5t95.5 143t35.5 174t-35.5 174t-95.5 143t-143 95.5t-174 35.5v0zM729 320l-193 -156q-9 -11 -22.5 -11t-23.5 11l-194 156q-9 11 -9 25.5t9 25.5
q13 13 23 13t24 -11l138 -110v316q0 15 9.5 25.5t23 10.5t23 -10.5t9.5 -25.5v-318l133 114q26 22 48 -1q9 -11 10 -27t-8 -27v0zM729 320z" />
    <glyph glyph-name="xiazai3" unicode="&#xe666;" 
d="M495 28l-264 319l-4.5 4.5t-7 9t-5.5 11.5t3.5 9t16.5 4h149v65v400q1 1 0 6t6 11t23 6h209q11 0 17 -5t6 -9l1 -5v-401v-58h138q23 0 26.5 -10t-5.5 -20l-8 -10q-225 -298 -256 -330q-12 -11 -22 -9t-16.5 6.5t-6.5 5.5zM1016 137h-93v-149h-822v145h-93v-238h1008v242z
" />
    <glyph glyph-name="xiazai4" unicode="&#xe62b;" 
d="M465 140q8 -12 21 -12q12 0 19 8q6 2 10 7l289 289q8 7 8 18t-7 18q-8 8 -18.5 8t-18.5 -8l-256 -256v556q0 11 -7.5 18.5t-18 7.5t-18 -7.5t-7.5 -18.5v-553l-253 253q-7 8 -18 8t-18 -8q-8 -7 -8 -17.5t8 -18.5l289 -289q2 -2 4 -3zM896 -77h26v359h-52v-308h-768v-51
h794zM51 282h51v-359h-51v359z" />
    <glyph glyph-name="chakan" unicode="&#xe65b;" 
d="M511.5 626q125.5 0 228.5 -66.5t155 -175.5h67q-55 135 -177.5 219t-273 84t-273 -84t-177.5 -219h67q52 109 155 175.5t228.5 66.5zM511.5 141q-125.5 0 -228.5 66.5t-155 176.5h-67q55 -136 177.5 -220t273 -84t273 84t177.5 220h-67q-52 -110 -155 -176.5
t-228.5 -66.5zM350 384q0 -67 47 -114.5t114.5 -47.5t114.5 47.5t47 114.5t-47 114t-114.5 47t-114.5 -47t-47 -114zM613 383.5q0 -41.5 -30 -71.5t-71.5 -30t-71.5 30t-30 71.5t30 71.5t71.5 30t71.5 -30t30 -71.5z" />
    <glyph glyph-name="hezuotubiao" unicode="&#xe623;" 
d="M512 831q-91 0 -173.5 -35.5t-142.5 -95.5t-95.5 -142.5t-35.5 -173.5t35.5 -173.5t95.5 -142.5t142.5 -95.5t173.5 -35.5t173.5 35.5t142.5 95.5t95.5 142.5t35.5 173.5t-35.5 173.5t-95.5 142.5t-142.5 95.5t-173.5 35.5zM486 477h-91q-39 0 -66 -27t-27 -66t27 -66
t66 -27h91v-76h-91q-70 0 -120 49.5t-50 119.5t50 119.5t120 49.5h91v-76zM629 215h-91v76h91q39 0 66 27t27 66t-27 66t-66 27h-91v76h91q70 0 120 -49.5t50 -119.5t-50 -119.5t-120 -49.5z" />
    <glyph glyph-name="tuijian" unicode="&#xe614;" 
d="M339 896q-82 0 -140 -58t-58 -140v-826h5l366 292l366 -292h5v1024h-544v0zM659 329l-147 102l-147 -102l52 171l-143 108l179 3l59 169l59 -169l179 -3l-143 -108l52 -171v0z" />
    <glyph glyph-name="zixun" unicode="&#xe66e;" 
d="M519 11q-131 0 -243 64l-190 -55l46 190q-64 98 -64 207q0 111 61 205.5t164.5 150t225.5 55.5t226 -55.5t164.5 -150t60.5 -205.5q0 -108 -60.5 -202t-164.5 -149t-226 -55v0v0zM285 133l9 -4q105 -63 225 -63q109 0 201.5 48t146.5 131.5t54 181t-54 180.5
t-146.5 131.5t-201 48.5t-201 -48.5t-146.5 -131.5t-54 -181q0 -94 59 -189l4 -9l-31 -131l135 36v0zM758 421.5q0 -20.5 -14.5 -35t-35 -14.5t-35 14.5t-14.5 35t14.5 35t35 14.5t35 -14.5t14.5 -35zM591 421.5q0 -20.5 -14.5 -35t-34.5 -14.5t-35 14.5t-15 35t15 35
t35 14.5t34.5 -14.5t14.5 -35zM425 421.5q0 -20.5 -15 -35t-35 -14.5t-35 14.5t-15 35t15 35t35 14.5t35 -14.5t15 -35z" />
    <glyph glyph-name="gerenziliao" unicode="&#xe6d8;" 
d="M936 380l-34 31q-13 11 -21 3l-247 -275q-3 -3 -14.5 -40t-10.5 -38l10 -9q1 -1 36.5 14t38.5 19l248 274q7 9 -6 21zM905 192q-6 11 -18 15.5t-23.5 -1t-15.5 -17.5t1 -23q26 -56 28 -107q1 -35 -8 -46h-681q-8 8 -10 34q-2 38 13 85q6 22 17 45t38 57.5t61.5 60.5
t93 45t128.5 19q99 0 176 -41q12 -6 24 -2t18 15t2 23.5t-15 18.5q-48 25 -104 37q34 17 61 44q68 68 68 164t-67.5 164t-163.5 68t-164 -68t-68 -164t68 -164q27 -27 60 -44q-131 -27 -214 -122q-48 -54 -70.5 -116t-22.5 -114q0 -41 13 -69q20 -37 57 -37h683q33 0 51 29
q22 33 16 93q-5 58 -32 118zM357 617.5q0 70.5 50 120.5t120.5 50t120.5 -50t50 -120.5t-50 -120.5t-120.5 -50t-120.5 50t-50 120.5z" />
    <glyph glyph-name="liebiao" unicode="&#xe62d;" 
d="M0 756v-93h1024v93h-1024zM0 337h1024v94h-1024v-94zM0 12h1024v93h-1024v-93z" />
    <glyph glyph-name="zufang" unicode="&#xe659;" horiz-adv-x="1278" 
d="M778 591q54 24 114 32l-306 259q-17 14 -39 14t-39 -14l-487 -413q-19 -16 -21 -40.5t14 -43.5t41 -21t43 14l8 7v-476q0 -15 11 -26t27 -11h371h14h223q-51 28 -83 56q-53 49 -86 114q-36 80 -36 191q0 68 22.5 129.5t51.5 99t66.5 69t56.5 42.5t34 18v0zM439 195h-116
v115h116v-115v0zM439 195zM280 746q0 18 -13 31.5t-32 13.5h-85q-19 0 -32 -13.5t-13 -31.5v-159l175 146v13v0v0v0zM280 746zM1022 366q-23 0 -39.5 -16.5t-16.5 -40t16 -40.5q17 -16 41 -16t40 16q16 17 16 40.5t-16.5 40t-40.5 16.5v0zM1022 366zM943 564q-90 0 -167 -45
t-122 -122t-45 -167.5t45 -167t122 -121.5t167.5 -45t167.5 45t121.5 121.5t44.5 167t-44.5 167.5t-121.5 122t-168 45v0zM1103 229q-33 -33 -81 -33q-30 0 -57 16l-73 -73l33 -33q9 -9 9 -20.5t-8.5 -20t-20 -8.5t-20.5 9l-33 33l-53 -54q-9 -8 -20.5 -8t-20 8.5t-8.5 20
t9 20.5l166 166q-16 27 -16 57q0 47 33 80.5t80.5 33.5t80.5 -33.5t33 -80.5t-33 -80v0zM1103 229z" />
    <glyph glyph-name="kefurexian" unicode="&#xe6e7;" 
d="M834.5 277q-25.5 0 -43.5 17t-18 41v100q0 30 26 48q-26 90 -105.5 148.5t-181.5 58.5t-181.5 -58.5t-105.5 -148.5q26 -18 26 -48v-100q0 -18 -10.5 -32.5t-26.5 -20.5q28 -62 81 -106.5t120 -64.5q8 18 30.5 29t52.5 11q35 0 60 -15.5t25 -38t-25 -38.5t-60 -16
q-30 0 -52.5 11.5t-29.5 28.5q-79 21 -140 72.5t-92 121.5q-23 2 -39 18.5t-16 39.5v100q0 19 11 33.5t28 21.5q30 110 125.5 182t218.5 72t218.5 -72t125.5 -182q17 -7 28 -21.5t11 -33.5v-100q0 -24 -17.5 -41t-43 -17zM356 461q0 17 12.5 28.5t30 11.5t30 -11.5
t12.5 -28.5t-12.5 -28.5t-30 -11.5t-30 11.5t-12.5 28.5zM384 281v32h7q47 -54 121 -54t121 54h7v-32q-54 -49 -128 -49t-128 49zM583 461q0 17 12.5 28.5t30 11.5t30 -11.5t12.5 -28.5t-12.5 -28.5t-30 -11.5t-30 11.5t-12.5 28.5z" />
    <glyph glyph-name="chakan1" unicode="&#xe610;" 
d="M512 658q-56 0 -107.5 -15.5t-88.5 -38t-70 -54.5t-53 -58t-37 -54t-21.5 -38t-6.5 -16v0q2 -6 6.5 -15.5t21.5 -38t36.5 -54.5t53 -58t70.5 -54.5t88.5 -38t107.5 -15.5q44 0 85.5 9t74 25t62 36.5t51.5 43.5t41 45.5t31.5 43t21.5 36.5t13 26l4 9q-2 6 -6.5 15.5
t-21.5 38t-36.5 54.5t-53 58t-70.5 54.5t-88.5 38t-107.5 15.5v0zM512 219q-68 0 -116.5 48.5t-48.5 116.5t48.5 116.5t116.5 48.5t116.5 -48.5t48.5 -116.5t-48.5 -116.5t-116.5 -48.5v0zM512 219zM594 384q0 -34 -24 -58t-58 -24t-58 24t-24 58t24 58t58 24t58 -24t24 -58
v0zM594 384z" />
    <glyph glyph-name="sale1" unicode="&#xe616;" 
d="M745 238q-22 0 -37 -14.5t-17 -39.5h105q-2 24 -12 36q-15 18 -39 18zM425 148q-8 -3 -12.5 -10t-4.5 -15q0 -13 9.5 -21.5t28 -8.5t33 8t21.5 22q5 11 5 32v12q-18 -7 -52 -12q-20 -3 -28 -7zM941 457h-858q-9 0 -15 -6t-6 -15v-448q0 -8 6 -14.5t15 -6.5h858
q9 0 15 6.5t6 14.5v448q0 9 -6 15t-15 6zM337.5 97.5q-9.5 -14.5 -27 -22t-39.5 -7.5q-37 0 -56 15q-16 13 -23 36q-2 9 7 11l15 2q7 1 9 -6q4 -14 14 -22q12 -10 34 -10t32.5 9t10.5 21q0 11 -10 17q-6 4 -32 11q-35 9 -48.5 15.5t-20.5 17.5t-7 26q0 12 5 23q6 10 16 18
q7 5 20 9t28 4q22 0 39 -6.5t24 -17.5q6 -8 9 -20q3 -9 -7 -10l-14 -2q-7 -1 -9 6q-3 9 -11 15q-10 9 -29 9q-22 0 -31.5 -7.5t-9.5 -17.5q0 -6 4 -11t12 -8q4 -2 29 -9q34 -9 47 -14q13 -6 20.5 -17t7.5 -27q1 -16 -8.5 -30.5zM511 78q0 2 -1 5q-1 4 -5.5 5.5t-7.5 -1.5
q-12 -8 -24 -13q-17 -6 -35 -6q-31 0 -47.5 15t-16.5 39q0 14 6 25.5t16.5 18t22.5 10.5q10 2 29 5q32 4 51 9q6 2 6 8v2q0 20 -9 28q-13 10 -37 10q-22 0 -33 -7q-9 -7 -14 -22q-2 -6 -9 -5l-14 2q-4 0 -6 3.5t-1 7.5q4 13 11 22q10 12 28.5 19t42.5 7t39 -6t22 -14.5
t10 -21.5q2 -9 2 -29v-43q0 -44 2 -56q1 -5 3 -11q1 -4 -1.5 -8t-6.5 -4h-15q-6 0 -8 6zM609 72h-15q-8 0 -8 9v242q0 9 8 9h15q8 0 8 -9v-242q0 -9 -8 -9zM821 158h-122q-4 0 -6.5 -3t-2.5 -6q4 -25 17 -38q16 -17 39 -17q18 0 30 10q11 7 17 23q3 6 9 5l16 -2q5 0 7 -4
t0 -7q-8 -22 -25 -35q-21 -16 -54 -16q-41 0 -65.5 25.5t-24.5 71.5q0 47 24.5 73.5t63.5 26.5q38 0 62 -26t24 -72v0q0 -9 -9 -9zM510 796l4 -3q-2 1 -4 3zM512 794v1v-1zM530 793l-3 3q-6 5 -14 5t-14 -6l-1 -1l-310 -309v0h61l265 265l264 -265h58z" />
    <glyph glyph-name="fanhuidingbu" unicode="&#xe61a;" horiz-adv-x="1026" 
d="M510.5 894q-103.5 0 -198 -40.5t-163 -109t-109 -163t-40.5 -198.5t40.5 -198.5t109 -163t163 -109t198 -40.5t198.5 40.5t163 109t108.5 163t40.5 198.5t-40.5 198.5t-108.5 163t-163 109t-198.5 40.5zM510.5 -90q-96.5 0 -184 37.5t-151 100.5t-101 151t-37.5 184
t37.5 183.5t101 151t151 101t184 37.5t184 -37.5t151 -101t101 -151t37.5 -183.5t-37.5 -184t-101 -151t-151 -100.5t-184 -37.5zM660 512l-137 137q-4 5 -11 5h-0.5h-0.5q-4 0 -7 -1t-5 -4l-123 -123q-11 -10 0 -21q4 -5 10.5 -5t10.5 5l98 98v-269q0 -6 4.5 -10.5t11 -4.5
t11 4.5t4.5 10.5v269l112 -113q5 -4 11 -4t11 4q11 11 0 22zM678 685h-335q-6 0 -10.5 4.5t-4.5 10.5t4.5 10.5t10.5 4.5h335q6 0 10.5 -4.5t4.5 -10.5t-4.5 -10.5t-10.5 -4.5zM263 277q12 -1 24 -1h29q11 0 24 1v-17q-16 1 -25 1v-149q0 -20 -12.5 -24t-29.5 -8
q-2 13 -8 24q15 0 23 1t8 14v142q-20 0 -33 -1v17zM329 86q28 6 44.5 16t21.5 24.5t6 34.5t0 42q12 -2 23 -3q-3 -11 -4 -30t-5 -40.5t-22.5 -37.5t-49.5 -26q-4 10 -14 20zM397 236q2 17 3 33h-19q-12 0 -33 -1v17q20 -1 33 -1h72q17 0 33 1v-17q-17 1 -33 1h-33
q-3 -16 -5 -33h59q-1 -14 -1 -55.5t1 -58.5h-20v100h-80v-102h-19q1 17 1 58q0 42 -1 58h42zM461 105q16 -12 30 -24q-10 -9 -16 -17q-17 17 -29 26.5t-26 18.5q10 8 16 15q9 -7 25 -19zM607 271q-6 -3 -10 -6q41 0 52 1v-19q-7 0 -27 1l17 -8q-7 -11 -20 -38q24 0 37 1v-19
q-13 1 -26 1h-74q-18 0 -30 -1v19q7 -1 38 -1q-7 17 -18 34q8 4 17 9q10 -14 21 -34q-10 -5 -15 -9h31q13 31 16 46h-23q-46 0 -60 -1v19q12 -1 54 -1q-8 16 -16 25q9 5 16 10q15 -20 20 -29zM637 116q0 -23 1 -48h-20v20h-53v-20h-20q1 22 1 44q0 23 -1 49h93
q-1 -22 -1 -45zM618 104v42h-53v-42h53zM746.5 163q8.5 -15 7.5 -31t-13.5 -24.5t-37.5 -11.5q-2 11 -9 24q24 0 31.5 5.5t7 14.5t-10.5 24.5t-23 28.5q8 18 21 68h-36v-194h-19q1 21 1 47v120q0 22 -2 44h83q-16 -51 -27 -82q18 -18 26.5 -33z" />
    <glyph glyph-name="renzheng-copy" unicode="&#xe603;" 
d="M512 -106q-42 0 -97 24t-109 66.5t-100 95t-74.5 116.5t-28.5 123v413h41q8 0 27.5 1.5t67.5 11.5t90 27q96 39 159 84l24 18l24 -18q5 -3 20 -13t55.5 -31.5t83.5 -39.5q42 -17 90 -27t67.5 -11.5t27.5 -1.5h41v-413q0 -59 -28.5 -123t-74.5 -116.5t-100 -95t-109 -66.5
t-97 -24v0zM186 653v-333q0 -57 37.5 -121t90 -111.5t107.5 -79.5t90.5 -32t91 32t108 79.5t90 111.5t37.5 121v333q-93 10 -174 43q-83 33 -152 77q-69 -43 -152 -77q-81 -33 -174 -43v0zM490 165l-174 148l54 62l111 -94l212 243l62 -54zM490 165z" />
    <glyph glyph-name="zhuce" unicode="&#xe60f;" 
d="M874 458h85v-586h-930v924h592v-84h-508v-755h761v501zM905 663l-85 85l-465 -471l85 -85zM240 77l157 73l-84 84zM983 790l-36 37q-9 9 -24 9t-24 -9l-37 -37l85 -84l36 36q24 24 0 48z" />
    <glyph glyph-name="money" unicode="&#xe660;" 
d="M932 537l-6 16h-2q-14 18 -41 15q-12 -2 -19 -11.5t-5 -19.5l1 -5q29 -69 29 -146q0 -102 -50.5 -189.5t-138 -138t-190 -50.5t-189.5 50.5t-138 138t-51 190t51 189.5t138 137.5t190 50.5q85 0 162 -37q5 -3 9 -4l20 -10v14q5 3 9 10q12 22 -1 43q-4 5 -8 9v2l-17 7
q-84 36 -174 36q-91 0 -174 -35.5t-143 -95.5t-95.5 -143t-35.5 -174t35.5 -174t95.5 -143t143 -95.5t174 -35.5t174 35.5t143 95.5t95.5 143t35.5 174q0 77 -27 151zM706.5 543q3.5 9 3.5 19q0 14 -9.5 23t-24.5 9q-11 0 -18.5 -4t-13 -10.5t-11 -16t-9.5 -17.5l-89 -146
l-98 154q-13 21 -22.5 30.5t-25.5 9.5q-15 0 -24.5 -9.5t-9.5 -25.5q0 -9 3.5 -16t14.5 -24l91 -143h-39q-43 0 -43 -28q0 -29 43 -29h69v-44h-69q-43 0 -43 -28t43 -28h69v-25q0 -61 41 -61q42 0 42 61v25h68q43 0 43 28t-43 28h-68v44h68q43 0 43 29q0 28 -43 28h-38
l88 145q8 13 11.5 22z" />
    <glyph glyph-name="fangwumianji" unicode="&#xe673;" 
d="M951 405l-430 350l-430 -350l-37 41l436 355q14 11 31.5 11t31.5 -11l434 -354zM866 -33h-689q-15 0 -25.5 10.5t-10.5 24.5v487q0 15 10.5 25.5t25 10.5t18 -3.5t3.5 -18.5v-479h647v465q0 18 4 27t17 9q15 0 25.5 -10.5t10.5 -25.5v-487q0 -14 -10.5 -24.5t-25.5 -10.5
zM781 738h-56q-7 0 -7 -14v-67q0 -6 3 -10l51 -83q2 -3 5 -3h4q6 0 6 13v150q0 14 -6 14zM645 152h-65v128q0 51 -37 51q-18 0 -29.5 -15.5t-11.5 -37.5v-126h-65v129q0 50 -36 50q-19 0 -30 -15t-11 -39v-125h-65v224h65v-35h1q12 19 31 29.5t41 10.5q47 0 64 -42
q26 42 75 42q73 0 73 -90v-139v0zM768 311h-96v24l42 41q14 13 19 21.5t5 17.5q0 21 -22 21q-19 0 -37 -15v28q19 12 43 12q22 0 35 -11t13 -31q0 -26 -32 -54l-31 -28v-1h61v-25v0z" />
    <glyph glyph-name="dunpai" unicode="&#xe645;" 
d="M860 673q-195 0 -348 120q-154 -120 -348 -120q-24 -88 -24.5 -173t27.5 -166.5t74.5 -150.5t116.5 -123t154 -85q84 31 154 85t116.5 123t74.5 150.5t27.5 166.5t-24.5 173zM201 382h311v353q141 -98 312 -108q29 -123 -1 -245h-311v-357v0q-118 47 -199.5 142
t-111.5 215z" />
    <glyph glyph-name="weixiu-copy" unicode="&#xe679;" 
d="M662 365l37 37q23 -10 52 -12q35 -3 68 5q43 12 78 43q34 29 51 73q3 8 -0.5 16t-10.5 11q-6 3 -14 1l-56 -15l-44 -13l-34 34l-33 33l12 45l12 46l101 26q9 3 13 10.5t2 15.5q-1 7 -7 11q-37 29 -81 38q-46 9 -89 -3q-77 -20 -117 -89q-39 -69 -19 -146v-2l1 -1l-43 -43
l-124 124q2 2 10 19l1 1q6 13 11 32q11 19 27 26v0q19 9 49 7q10 -2 17 6q6 6 6 14.5t-6 15.5q-49 46 -103 50q-52 4 -98 -36l-21 -9v0q-8 -4 -12 -7l-11 11q-6 6 -14.5 6t-14.5 -6l-92 -92q-6 -6 -6 -14.5t6 -14.5l11 -11l-3 -4v-1q-5 -10 -8 -15q-3 -2 -7 -3q-7 -3 -20 -2
q-10 1 -16 -6l-45 -45q-6 -6 -6 -14.5t6 -14.5l54 -54v0v0v-1h1v-1l1 -1v0l54 -54q6 -6 15 -6t15 6l45 45q6 7 6 17q-1 8 1 15v0v0q1 3 5 9q10 5 15 7v1l6 3l124 -124l-259 -258q-6 -7 -6 -15.5t6 -14.5l91 -92q6 -6 15 -6t15 6l259 259l266 -266q6 -6 14.5 -6t15.5 6l91 91
q7 7 7 15.5t-7 14.5zM314 530v0q-13 13 -28 2l-15 -10q-13 -6 -17 -8q-4 -1 -9 -6q-10 -12 -14 -25q-4 -11 -4 -22l-24 -24l-39 38l-1 1h-1v1v1h-1v0l-1 2l-38 37l24 24q13 0 23 3q17 4 29 15q4 5 5 9q1 2 8 15v1l3.5 6t6.5 10q10 15 -4 27l-6 6l62 62l7 -7q12 -12 26 -2
q12 7 22 13v0q13 5 21 8q3 1 8 4q32 31 70 29q15 -1 33 -9q-10 -4 -11 -4q-29 -14 -48 -47q-2 -4 -2 -6q-2 -10 -9 -27l-1 -1q-6 -14 -16 -28q-8 -14 3 -26v0l135 -135l-62 -62zM267 29v0l-62 62l417 418q10 9 5 21l-2 6l-1 5l-1 2q-16 60 15 114t92 70q35 9 70 2
q12 -3 21 -6l-6 -2l-57 -15q-12 -3 -15 -15l-30 -114q-3 -11 5 -20l42 -42l41 -40q8 -10 20 -6l58 15l6 1q-9 -10 -16 -16q-26 -23 -61 -33q-26 -7 -53 -5q-26 3 -51 14q-14 8 -25 -3l-412 -413v0zM822 22v0l-252 252l62 62l252 -252z" />
    <glyph glyph-name="yanzhengma1" unicode="&#xe63f;" 
d="M512 325q-95 0 -162.5 67t-67.5 162.5t67.5 163t162.5 67.5t162.5 -67.5t67.5 -163t-67.5 -162.5t-162.5 -67zM511.5 756q-83.5 0 -142.5 -59t-59 -142.5t59 -142.5t142.5 -59t142.5 59t59 142.5t-59 142.5t-142.5 59zM511.5 456q-40.5 0 -69 29t-28.5 69.5t28.5 69.5
t69 29t69.5 -29t29 -69.5t-29 -69.5t-69.5 -29zM512 622q-28 0 -48 -19.5t-20 -47.5t20 -48t48 -20t47.5 20t19.5 48t-19.5 47.5t-47.5 19.5zM511 -19q-27 0 -46.5 19.5t-19.5 46.5v307h31v-307q0 -15 10 -25t25 -10t25 10t10 25v61h31v-61q0 -27 -19.5 -46.5t-46.5 -19.5z
M546 354h31v-228h-31v228zM547 126v0v31h38q16 0 27.5 -12t11.5 -28.5t-11.5 -28t-27.5 -11.5h-38v31h38q9 0 9 9t-9 9h-38v0z" />
    <glyph glyph-name="fangwumianji1" unicode="&#xe6e5;" 
d="M987 447l-200 163v114q0 6 -2 10t-4 4h-56q-7 0 -7 -14v-58l-165 135q-14 11 -31.5 11t-31.5 -11l-436 -355l37 -41l50 40v-443q0 -14 10.5 -24.5t25.5 -10.5h689q15 0 25.5 10.5t10.5 24.5v443l49 -40zM845 489v-465h-647v468l323 263l324 -263v-3zM645 152h-65v128
q0 51 -37 51q-18 0 -29.5 -15.5t-11.5 -37.5v-126h-65v129q0 50 -36 50q-19 0 -30 -15t-11 -39v-125h-65v224h65v-35h1q12 19 31 29.5t41 10.5q47 0 64 -42q26 42 75 42q73 0 73 -90v-139v0zM768 311h-96v24l42 41q14 13 19 21.5t5 17.5q0 21 -22 21q-19 0 -37 -15v28
q19 12 43 12q22 0 35 -11t13 -31q0 -26 -32 -54l-31 -28v-1h61v-25v0z" />
    <glyph glyph-name="gerenzhongxin" unicode="&#xe652;" 
d="M512 340q-38 0 -80 25t-76 65.5t-56.5 96t-22.5 110.5q0 111 67.5 185t167.5 74t167.5 -74t67.5 -185q0 -70 -35 -140t-89.5 -113.5t-110.5 -43.5zM512 827q-72 0 -119 -53.5t-47 -136.5q0 -55 29 -109.5t67.5 -87t69.5 -32.5q24 0 52.5 19t54 49.5t42.5 73.5t17 87
q0 83 -47 136.5t-119 53.5zM335 582q-5 0 -9 1q-9 4 -12.5 12.5t0.5 17.5q33 80 59 110q31 36 141 28q9 -1 15 -8t5.5 -16.5t-7.5 -15.5t-17 -5q-34 2 -65 -1.5t-37 -11.5q-21 -24 -52 -98q-6 -13 -21 -13zM689 582q-15 0 -21 13q-31 74 -52 98q-6 8 -37 11.5t-65 1.5
q-10 -1 -17 5t-7.5 15.5t5.5 16.5t15 8q110 8 141 -28q26 -30 59 -110q4 -9 0.5 -17.5t-12.5 -12.5q-4 -1 -9 -1zM901 -128h-778l-5 29q-5 33 -5 61q0 104 54.5 194t147.5 141l25 14l18 -22q18 -22 59.5 -37.5t94.5 -15.5t94.5 15.5t59.5 37.5l18 22l25 -14
q93 -51 147.5 -141t54.5 -194q0 -28 -5 -61zM182 -59h660q1 11 1 21q0 79 -39 149t-107 114q-69 -58 -185 -58t-185 58q-68 -44 -107 -114t-39 -149q0 -10 1 -21zM427 -11h-83v173h84l124 -90zM390 34h24l58 40l-59 43h-23v-83zM680 -11h-83l-125 83l124 90h84v-173zM610 34
h24v83h-23l-59 -43zM489 7h46v-42h-46v42z" />
    <glyph glyph-name="xiaoshouzhongxin" unicode="&#xe69b;" 
d="M208 252q-16 0 -27 -11t-11 -27t11 -27.5t27 -11.5t27.5 11.5t11.5 27.5t-11.5 27t-27.5 11zM627.5 245q-15.5 0 -27 -11.5t-11.5 -27.5t11.5 -27t27 -11t27 11t11.5 27t-11.5 27.5t-27 11.5zM426 425q-16 0 -27 -11t-11 -27t11 -27.5t27 -11.5t27.5 11.5t11.5 27.5
t-11.5 27t-27.5 11zM794 485q-16 0 -27 -11t-11 -27t11 -27.5t27 -11.5t27 11.5t11 27.5t-11 27t-27 11zM971 533v58q0 35 -24.5 60t-60.5 25h-231v1v1q0 57 -41.5 97.5t-100.5 40.5t-101 -40.5t-42 -97.5v-1v-1h-231q-35 0 -60 -25t-25 -60v-58h14v-448h-16v-50
q0 -30 25 -51t60 -21h747q35 0 60 21t25 51v50h-5v448h7zM513 775q42 0 71.5 -28.5t29.5 -68.5v-2h-203v2q0 40 30 68.5t72 28.5zM794 384q-12 0 -23 5l-97 -141q16 -18 16 -42q0 -25 -18.5 -43.5t-44 -18.5t-44 18.5t-18.5 43.5q0 18 10 33l-113 97q-16 -11 -36 -11
q-24 0 -41 16l-125 -93q10 -16 10 -34q0 -26 -18 -44t-43.5 -18t-44 18t-18.5 43.5t18.5 44t43.5 18.5q16 0 31 -8l129 97q-4 10 -4 22q0 25 18.5 43.5t44 18.5t43.5 -18.5t18 -43.5q0 -16 -7 -29l114 -99q15 9 32 9q12 0 23 -4l97 142q-15 17 -15 41q0 25 18 43.5t44 18.5
t44 -18.5t18 -44t-18 -44t-44 -18.5z" />
    <glyph glyph-name="dianhua" unicode="&#xe640;" 
d="M720 -58q-69 0 -182 70q-108 66 -211 166l-21 21q-100 103 -166 211q-70 113 -70 182q0 68 62 151q12 16 26 31.5t39 33.5t45 18q25 0 62 -38q27 -28 58 -72q29 -41 49 -79q23 -44 23 -66q0 -28 -29 -48q-12 -9 -43 -22q-25 -11 -31 -16q5 -21 36 -67q37 -54 80 -99
q45 -43 99 -80q46 -31 67 -36q5 6 16 31q13 30 22 43q20 29 48 29q22 0 66 -23q38 -20 79 -49q44 -31 72 -58q38 -37 38 -62q0 -20 -18 -45t-33.5 -39t-31.5 -26q-83 -62 -151 -62v0zM364 215q99 -96 201 -159q101 -62 155 -62q49 0 117 50q29 21 48 43q14 16 17 26
q-5 9 -28 31t-64 50q-38 26 -70 43q-29 15 -40 17q-4 -3 -9 -11t-14 -29q-11 -27 -18 -38q-18 -26 -43 -26h-1q-32 1 -98 46q-59 40 -106 86l-1 1q-46 47 -86 106q-45 66 -46 98q-1 26 26 44q11 7 38 18q21 9 29 14t11 9q-2 11 -17 40q-17 32 -43 70q-28 41 -50 64t-31 28
q-10 -3 -26 -17q-21 -19 -43 -48q-50 -68 -50 -117q0 -54 62 -155q63 -102 159 -201zM364 215z" />
    <glyph glyph-name="sale11" unicode="&#xe68d;" horiz-adv-x="1042" 
d="M935 575h-76l-245 174q3 11 3 19q0 40 -29 69t-69.5 29t-69 -29t-28.5 -69q0 -9 3 -21l-241 -172h-77q-44 0 -75 -31t-31 -75v-444q0 -44 31 -75.5t75 -31.5h829q44 0 75 31.5t31 75.5v444q0 44 -31 75t-75 31zM519 804q15 0 25.5 -10.5t10.5 -25.5t-10.5 -26t-25.5 -11
t-26 11t-11 26t11 25.5t26 10.5zM455 693q28 -23 64 -23q37 0 65 25l168 -120h-463zM979 25q0 -19 -13 -32t-31 -13h-829q-18 0 -31 13t-13 32v444q0 19 13 32t31 13h829q18 0 31 -13t13 -32v-444zM330 253q-10 15 -30 24q-13 6 -47 14q-31 7 -37 13q-5 4 -5 11q0 9 8 16
q9 7 30 7t31 -8q9 -8 11 -24l1 -8l42 3v8q-1 20 -12 37q-11 16 -30 25q-19 8 -44 8q-22 0 -40 -8q-20 -8 -30 -24q-10 -15 -10 -33q0 -16 8 -30q9 -14 25 -22q13 -7 42 -14q26 -6 35 -9q11 -5 15 -10t4 -12t-4 -13q-4 -5 -14 -9q-11 -4 -24 -4q-16 0 -28 5t-17.5 13t-6.5 22
l-1 8l-42 -4v-7q1 -23 13 -41.5t33 -27.5t50 -9q24 0 43 9q20 9 30.5 25t10.5 36q0 18 -10 33zM594 375h-44v-220l-90 220h-41l-85 -222h47l22 63h75l23 -63h194v41h-101v181zM417 254l19 49q2 7 4 13q2 -8 5 -16l18 -46h-46zM881 194h-126v53h113v41h-113v47h121v40h-165
v-221h170v32v8z" />
    <glyph glyph-name="dunpai1" unicode="&#xe6ac;" 
d="M737 814q-35 0 -96.5 20.5t-105.5 41.5l-43 20q-14 -9 -37 -22.5t-77.5 -36.5t-91 -23t-77.5 10.5t-63 20.5l-23 10v-532q0 -60 24.5 -120t62.5 -108t84 -90.5t90 -71t78 -45t50 -16.5t50 16.5t78 45t90 71t84 90.5t62.5 108t24.5 120v532q-9 -5 -25 -11.5t-59 -18
t-80 -11.5zM758 485l-260 -260q-12 -12 -29 -12t-29 12l-174 173q-12 12 -12 29t12 29t29 12t29 -12l145 -144l231 231q12 12 29 12t29 -12t12 -29t-12 -29z" />
    <glyph glyph-name="xiugaimima" unicode="&#xe653;" 
d="M780 446h-15v0h-134v0h-254v145q0 37 40.5 69t94.5 32t94 -32t40 -69v-36v-1v0v-7h1q2 -18 17 -30.5t34.5 -12.5t34 12.5t17.5 30.5h1v44q0 84 -70 143.5t-169 59.5t-169 -59.5t-70 -143.5v-145h-30q-37 0 -63 -25.5t-26 -61.5v-349q0 -36 26 -61.5t63 -25.5h538
q37 0 63 25.5t26 61.5v349q0 36 -26.5 61.5t-63.5 25.5v0v0zM556 124v-39q0 -19 -13 -32t-32 -13q-18 0 -31 13t-13 32v39q-27 13 -43.5 37.5t-16.5 53.5q0 42 30.5 71t74 29t74 -29t30.5 -71q0 -29 -16.5 -53.5t-43.5 -37.5v0v0z" />
    <glyph glyph-name="chaxun" unicode="&#xe60a;" horiz-adv-x="1045" 
d="M230 719h462v-58h-462v58zM228 603h462v-58h-462v58zM114 835h693v-462h58v462q0 24 -17 41t-41 17h-693q-24 0 -40.5 -17t-16.5 -41v-808q0 -24 16.5 -41t40.5 -17h405v58h-405v808zM229 372v-58h141q0 30 8 58h-149zM466 487h-238v-57h176q25 35 62 57zM903 22
l-133 131q49 57 49 132q0 84 -59 143t-143 59t-143 -59t-59 -143t59 -143t143 -59q60 0 110 32l135 -133q8 -9 20 -9t20.5 8.5t8.5 20.5t-8 20zM473 285q0 60 42 102t102 42t102 -42t42 -102t-42 -102t-102 -42t-102 42t-42 102z" />
    <glyph glyph-name="fangdajing" unicode="&#xe633;" 
d="M634 592q31 -7 55 -31.5t31 -54.5q3 -14 14 -23.5t25 -9.5q17 0 28.5 11.5t11.5 28.5q0 21 -16 50t-41 54q-54 54 -101 54q-17 0 -28.5 -12t-11.5 -28q0 -15 9.5 -26t23.5 -13zM90 73q-23 -23 -23 -55.5t23 -55.5t55.5 -23t55.5 23l227 227q84 -52 183 -52q94 0 174 46
t126 126t46 174t-46 174t-126 126t-174 46t-174 -46t-126 -126t-46 -174q0 -99 52 -183zM364 483q0 102 72.5 174.5t174.5 72.5t174.5 -72.5t72.5 -174.5t-72.5 -174.5t-174.5 -72.5t-174.5 72.5t-72.5 174.5z" />
    <glyph glyph-name="kongxing" unicode="&#xe604;" 
d="M216 -98q-9 0 -17 6q-15 11 -12 29l54 315l-229 224q-13 13 -7.5 30t23.5 20l317 46l142 287q8 17 26.5 17t26.5 -17l141 -287l317 -46q18 -3 24 -20t-7 -30l-230 -224l54 -315q4 -18 -11 -29q-8 -6 -18 -6q-7 0 -13 4l-284 149l-283 -149q-7 -4 -14 -4v0zM293 284
q11 -11 9 -26l-47 -273l245 129q6 3 13.5 3t13.5 -3l244 -129l-46 273q-3 15 8 26l198 192l-273 40q-16 2 -23 16l-122 248l-122 -248q-7 -14 -22 -16l-273 -40l197 -192v0z" />
    <glyph glyph-name="mima2" unicode="&#xe68e;" 
d="M512 -42q-111 0 -189.5 78t-78.5 188q0 88 54 160v213q0 88 62.5 150.5t151 62.5t151.5 -62.5t63 -150.5v-214q54 -71 54 -159q0 -110 -78.5 -188t-189.5 -78v0v0zM673 597q0 66 -47 113t-114 47t-114 -47t-47 -113v-160q72 53 161 53t161 -53v160zM673 365
q-65 72 -161 72q-89 0 -151.5 -62.5t-62.5 -150.5t62.5 -150.5t151.5 -62.5t151.5 62.5t62.5 150.5q0 75 -47 133v0v0zM512 118q-11 0 -19 7.5t-8 18.5v107q0 11 8 19t19 8t19 -8t8 -19v-107q0 -11 -8 -18.5t-19 -7.5v0v0z" />
    <glyph glyph-name="renzheng" unicode="&#xe606;" 
d="M327 570h-48v48h139v-240l215 240h110l-416 -470v422z" />
    <glyph glyph-name="weirenzheng" unicode="&#xe63b;" 
d="M928 747l-41 1q-9 0 -29 1.5t-69 12t-91 28.5q-43 18 -84.5 40.5t-56.5 32.5t-20 15l-25 18l-25 -18q-73 -52 -161 -88q-43 -18 -91.5 -28.5t-68.5 -12t-29 -1.5l-41 -1v-430q0 -63 29 -129.5t76 -121.5t101.5 -99.5t110.5 -69.5t99 -25t99 25t110.5 69.5t101.5 99.5
t76 121.5t29 129.5v430zM564 107h-104v110h104v-110zM564 295h-104v366h104v-366z" />
    <glyph glyph-name="fabu2" unicode="&#xe646;" horiz-adv-x="1088" 
d="M975 672l-96 -529l-261 95l357 434v0zM1046 845q-9 4 -24 1.5t-22.5 -5t-11.5 -3.5l-912 -450q-23 -16 -23 -31q0 -11 6 -20.5t10 -13t7 -5.5l335 -103l24 72l-240 71l721 357l-426 -516l-1 -1v-276h78v246l321 -112q2 0 7 -1.5t14.5 -1.5t16.5 3q17 9 23 31
q128 697 128 706q0 42 -31 52v0z" />
    <glyph glyph-name="fangdajing1" unicode="&#xe609;" 
d="M586 743q-60 24 -125 24t-126 -24q-62 -26 -110 -73.5t-73 -110.5q-24 -60 -24 -125t24 -125q25 -63 73 -110.5t110 -73.5q61 -24 126 -24t125 24q47 19 85 51l172 -172l48 48l-172 172q32 38 51 85q24 60 24 125t-24 125q-26 63 -74 110.5t-110 73.5zM726 434
q0 -110 -77.5 -188t-187.5 -78t-188 78t-78 188t78 188t188 78t187.5 -78t77.5 -188z" />
    <glyph glyph-name="lianxikefu" unicode="&#xe668;" 
d="M491 767q-116 0 -214 -49.5t-155.5 -135.5t-57.5 -187q0 -88 44 -165.5t123 -130.5q-5 4 -6 9q-1 0 -1.5 -2t-2 -5l-2.5 -5l-6 -12q-5 -7 -10 -15q-3 -4 -4 -6q-20 -30 -6.5 -50.5t45.5 -8.5q2 0 5 1q6 2 12 5q20 7 38 13q4 2 8 3q24 8 39 12q8 3 13 3q2 1 3 1q-2 0 -5 1
q68 -21 140 -21q36 0 72 6h-9q51 -16 106 -16q50 0 97 14q-3 -1 -4 -1q2 0 7 -2q8 -2 22 -6q2 -1 5 -2q10 -4 22 -8q6 -2 10 -3q31 -12 45 8.5t-5 49.5l-1 2q-3 3 -5 8l-4 6q-1 -8 -7 -12q55 37 86.5 91.5t31.5 116.5q0 78 -48 142l5 -14q-2 101 -60 185t-155 132t-211 48z
M874 394l5 -6q38 -53 38 -114q0 -49 -25.5 -93.5t-71.5 -75.5q-23 -15 -9 -47q2 -5 6 -11q4 -8 9 -13l-2 2q3 -4 3 -6q-1 5 3 10.5t8 5.5q-1 0 -6 1q-3 2 -9 4q-12 4 -23 8q-3 1 -5 2q-39 12 -49 9q-42 -12 -86 -12q-49 0 -94 14l-4 2l-5 -1q-33 -5 -66 -5q-66 0 -128 19
q-13 4 -75 -17q-4 -2 -8 -3q-18 -6 -39 -14l-12 -4q-3 -1 -5 -2q-4 -1 -6 -1q5 -1 9 -6.5t3 -10.5q0 2 3 6q1 1 4 7q6 9 12 17q4 8 7 15q24 47 -3 64q-69 47 -107.5 114t-38.5 143q0 88 51 163t139.5 119t193.5 44q103 0 190.5 -43t139 -116.5t53.5 -160.5v-7zM874 395h43v7
l-43 -1v-6zM557 73l3 -23l6 22q-74 25 -119 80t-45 122q0 89 75.5 153t182.5 64q67 0 125.5 -28t93.5 -75l33 28q-41 56 -108 88.5t-144 32.5q-124 0 -212.5 -76.5t-88.5 -186.5q0 -83 54 -150t141 -96l4 -1l5 1h5l-6 46q-3 0 -5 -1zM512 271.5q0 13.5 9.5 23t22.5 9.5
t22.5 -9.5t9.5 -23t-9.5 -22.5t-22.5 -9t-22.5 9t-9.5 22.5zM640 271.5q0 13.5 9.5 23t22.5 9.5t22.5 -9.5t9.5 -23t-9.5 -22.5t-22.5 -9t-22.5 9t-9.5 22.5zM768 271.5q0 13.5 9.5 23t22.5 9.5t22.5 -9.5t9.5 -23t-9.5 -22.5t-22.5 -9t-22.5 9t-9.5 22.5z" />
    <glyph glyph-name="zhuce1" unicode="&#xe6d2;" 
d="M661 350q61 35 104.5 109.5t43.5 144.5v1q0 121 -83.5 206t-201.5 85t-201.5 -85t-83.5 -206q0 -81 40.5 -149t107.5 -106q-55 -18 -103.5 -53t-81 -73t-60.5 -84.5t-43.5 -82.5t-28 -73.5t-15.5 -51.5t-5 -21v-6q0 -9 6.5 -17.5t16.5 -10.5h5q10 0 18 6.5t10 16.5
q2 12 6 29t19 60t34 82t53.5 85.5t75.5 79.5t101.5 56t129.5 23q212 0 323 -205q54 -101 70 -213q1 -10 9 -17.5t19 -7.5h3q10 2 17.5 10t7.5 19v3q-1 7 -3.5 21.5t-12.5 52.5t-23.5 75t-39 84t-56 86t-77.5 74t-101 53zM295 605.5q0 96.5 67 165t162 68.5t162 -68.5
t67 -165t-67 -165t-162 -68.5t-162 68.5t-67 165z" />
    <glyph glyph-name="icon_jiage" unicode="&#xe60b;" 
d="M521 -128q-157 0 -249.5 18.5t-134.5 69.5q-20 24 -33.5 64t-13.5 71q0 41 15 80q19 72 41 130.5t55 120t79.5 107.5t103.5 70q11 4 11 16q0 5 -3 9l-171 166q4 18 18.5 37t31.5 27h12q21 2 37 14q13 10 33.5 17t36.5 7h2h3q16 0 36.5 -7t33.5 -17q20 -14 45 -14h2
q1 -1 3 -1q24 0 44 15q13 10 33.5 17t36.5 7h4h1q16 0 36.5 -7t33.5 -17q16 -11 35 -12h12q16 -9 30.5 -27.5t19.5 -36.5l-167 -167q-3 -4 -3 -10q0 -11 11 -15q37 -16 80 -49.5t68 -64.5q44 -60 83.5 -153.5t51.5 -166.5q31 -155 -40 -225q-22 -20 -69 -35.5t-92 -22
t-98.5 -10.5t-73.5 -4.5t-31 -0.5zM503 591q-62 -1 -114 -28t-86.5 -67.5t-61 -91.5t-41 -98t-24 -91t-12.5 -66t-3 -25q-1 -5 -2.5 -12t0.5 -28t10.5 -40t32.5 -42t62 -39.5t104 -27t153 -9.5q126 0 200 14.5t110 49.5q25 24 34.5 75t3 113.5t-36 134.5t-77.5 132
q-35 52 -103.5 94.5t-130.5 51.5h-18zM539 662q33 -1 64 -11q2 -1 4 -1q10 0 16 7l97 124q4 4 4 10q0 9 -8 13l-12 10q-18 13 -41 13h-3h-4q-22 0 -40 -13q-18 -14 -46.5 -23.5t-51.5 -9.5h-6h-4q-23 0 -51.5 9.5t-46.5 23.5q-18 13 -41 13h-3h-3q-23 0 -41 -13l-14 -10
q-8 -4 -8 -13q0 -6 3 -10l98 -122q6 -7 16 -7h4q40 10 82 11h36v-1zM689 452l-109 -163q-2 -4 -2 -9q0 -7 5 -12t12 -5h1h59h1q7 0 12 -5t6 -12q-1 -7 -6 -11.5t-12 -4.5h-1h-98h-2q-6 0 -11.5 -5t-5.5 -12v-21q0 -7 5.5 -12t11.5 -5h2h98h1q7 0 12 -4.5t6 -11.5
q-1 -7 -6 -12t-12 -5h-1h-98h-2q-6 0 -11.5 -5t-5.5 -12v-78q-1 -7 -6 -11.5t-12 -4.5h-2h-11h-1q-7 0 -12.5 4.5t-5.5 11.5v81q-1 7 -6 12t-12 5h-2h-96h-1q-7 0 -12.5 4.5t-5.5 11.5t5.5 12t12.5 5h1h96h2q6 0 11 4t7 10v20q-1 7 -6 12t-12 5h-2h-96h-1q-7 0 -12.5 5
t-5.5 12t5.5 11.5t12.5 4.5h1h57q3 -1 6 -1q7 0 12 5t5 12q0 6 -4 11l-96 138q-2 4 -2 9q0 7 5 12t12 5h2h10v0q11 0 17 -8l101 -153q6 -8 16 -8t16 8l101 152q6 8 16 8v0h43z" />
    <glyph glyph-name="icon-29" unicode="&#xe634;" 
d="M711 736q87 0 148.5 -63.5t61.5 -152.5q0 -83 -54 -145l-7 -8l-339 -328l-360 331l-5 6q-53 61 -53 144q0 89 61.5 152.5t147.5 63.5q49 0 92.5 -22t73.5 -62l34 -45l33 45q30 40 73.5 62t92.5 22zM711 778q-60 0 -112 -27t-87 -74q-36 47 -88 74t-112 27
q-104 0 -177.5 -75.5t-73.5 -182.5q0 -98 64 -172l-1 -1l398 -366l378 366l-1 1q64 74 64 172q0 107 -74 182.5t-178 75.5z" />
    <glyph glyph-name="shoucanged" unicode="&#xe637;" 
d="M896 378q66 69 66 166.5t-66 166.5q-68 71 -164 69q-37 -1 -91.5 -29.5t-90.5 -57.5l-37 -28q-6 4 -15.5 12t-38.5 28t-55.5 35t-59 27.5t-56.5 12.5q-93 0 -159 -69t-66 -166.5t66 -166.5l383 -399z" />
    <glyph glyph-name="yonghu" unicode="&#xe63c;" 
d="M610 -128h-196q-62 0 -92 0.5t-77.5 3t-70.5 9t-49 17t-36 27.5t-10 41v20q0 93 44.5 171t121.5 123t169 45h196q91 0 168.5 -46t122 -124t44.5 -169v-20q0 -18 -6 -32t-21.5 -24.5t-30 -17.5t-42.5 -11.5t-48 -7t-58.5 -4t-61 -1.5h-67.5v0zM500 356q-109 0 -186.5 80
t-77.5 192t77.5 190t186.5 78t186.5 -79t77.5 -189q0 -111 -76.5 -191.5t-187.5 -80.5z" />
    <glyph glyph-name="verification-full" unicode="&#xe64e;" 
d="M845 644v0q0 11 -8 19t-19 8l-30 1q-66 2 -129 28q-71 29 -112 59h-1l-18 14q-7 5 -16 5t-16 -6l-18 -13q-62 -39 -113 -59q-63 -26 -128 -28h-1l-30 -1q-11 0 -19 -8t-8 -19v0v-308q0 -58 31.5 -120t89.5 -117q53 -50 110 -79.5t102 -29.5t102 29.5t110 79.5
q58 55 89.5 117t31.5 120v308zM682 457l-182 -182q-10 -10 -24.5 -10t-24.5 10l-92 91q-10 11 -10 25t10.5 24.5t25 10.5t24.5 -10l66 -67l158 158q10 10 24.5 10t25 -10t10.5 -24.5t-11 -25.5z" />
    <glyph glyph-name="zuoyoujiantou" unicode="&#xe611;" 
d="M743 809l-36 36l-451 -451l451 -450l36 36l-415 414z" />
    <glyph glyph-name="cangkuleixing" unicode="&#xe635;" 
d="M536 749q-7 0 -10 -3l-434 -144q-10 -2 -17 -11t-7 -19v-529q0 -20 29 -23t38 15q2 3 2 8v505l399 133l351 -133v-505q0 -13 17.5 -19t34.5 -1t17 20v529q0 10 -6.5 19t-14.5 11l-389 144q-3 3 -10 3zM389 415q-4 0 -7 -3.5t-3 -7.5v-44q0 -10 14 -10h102q14 0 14 10v44
q0 11 -14 11h-106zM556 415q-4 0 -7 -3.5t-3 -7.5v-44q0 -10 14 -10h102q14 0 14 10v44q0 11 -14 11h-106zM222 312q-5 0 -7.5 -3.5t-2.5 -6.5v-41q0 -10 13 -10h103q4 0 8.5 3.5t4.5 6.5v41q0 10 -13 10h-106zM389 312q-4 0 -7 -3.5t-3 -6.5v-41q0 -10 14 -10h102
q5 0 9.5 3.5t4.5 6.5v41q0 10 -14 10h-106zM556 312q-4 0 -7 -3.5t-3 -6.5v-41q0 -10 14 -10h102q5 0 9.5 3.5t4.5 6.5v41q0 10 -14 10h-106zM222 210q-5 0 -7.5 -3.5t-2.5 -6.5v-45q0 -10 13 -10h103q13 0 13 10v45q0 10 -13 10h-106zM389 210q-4 0 -7 -3.5t-3 -6.5v-45
q0 -10 14 -10h102q14 0 14 10v45q0 10 -14 10h-106zM556 210q-4 0 -7 -3.5t-3 -6.5v-45q0 -10 14 -10h102q14 0 14 10v45q0 10 -14 10h-106zM720 210q-4 0 -7 -3.5t-3 -6.5v-45q0 -10 14 -10h102q14 0 14 10v45q0 10 -14 10h-106q5 0 0 0zM222 108q-5 0 -7.5 -4t-2.5 -7v-41
q0 -10 13 -10h103q4 0 8.5 3.5t4.5 6.5v41q0 11 -13 11h-106zM389 108q-4 0 -7 -4t-3 -7v-41q0 -10 14 -10h102q5 0 9.5 3.5t4.5 6.5v41q0 11 -14 11h-106zM556 108q-4 0 -7 -4t-3 -7v-41q0 -10 14 -10h102q5 0 9.5 3.5t4.5 6.5v41q0 11 -14 11h-106zM724 108q-5 0 -8 -4
t-3 -7v-41q0 -10 14 -10h102q5 0 9.5 3.5t4.5 6.5v41q0 11 -14 11h-105zM724 108z" />
    <glyph glyph-name="zuoyoujiantou2" unicode="&#xe624;" 
d="M281 -41l36 -36l451 451l-451 450l-36 -36l415 -414z" />
    <glyph glyph-name="shangwuhezuo" unicode="&#xe64f;" 
d="M499 274q-7 8 -18 8t-19 -8l-69 -69q-8 -8 -8 -19q0 -12 8 -19q7 -7 18 -7t19 7l69 70q8 8 8 19t-8 18zM508.5 861q-97.5 0 -186 -38t-152.5 -102t-102 -152.5t-38 -186t38 -186t102 -153t153 -102t186 -37.5t186 38t153 102t102 152.5t38 186t-38 186t-102 152.5
t-153 102t-186.5 38zM840 500q-4 -59 -34 -95q-15 -19 -46 -51l9 -9q13 -15 13 -36.5t-15 -36.5q-17 -17 -40 -17h-7q3 -26 -17 -47q-15 -15 -36 -17h-3q-4 0 -6 1q1 -5 0 -9q-1 -21 -16.5 -36.5t-36.5 -16.5h-3h-6q4 -27 -16 -47q-17 -16 -40 -16q-20 0 -33 13l-11 11
q-12 -7 -25 -7q-20 0 -35 14q-15 15 -15 35q0 4 1 6q-6 -1 -9 -1q-20 0 -35 14q-14 14 -14 35v6q-6 -2 -9 -2q-20 0 -35 15q-14 14 -14 35v6q-3 -1 -11 -1q-20 0 -35 15q-14 14 -14 34.5t14 34.5l13 13q-50 46 -61 65q-1 1 -2 3q-25 42 -30 84q-4 36 6 69q13 40 48 76
q30 31 67.5 44t71.5 9.5t62 -15t45 -26.5q17 -16 29 -28q23 22 43 40q42 36 105 36q73 0 129 -59q58 -64 54 -141zM449 309q0 12 -8 19q-7 7 -18 7t-19 -7l-69 -70q-8 -8 -8 -19t8 -18q8 -8 18 -8q12 0 19 8l69 69q8 8 8 19zM390 364q0 12 -8 18q-8 8 -18 8q-12 0 -19 -8
l-70 -69q-7 -8 -7 -19q0 -12 7 -19q8 -7 19 -7t19 7l69 70q8 9 8 19zM557.5 220.5q-7.5 7.5 -18.5 7.5t-19 -7l-69 -70q-8 -8 -8 -19t8 -18q8 -8 19 -8t18 8l70 69q7 8 7 19t-7.5 18.5zM657 676q-55 0 -90 -30q-32 -28 -191 -189q44 -38 81 -38h6q3 0 12 1t27.5 9t32.5 22
l70 65l139 -145q38 41 44 48q26 31 29 82q3 68 -48 122q-49 53 -112 53zM556 150l-43 -45l9 -10q8 -7 20 -6.5t21 9.5q9 10 10 21.5t-7 19.5zM753 329l-72 75l-77 80l-54 -50q-16 -16 -37.5 -25.5t-32.5 -11t-17 -1.5h-6q-53 0 -105 52l-8 8l8 7q31 35 141 143
q-25 24 -29 27q-34 31 -94 36q-71 4 -121 -47q-88 -91 -20 -202l1 -2q13 -22 57 -61l-3 -3l44 44q15 14 35 14t35 -14q14 -15 14 -35v-7q3 1 11 1q20 0 35 -14q14 -14 14 -35v-5q6 1 9 1q19 0 35 -15q17 -16 14 -40q6 1 9 1q20 0 35 -14q14 -15 14.5 -35t-13.5 -34l10 -10
q7 -7 19 -6q12 0 21.5 9.5t10.5 22.5q1 11 -7 19l-90 93v0l15 16l93 -92q7 -7 19 -7q12 1 22 11q9 9 10 21t-7 20l-90 90l7 6l9 10l93 -88q8 -8 20 -7t21 11q8 10 8.5 22.5t-6.5 20.5z" />
    <glyph glyph-name="jiagezoushi" unicode="&#xe612;" 
d="M571 56h117v254h-117v-254zM63 -3v-59h898v59h-898v0zM219 270h-117v-214h117v214v0zM805 56h117v410h-117v-410zM336 56h117v351h-117v-351v0zM141 310l222 250l262 -120l21 29l185 206l91 -92v196h-195l72 -73l-182 -201l-265 122l-34 -46l1 -1l-217 -243zM141 310z
" />
    <glyph glyph-name="renzheng1" unicode="&#xe608;" 
d="M689 780q-42 18 -95.5 52t-87.5 64q-28 -34 -77 -68.5t-90 -49.5q-88 -13 -176 -13q-40 0 -80 3v-459v0q0 -18 8.5 -39.5t20.5 -34.5l246 -291q25 -30 71 -51t85 -21t85 21.5t71 51.5l243 290q12 13 20 34.5t8 38.5v0v456q-27 -2 -55 -2q-99 0 -196 18h-1zM867 321
q0 -14 -7 -31.5t-16 -28.5l-201 -240q-21 -25 -59 -43t-71 -18q-32 0 -69.5 17.5t-58.5 42.5l-204 241q-10 10 -17 28t-7 33v379q33 -2 66 -2q73 0 146 11q34 12 74.5 41t63.5 57q28 -26 72.5 -54t79.5 -42q81 -15 163 -15q22 0 45 1v-377zM344 602v-70h37v-428h31l364 498
h-120l-215 -319v319h-97z" />
    <glyph glyph-name="moxingxuanzhong" unicode="&#xe61f;" 
d="M480 352zM416 352q0 -26 19 -45t45 -19t45 19t19 45t-19 45t-45 19t-45 -19t-19 -45zM528 -16zM464 -16q0 -26 19 -45t45 -19t45 19t19 45t-19 45t-45 19t-45 -19t-19 -45zM912 192zM848 192q0 -26 19 -45t45 -19t45 19t19 45t-19 45t-45 19t-45 -19t-19 -45zM144 192z
M80 192q0 -26 19 -45t45 -19t45 19t19 45t-19 45t-45 19t-45 -19t-19 -45zM480 784zM416 784q0 -26 19 -45t45 -19t45 19t19 45t-19 45t-45 19t-45 -19t-19 -45zM864 576zM800 576q0 -26 19 -45t45 -19t45 19t19 45t-19 45t-45 19t-45 -19t-19 -45zM96 576zM32 576
q0 -26 19 -45t45 -19t45 19t19 45t-19 45t-45 19t-45 -19t-19 -45zM128 208q-16 0 -16 16v320q0 16 16 16t16 -16v-320q0 -16 -16 -16zM184 624q-9 0 -14 8q-9 14 6 22l267 157q14 8 23 -6q8 -14 -7 -23l-267 -156q-2 0 -4.5 -1t-3.5 -1zM896 208q-16 0 -16 16v320
q0 16 16 16t16 -16v-320q0 -16 -16 -16zM451 -45q-5 0 -8 2l-267 157q-12 7 -6 22q7 12 22 6l267 -156q13 -8 7 -23q-6 -8 -15 -8zM573 -45q-9 0 -15 8q-8 14 7 23l267 156q14 9 22 -6q9 -14 -6 -22l-267 -157q-1 0 -3.5 -1t-4.5 -1zM840 624q-5 0 -8 2l-267 156
q-13 8 -7 23q3 6 10 7.5t13 -1.5l267 -157q12 -7 6 -22q-5 -8 -14 -8zM512 736q-34 0 -57 23t-23 57t23 57t57 23t57 -23t23 -57t-23 -57t-57 -23zM512 864q-20 0 -34 -14t-14 -34t14 -34t34 -14t34 14t14 34t-14 34t-34 14zM512 -128q-34 0 -57 23t-23 57t23 57t57 23
t57 -23t23 -57t-23 -57t-57 -23zM512 0q-20 0 -34 -14t-14 -34t14 -34t34 -14t34 14t14 34t-14 34t-34 14zM896 80q-34 0 -57 23t-23 57t23 57t57 23t57 -23t23 -57t-23 -57t-57 -23zM896 208q-20 0 -34 -14t-14 -34t14 -34t34 -14t34 14t14 34t-14 34t-34 14zM896 528
q-34 0 -57 23t-23 57t23 57t57 23t57 -23t23 -57t-23 -57t-57 -23zM896 656q-20 0 -34 -14t-14 -34t14 -34t34 -14t34 14t14 34t-14 34t-34 14zM128 528q-34 0 -57 23t-23 57t23 57t57 23t57 -23t23 -57t-23 -57t-57 -23zM128 656q-20 0 -34 -14t-14 -34t14 -34t34 -14
t34 14t14 34t-14 34t-34 14zM128 80q-34 0 -57 23t-23 57t23 57t57 23t57 -23t23 -57t-23 -57t-57 -23zM128 208q-20 0 -34 -14t-14 -34t14 -34t34 -14t34 14t14 34t-14 34t-34 14zM512 0q-16 0 -16 16v304q0 16 16 16t16 -16v-304q0 -16 -16 -16zM512 432q-16 0 -16 16v304
q0 16 16 16t16 -16v-304q0 -16 -16 -16zM456 400q-5 0 -8 2l-274 160q-12 7 -6 22q7 12 22 6l274 -160q12 -7 6 -22q-5 -8 -14 -8zM568 400q-9 0 -14 8q-9 14 6 22l274 160q13 9 22 -6q8 -14 -6 -22l-274 -160q-2 0 -4.5 -1t-3.5 -1zM840 176q-5 0 -8 2l-274 160
q-12 7 -6 22q7 12 22 6l274 -160q12 -7 6 -22q-5 -8 -14 -8zM184 176q-9 0 -14 8q-9 14 6 22l274 160q13 9 22 -6q8 -14 -6 -22l-274 -160q-2 0 -4.5 -1t-3.5 -1zM512 304q-34 0 -57 23t-23 57t23 57t57 23t57 -23t23 -57t-23 -57t-57 -23zM512 432q-20 0 -34 -14t-14 -34
t14 -34t34 -14t34 14t14 34t-14 34t-34 14zM160 200q-5 0 -8 2q-13 8 -5 22l320 546q8 12 23 6q11 -11 3 -24l-320 -546q-2 -6 -13 -6zM864 200q-9 0 -14 8l-319 544q-8 14 7 22q13 9 22 -6l320 -546q8 -13 -6 -22h-10zM832 144h-640q-16 0 -16 16t16 16h640q16 0 16 -16
t-16 -16z" />
    <glyph glyph-name="zuoyoujiantou-copy-copy" unicode="&#xe64a;" 
d="M730 381q0 -8 -6 -14l-281 -282q-6 -6 -14 -6t-14 6l-30 30q-6 6 -6 14t6 14l237 238l-237 237q-6 6 -6 14t6 14l30 30q6 7 14 7t14 -7l281 -281q6 -6 6 -14z" />
    <glyph glyph-name="pingjiaxing" unicode="&#xe60c;" 
d="M512 896l169 -322l343 -69l-239 -268l43 -365l-316 156l-316 -156l43 365l-239 268l343 69l169 322v0z" />
    <glyph glyph-name="zuoyoujiantou-copy-copy-copy" unicode="&#xe64b;" 
d="M294 387q0 8 6 14l281 282q6 6 14 6t14 -6l30 -30q6 -6 6 -14t-6 -14l-237 -238l237 -237q6 -6 6 -14t-6 -14l-30 -30q-6 -7 -14 -7t-14 7l-281 281q-6 6 -6 14z" />
    <glyph glyph-name="lianxikefu1" unicode="&#xe629;" 
d="M965 325v29q4 205 -122 326q-59 57 -142 87q-6 54 -61.5 91.5t-131 37.5t-131 -37.5t-61.5 -91.5q-83 -30 -142 -87q-126 -121 -122 -325v-36q-41 -39 -26 -94q7 -24 24.5 -41.5t40.5 -25.5q25 -14 54 -14q30 -123 129.5 -197.5t238.5 -74.5q138 0 238 75t129 197h4v0
q15 0 34 6.5t31 14.5q37 21 49 60q16 59 -33 100zM346 518q4 -6 10 -14.5t26 -30.5t42 -41.5t57 -41t73 -35.5q37 -13 111 -28q36 -7 55.5 -11.5t47.5 -14.5t49 -24.5t37 -35.5l2 -2v-3q0 -32 -5 -62q-46 -69 -119.5 -112t-166.5 -52q-16 19 -50 19q-23 0 -39.5 -10
t-16.5 -25t16.5 -25.5t39.5 -10.5q21 0 36.5 8.5t18.5 21.5q59 6 115 27q77 30 134 85q9 8 18 18q-34 -98 -120 -155.5t-203 -57.5h-2q-151 0 -247 92.5t-96 239.5v18q-1 10 2 52q31 10 58.5 29t44 37t30.5 38.5t18.5 29t6.5 13.5l17 64v0zM419 221.5q0 -25.5 -19 -43.5
t-46.5 -18t-46.5 18t-19 43.5t19 44t46.5 18.5t46.5 -18.5t19 -44zM723 222q0 -25 -19 -43t-45.5 -18t-45.5 18t-19 43t19 43t45.5 18t45.5 -18t19 -43z" />
    <glyph glyph-name="cangku" unicode="&#xe669;" horiz-adv-x="1047" 
d="M559 182h-187q-14 0 -24.5 -10t-10.5 -24.5t10.5 -24.5t24.5 -10h187q14 0 24 10t10 24.5t-10 24.5t-24 10zM559 508h-187q-14 0 -24.5 -10t-10.5 -24.5t10.5 -24.5t24.5 -10h187q14 0 24 10t10 24.5t-10 24.5t-24 10zM1035 441l-458 389q-23 19 -53 19t-53 -19
l-459 -389q-12 -11 -12 -27q0 -13 8 -22q11 -12 27 -12q13 0 23 8l128 109v-498q0 -33 24 -56.5t58 -23.5h395q34 0 58 23.5t24 56.5v242q0 15 -10.5 25t-25 10t-24.5 -10t-10 -25v-242q0 -5 -3.5 -8t-8.5 -3v0h-395v0q-5 0 -8.5 3t-3.5 8v554v3l260 221q3 3 7.5 3t7.5 -3
l261 -221l-1 -3v-600q0 -14 10.5 -24t25 -10t24.5 10t10 24v544l129 -109q9 -8 22 -8v0q16 0 27 12q8 9 8 22q0 16 -12 27zM559 345h-187q-14 0 -24.5 -10t-10.5 -24.5t10.5 -24.5t24.5 -10h187q14 0 24 10t10 24.5t-10 24.5t-24 10v0z" />
    <glyph glyph-name="yonghu1" unicode="&#xe63d;" 
d="M868 544q0 96 -47.5 177t-129.5 128t-179 47t-179 -47t-129.5 -128t-47.5 -177q0 -82 36.5 -154t99.5 -122q-113 -56 -184.5 -162t-79.5 -234h53q9 121 81.5 220t182.5 142q87 -41 167 -41t154 35l36 21l30 19q63 50 99.5 122t36.5 154zM512 250q-123 0 -210.5 86.5
t-87.5 208t87.5 208t210.5 86.5t210.5 -86.5t87.5 -208.5q0 -123 -85.5 -208.5t-212.5 -85.5zM813 217v-1q-9 9 -22 9q-33 0 -33 -24q0 -19 17 -29v0q141 -100 156 -300h65q-7 103 -55.5 193t-127.5 152zM813 217z" />
    <glyph glyph-name="hangyedongtai-" unicode="&#xe72d;" 
d="M854 27h-596q-49 0 -83.5 34.5t-34.5 82.5v415q0 12 8.5 20.5t21 8.5t21 -8.5t8.5 -20.5v-415q0 -24 17 -41.5t41 -17.5h597q12 0 21 -8.5t9 -20.5t-9 -20.5t-21 -8.5zM257 193q-9 0 -17 6q-10 7 -11.5 19t5.5 22l145 198q2 3 4 5v0q15 16 37 18.5t40 -10.5l161 -117
l128 196q6 11 18 13.5t22.5 -4.5t13 -18.5t-4.5 -21.5l-128 -198q-13 -20 -37 -25t-44 8l-3 2l-160 117l-145 -198q-9 -12 -24 -12zM290 122q-14 0 -23 11q-8 9 -7 21t11 20l143 120q16 14 36.5 14t37.5 -13l112 -92l153 67q11 5 22.5 0.5t16.5 -15.5t0.5 -22t-15.5 -16
l-153 -68q-33 -15 -61 8l-112 92l-143 -120q-8 -7 -18 -7z" />
    <glyph glyph-name="shangchuantupian1" unicode="&#xe69a;" horiz-adv-x="1025" 
d="M511.5 55q-105.5 0 -180.5 74.5t-75 180.5t75 181t180.5 75t180.5 -75t75 -181t-75 -180.5t-180.5 -74.5zM511.5 515q-84.5 0 -144.5 -60t-60 -144.5t60 -144.5t144.5 -60t144.5 60t60 144.5t-60 144.5t-144.5 60zM831 489zM780 489q0 -21 15 -36t36 -15t36 15t15 36
t-15 36t-36 15t-36 -15t-15 -36zM894 -77h-766q-53 0 -87 23q-41 29 -41 83v511q0 55 38 103t90 48h63l79 119q24 35 65 35h354q40 0 64 -35l80 -119h62q54 0 94 -52q36 -47 36 -99v-511q0 -53 -42 -82q-35 -24 -89 -24zM128 639q-29 0 -52.5 -32.5t-23.5 -66.5v-511
q0 -55 76 -55h766q78 0 78 55v511q0 35 -25 68q-24 31 -53 31h-90l-95 142q-8 12 -21 12h-354q-13 0 -21 -12l-94 -142h-91z" />
    <glyph glyph-name="renzheng2" unicode="&#xe626;" horiz-adv-x="1025" 
d="M895 748q-9 0 -29 1.5t-70.5 11.5t-93.5 28q-45 18 -86.5 40.5t-59.5 34t-20 13.5l-26 18l-25 -18l-2.5 -1.5t-7.5 -5t-11.5 -7.5t-15.5 -9.5t-19 -11t-22.5 -12.5t-26 -13.5t-29.5 -13.5l-32 -14q-44 -18 -94 -28t-70.5 -11.5t-29.5 -1.5l-42 -1v-431q0 -62 30 -128.5
t77.5 -121.5t104 -99.5t114 -69.5t101.5 -25t101.5 25t114 69.5t104.5 99.5t78 121.5t30 128.5v431zM479 176l-181 154l56 66l116 -99l221 254l65 -56z" />
    <glyph glyph-name="xinxi1" unicode="&#xe6e3;" 
d="M736 -14q191 -164 432 -238h-1l-1 1h-1l-1 1h-1l-1 1h-1l-1 1h-1l-1 1h-1l-1 1h-1l-1 1h-2l-1 1h-1l-1 1h-1l-1 1h-1l-1 1h-1l-1 1h-1l-1 1h-1l-1 1h-1l-1 1h-1l-1 1h-1l-1 1h-1l-1 1h-1l-1 1h-1l-1 1h-1l-2 1h-1l-1 1h-1l-1 1h-1l-1 1h-1l-1 1h-1l-1 1h-1l-1 1h-1l-1 1
h-2q-222 108 -234 120q-5 7 5 12q4 1 5 2q14 7 20 15t5 22t-6.5 28.5t-17.5 41.5q-77 166 -203 291q79 -104 120 -156.5t46.5 -59t6.5 -5.5q65 64 100 146.5t35 171.5q0 93 -38 177.5t-102 145.5t-152.5 97.5t-185.5 36.5t-185.5 -36.5t-152.5 -97.5t-102 -145.5t-38 -177.5
t38 -177.5t102 -146t152.5 -97.5t185.5 -36h2q113 0 214 49q0 -4 8 -11v0zM781 38q-154 131 -245 309l226 -293q-16 11 -36 11q-15 0 -28 -7q-85 -42 -184 -42h-2q-111 0 -205.5 52.5t-149.5 142t-55 194.5t55 194.5t149.5 142t205.5 52.5t205.5 -52.5t149.5 -142t55 -194.5
q0 -76 -29.5 -145.5t-85.5 -123.5q-22 -23 -22 -54q0 -14 5 -27q15 -28 22 -43q-17 14 -31 26v0zM272 350q-27 0 -47 20t-20 47v2q0 28 20 47.5t48 19.5h1q27 -1 46 -20.5t19 -47t-19 -47.5t-47 -21h-1zM683 417v2q0 28 20 47.5t48 19.5h1q27 -1 46 -20.5t19 -47
t-19.5 -47.5t-46.5 -21h-1q-28 0 -47.5 20t-19.5 47v0zM444 418q1 27 21 46t47 19t47 -19t21 -46q-1 -27 -21 -46t-47 -19t-47 19t-21 46v0z" />
    <glyph glyph-name="renzheng21" unicode="&#xe647;" 
d="M835 308q-106 -156 -196 -233q-48 -41 -103.5 -70.5t-101.5 -22.5q-42 7 -69 53t-37.5 110t-20.5 140t-17 142t-27 117t-52 65q-30 11 -51 1t-43.5 -20t-33.5 -2q-48 32 23 92q5 4 22.5 18.5t24.5 20.5t23.5 18.5t26 17t25.5 12t28 8.5t27 0t29 -6q42 -17 63 -81.5
t27 -148t11.5 -167.5t25.5 -153t59 -90q24 19 64 64t85.5 105t82 123t52.5 117t-2 88q-10 19 -33 20t-45 -9t-48.5 -23t-36.5 -15q-1 44 22 83t58 64t77 34t79.5 0t66.5 -44.5t37 -92.5q5 -43 -5 -93.5t-29 -91.5t-39 -76t-34 -55z" />
    <glyph glyph-name="ccgl-xiangmucangku-7" unicode="&#xe619;" 
d="M507 90h6v31h8l-6 9l-5 9l-5 -9l-5 -9h7v-31zM533 90h7v31h7l-6 9l-5 9l-5 -9l-5 -9h7v-31zM496 86h55v-7h-55v7zM540 249h-40v45h-157v-247h338v247h-141v-45zM476 80q0 -5 -3 -8t-7 -3h-55q-4 0 -7 3t-3 8v60q0 5 3 8t7 3h55q4 0 7 -3t3 -8v-60zM561 140v-61
q0 -4 -3 -7.5t-8 -3.5h-54q-4 0 -7 3.5t-3 7.5v61q0 4 3 7t7 3h54q5 0 8 -3t3 -7zM766 608l-254 114l-450 -201v-26h56v-449h169v338h450v-338h169v449h56v26zM438 128l8 -5l-8 -20v19l-11 2q2 9 3 13h-11v-20q0 -7 4.5 -12.5t12.5 -6.5v-14q-7 0 -15 -3v-4h35v4q-9 3 -15 3
v14q7 1 11.5 6.5t4.5 12.5v20h-14z" />
    <glyph glyph-name="shangchuantupian2" unicode="&#xe67e;" 
d="M976 147h-118v119q0 19 -13.5 33.5t-34.5 14.5q-22 0 -35 -13.5t-13 -34.5v-125h-135q-21 0 -34.5 -13.5t-13.5 -35t13.5 -34.5t34.5 -13h125v-125q0 -20 13.5 -34t34.5 -14q22 0 35 13t13 35v128h125q21 0 34.5 13t13.5 35q7 18 -9 34.5t-36 16.5zM509 19h-362
q-21 0 -34.5 13.5t-13.5 34.5v682q0 20 13.5 34t34.5 14h685q22 0 35 -13.5t13 -34.5v-349q0 -20 13.5 -34t34.5 -14q22 0 35 13t13 35v397q0 38 -30.5 68.5t-68.5 30.5h-778q-38 0 -68.5 -30.5t-30.5 -68.5v-781q0 -38 30.5 -68.5t68.5 -30.5h410q21 0 34.5 13t13.5 35
q-3 24 -16 39t-32 15zM509 160q14 30 44.5 47t67.5 17h51v61q0 37 23 70t57 48l-64 195l-230 -294l-64 106l-250 -250h365zM387 579q0 30 -21.5 50.5t-48.5 20.5t-49 -21.5t-22 -49.5t22 -49t49 -21t48.5 21t21.5 49zM387 579z" />
    <glyph glyph-name="baoxianhezuo" unicode="&#xe613;" 
d="M646 190h-104v88h104q45 0 76 30.5t31 75.5t-31 75.5t-75 30.5h-105v88h104q81 0 137.5 -57t56.5 -137t-56.5 -137t-137.5 -57zM482 490h-105q-44 0 -75 -30.5t-31 -75.5t31 -75.5t75 -30.5h105v-88h-105q-80 0 -136.5 57t-56.5 137t56.5 137t136.5 57h105v-88v0v0z
M512 896q-139 0 -257 -68.5t-186.5 -186.5t-68.5 -257t68.5 -257t186.5 -186.5t257 -68.5t257 68.5t186.5 186.5t68.5 257t-68.5 257t-186.5 186.5t-257 68.5z" />
    <glyph glyph-name="mima3" unicode="&#xe63e;" 
d="M818 426h-440v156q0 59 42.5 101.5t102 42.5t101.5 -42.5t42 -101.5v-68q0 -17 14.5 -29.5t34.5 -12.5q10 0 19 3q30 11 30 39v74v3l-1 17q-11 92 -79.5 154t-161.5 62q-101 0 -172 -71.5t-71 -171.5v-156h-73q-13 0 -23 -9.5t-10 -22.5v-417q0 -13 10 -23t23 -10h612
q13 0 23 10t10 23v417q0 14 -10 23.5t-23 9.5zM643 257q0 -16 -11.5 -27t-27.5 -11h-43v-94q0 -16 -11.5 -27.5t-27.5 -11.5t-27.5 11.5t-11.5 27.5v94h-43q-16 0 -27.5 11t-11.5 27t11.5 27.5t27.5 11.5h164q16 0 27.5 -11.5t11.5 -27.5z" />
    <glyph glyph-name="lianxi" unicode="&#xe636;" 
d="M576 400h-352q-13 0 -22.5 -9.5t-9.5 -22.5t9.5 -22.5t22.5 -9.5h352q13 0 22.5 9.5t9.5 22.5t-9.5 22.5t-22.5 9.5zM800 529h-576v0q-13 0 -22.5 -9.5t-9.5 -22.5v0q0 -14 9.5 -23.5t22.5 -9.5h576q13 0 22.5 9.5t9.5 23.5v0q0 13 -9.5 22.5t-22.5 9.5zM928 850h-832
q-40 0 -68 -28.5t-28 -68.5v-543v-1q0 -39 28 -67.5t68 -28.5h128v-136q5 -22 21 -38t44.5 -20.5t65.5 21.5l192 173h381q40 0 68 28.5t28 68.5v543v0q0 40 -28 68.5t-68 28.5zM960 242v0q0 -27 -19 -45.5t-45 -18.5h-369l-212 -190q-23 -28 -27 26q-1 20 0 68q1 21 1 29h-1
v67h-160q-27 0 -45.5 18.5t-18.5 45.5v479q0 27 19 45.5t45 18.5h768q26 0 45 -18.5t19 -45.5v-479zM800 657h-576q-13 0 -22.5 -9.5t-9.5 -22.5t9.5 -22.5t22.5 -9.5h576q13 0 22.5 9.5t9.5 22.5t-9.5 22.5t-22.5 9.5z" />
    <glyph glyph-name="shijian" unicode="&#xe683;" 
d="M577.5 511.5q23.5 23.5 23.5 57t-23.5 57t-57 23.5t-57 -23.5t-23.5 -57t23.5 -57t57 -23.5t57 23.5zM515 26v0q25 0 40 19q42 56 82.5 114t90.5 138t81 153.5t31 121.5q0 87 -43.5 160.5t-118.5 116t-163 42.5t-163 -42.5t-118.5 -116t-43.5 -160.5q0 -48 31 -121.5
t81 -153.5t90.5 -138t82.5 -114q15 -19 40 -19zM515 833q110 0 187.5 -76.5t77.5 -184.5q0 -58 -64.5 -178.5t-178.5 -273.5q-8 -11 -22 -11t-22 11q-114 153 -178.5 273.5t-64.5 178.5q0 108 77.5 184.5t187.5 76.5zM917 77q-24 24 -62 37t-83 13h-4h-4q-11 -1 -18 -8.5
t-8 -18.5q0 -11 8 -19.5t19 -9.5l33 -1h2q51 -7 78 -33q11 -11 11 -20q0 -6 -7.5 -13.5t-30.5 -18.5t-58 -20q-109 -28 -280 -28t-282 28q-35 9 -58.5 20t-31 19t-7.5 14q0 19 15 29q22 14 72 19h5l32 1q12 1 19.5 9.5t7.5 20.5q-1 11 -9.5 18.5t-20.5 7.5h-4
q-91 -2 -133 -30q-40 -26 -40 -75q0 -40 44 -69q35 -23 96 -38q117 -30 295 -30t294 30q60 15 94 37q44 29 44 69q0 32 -28 60z" />
    <glyph glyph-name="cangku1" unicode="&#xe621;" 
d="M486 -39q5 31 27 48t47 17t47 -17t28 -48h72q24 0 29 7.5t5 32.5v218v27q1 42 -5.5 49t-44.5 6h-15h-219q-24 0 -29.5 -6.5t-5.5 -30.5v-220q0 -66 2 -71q6 -12 25 -12h37v0zM783 -38q8 37 36 54t58 8.5t46 -36.5q3 -6 5.5 -14.5t3.5 -11.5q8 -1 13.5 -1t10 0.5t7.5 2.5
t5 3.5t3.5 5t2 6.5t1 8t0.5 8.5t-0.5 10.5t-0.5 11t0.5 21.5t0.5 28t-1.5 24t-4.5 20.5t-9.5 17.5t-12 18t-15.5 20.5t-12 16q-2 1 -5.5 6.5t-5.5 7.5q-1 1 -3.5 4t-4 4.5l-4 4t-5 3.5t-6 2t-8.5 1h-98q-18 -3 -18 -30v-197q0 -27 21 -27v0zM826 89v85q26 1 49 0q3 0 6 -1.5
t5.5 -4.5t4.5 -5.5t5 -7t4 -6.5q2 -2 7.5 -9.5t10 -14t9.5 -14t8 -13.5t4 -9q-93 -1 -113 0v0zM549 -1q-19 -5 -30.5 -21.5t-5.5 -37.5q4 -19 20.5 -30.5t37.5 -6.5q19 4 30.5 21t6.5 38q-4 18 -21 30t-38 7v0zM854 -1q-20 -2 -33.5 -16.5t-11.5 -35.5q2 -20 17 -33.5
t36 -11.5q20 2 33 17.5t11 36.5q-2 19 -17 32t-35 11v0zM43 641v-739h169v604h592v-121h169v254q0 3 -3 6t-6.5 4.5t-9 3.5t-6.5 3l-44 21q-3 1 -7.5 3.5t-7.5 3.5q-5 3 -14.5 7t-15.5 7q-24 11 -85.5 41t-89.5 42l-163 77q-22 10 -24.5 10.5t-19.5 -6.5l-146 -74
q-4 -2 -14 -6.5t-15 -7.5l-232 -116q0 -1 -8.5 -4t-13.5 -6.5t-5 -6.5v0zM262 167h104v-90h-104v90zM262 286h104v-88h-104v88z" />
    <glyph glyph-name="yanzhengma2" unicode="&#xe641;" 
d="M453 502.5q0 -24.5 17.5 -42t41.5 -17.5t41.5 17.5t17.5 42t-17.5 41.5t-41.5 17t-41.5 -17t-17.5 -41.5zM813 629q-24 59 -69.5 104.5t-104.5 69.5q-60 26 -127 26t-127 -26q-59 -24 -104.5 -69.5t-69.5 -104.5q-26 -60 -26 -127q0 -90 46 -167.5t125 -120.5
q15 -8 31.5 -3t24.5 20t3 31t-20 24q-59 33 -93.5 90.5t-34.5 125.5q0 102 71.5 173.5t173.5 71.5t173.5 -71.5t71.5 -173.5t-71.5 -173.5t-173.5 -71.5q-17 0 -29 -12t-12 -29v-237q0 -17 12 -29t29 -12t29 12t12 29v52h123q17 0 29 12t12 29t-12 29t-29 12h-123v64
q45 6 86 24q59 24 104.5 69.5t69.5 104.5q26 60 26 127t-26 127z" />
    <glyph glyph-name="mima4" unicode="&#xe69c;" horiz-adv-x="1144" 
d="M741 481h-582v0q-66 0 -112.5 -46.5t-46.5 -112.5v0v-291q0 -66 46.5 -112.5t112.5 -46.5h582v0q66 0 112.5 46.5t46.5 112.5v291v0q0 66 -46.5 112.5t-112.5 46.5zM847 31q0 -44 -31 -75t-75 -31h-582q-44 0 -75 31t-31 75v291q0 44 31 75t75 31h582q44 0 75 -31t31 -75
v-291zM503 878h-106v0q-110 0 -187.5 -77.5t-77.5 -187.5v0v-106h53v133q0 62 58.5 123.5t127.5 61.5h158q46 0 90.5 -31t70 -74t25.5 -80v-132h53v105v0q0 110 -77.5 187.5t-187.5 77.5zM450 243h-2q-33 0 -56 -23.5t-23 -56.5t23 -56t56 -23h2q32 1 54.5 24t22.5 55
t-22.5 55.5t-54.5 24.5v0z" />
    <glyph glyph-name="guanliyuan" unicode="&#xe715;" 
d="M928 -32q-5 134 -84 240t-204 144q58 34 93 92.5t35 125.5q0 105 -75 180.5t-181 75.5t-181 -72.5t-75 -177.5q0 -70 34.5 -126.5t93.5 -91.5q-125 -38 -204 -143.5t-84 -240.5q0 -38 32 -38q14 0 23 9t9 23q3 95 50.5 174t127.5 125.5t174 46.5t174 -46.5t127.5 -125.5
t50.5 -174q0 -14 9 -23t23 -9t23 9t9 23zM320 576q0 82 55 137t137 55t137 -55t55 -137t-55 -137t-137 -55t-137 55t-55 137z" />
    <glyph glyph-name="xuehua1" unicode="&#xe657;" 
d="M949 621v-6l-1 -2q-2 -14 -17 -23q-9 -5 -49 -28l-5 -3l4 -2q31 -8 32 -9q11 -3 17 -14t2 -23q-3 -12 -13 -18t-22 -4q-5 2 -53 14q-2 1 -39 11q1 -3 4 -4q50 -34 65 -44q15 -9 15 -25q1 -18 -14 -28q-16 -9 -32 1q-4 2 -31 20l-30 20t-37 24q-4 3 -6 0q15 -17 16 -18
q11 -12 8 -27q-4 -19 -22 -23q-17 -5 -30 8q-15 15 -24 25q-4 4 -8 1q-2 -1 -45 -26l-4 -2q0 -1 1 -2h5h34q12 0 20.5 -9t8.5 -21.5t-8.5 -21.5t-20.5 -9h-17.5h-17.5h-5q2 -3 4 -4q40 -23 44 -26q5 -3 9 2q12 13 25 25q17 17 37 5q9 -6 13 -16t0 -19q-2 -5 -12 -18
q0 -1 -12 -13l0.5 -0.5t0.5 -1.5l6 3q55 35 95 62q15 10 30 4q17 -7 19 -25t-14 -29q-10 -7 -21 -14t-24.5 -16t-20.5 -14l-4 -3q2 -1 5 0q74 20 84 22q7 2 11 2q11 -1 19.5 -9t8.5 -19q1 -11 -5 -20.5t-18 -12.5q-5 -1 -14.5 -3.5t-12.5 -3.5l-7 -2l6 -4q38 -21 50 -28
q13 -8 16 -22l1 -3v-6l-1 -1q-2 -17 -17 -23.5t-31 2.5q-4 3 -48 28q-1 0 -6 3l1 -6q6 -21 7 -27q3 -10 0 -19q-7 -21 -30 -21q-23 1 -29 24q-4 16 -12 45.5t-10 38.5l-2 6l-1 -3q-5 -72 -5 -83q-1 -12 -10 -21t-21 -9q-13 1 -21.5 9.5t-8.5 21.5q0 10 1 29q1 12 3 42.5
t3 47.5l-2 5h-1.5h-0.5q-6 -21 -7 -23q-3 -10 -11 -17q-17 -12 -35 0q-18 11 -13 32q4 14 10 36q2 5 -2 7q-1 0 -47 27l-5 2q3 -6 4 -6q14 -26 15 -28q5 -9 5 -16q1 -10 -5 -18.5t-16 -11.5q-23 -7 -35 13l-18 30l-3 5v-3q-1 -54 -1 -56q0 -4 5 -5q30 -7 36 -9q11 -3 17 -13
t4 -22q-2 -11 -10.5 -18t-19.5 -7q-2 1 -19 4q-1 0 -12 3q0 -1 -1 -2l5 -4q18 -10 52 -27l50 -25q24 -12 17 -36q-4 -14 -17 -19.5t-27 0.5l-70 35q0 1 -5 3q0 -3 3 -6l61 -61q9 -10 9 -22t-9 -21.5t-21.5 -9.5t-21.5 10q-4 4 -11.5 11t-8.5 9q-1 0 -6 4v-6v-58
q0 -25 -22 -31l-6 -2h-5l-1 1q-15 4 -21 12t-6 24v54v6l-5 -4l-21 -21q-11 -11 -26.5 -8t-22.5 16q-10 20 7 37q12 12 33.5 33t27.5 28l3 4q-2 0 -6 -2l-70 -35q-11 -5 -22 -2.5t-17 12.5q-8 12 -4.5 25.5t16.5 19.5q6 3 87 44q14 7 17 8q0 1 3 5l-0.5 0.5l-0.5 0.5
q-19 -5 -20 -5q-12 -2 -17 -1q-11 2 -17.5 10.5t-6.5 18.5q-1 11 6 19.5t17 11.5q18 4 34 8q5 1 5 6v53l-1 5l-3 -5q0 -1 -6.5 -12t-10.5 -17q-10 -17 -28 -15q-18 1 -25.5 16t1.5 30q2 5 5 9.5t6 10.5t5 9l3 4q-3 1 -5 -1q-42 -24 -46 -26t-3 -7q6 -20 10 -35q3 -12 -3 -23
t-18 -14.5t-23 2.5t-15 19q-1 2 -2.5 8.5t-2.5 10.5l-3 4q-2 -5 -2 -6q0 -5 1 -29l3 -40q2 -43 2 -50q1 -12 -8 -20.5t-21 -9.5q-12 0 -21.5 8.5t-9.5 19.5q-1 8 -2 27t-1 30q-1 1 -3 29l-0.5 0.5l-0.5 0.5q-5 -18 -5 -19q-19 -69 -19 -72q-4 -12 -14.5 -18t-22.5 -3
t-18.5 13.5t-3.5 22.5l3 15q1 1 6 21l-6 -3q-50 -28 -51 -29q-14 -8 -28 -2t-17 22q-1 0 -2 3v6l1 2q3 15 18 23q9 5 48 28q1 1 6 4l-4 1q-31 9 -33 9q-11 4 -16.5 14.5t-2.5 22.5t13.5 18.5t21.5 3.5q6 -1 53 -14q3 -1 39 -10q-1 2 -4 4q-50 33 -65 43q-14 10 -15 25
q-1 19 15 28q16 10 32 0q4 -3 33 -22q7 -5 29.5 -20l34.5 -23q5 -3 7 1l-17 17q-11 12 -8 28q4 18 21.5 23t30.5 -8q15 -15 25 -26q3 -4 8 -1q1 1 45 26l3 3v1h-6h-33q-12 0 -21 9t-9 21.5t9 21.5t21 9h17h17l5 1q-1 2 -3 3q-42 24 -45 26q-5 3 -8 -1l-26 -26
q-16 -16 -37 -4q-19 11 -13 34q2 8 12 18q1 1 12 13l-0.5 1l-0.5 1l-6 -2q-56 -37 -95 -63q-15 -10 -30 -4q-17 7 -19 25q-2 19 14 30q13 8 38 24.5t29 19.5l4 3q-3 0 -6 -1q-74 -20 -83 -22q-7 -2 -12 -1q-11 1 -19 8.5t-9 18.5q-1 12 5.5 21t17.5 12q5 2 14.5 4.5
t12.5 2.5q1 0 7 3l-6 3q-36 21 -50 29q-13 8 -16 22l-1 2v6l1 2q2 16 17.5 23t31.5 -3q4 -2 47 -27q1 -1 7 -4q-2 6 -2 7q-5 20 -7 26q-3 10 0 19q7 22 31 21q22 0 28 -23q5 -17 13 -47.5t10 -37.5l2 -5l1 2q0 7 1 25.5t2 28.5q2 29 2 33q2 12 11.5 19.5t20.5 6.5
q13 -1 21 -9.5t8 -21.5q-1 -12 -3 -45q0 -7 -1 -21t-1 -18q-2 -22 -2 -35l2 -4l2 3q2 4 3.5 10.5t2.5 9.5q4 12 15 18t23 3q12 -4 18 -15t3 -23q-3 -11 -10 -35q-1 -4 3 -6q7 -4 14.5 -8.5t17 -10t15.5 -8.5l3 -2v2q-16 28 -18 31q-4 9 -5 16q0 11 6 19t16 11q22 7 35 -13
l17 -30l3 -5l1 4v55t-4 5q-30 7 -37 9q-12 4 -18 15.5t-2 23.5t15 17.5t24 2.5q1 0 21 -5l1 1l-3 4l-24 12l-80 40q-24 12 -16 37q4 14 17 19.5t27 -1.5l70 -35l5 -2q-1 2 -4 5l-61 61q-9 10 -9 22.5t9 21.5t21.5 9t22.5 -10q4 -3 10.5 -9.5t8.5 -9.5l6 -5v7v57q0 25 22 31
q1 0 6 2h5q1 -1 2 -1q14 -4 20 -12t6 -23q0 -47 1 -55v-5h1l24 24q13 13 30 8t21 -22t-8 -30l-61 -61l-4 -4q0 -1 1 -1l5 2q55 28 69 35q11 5 22 3q21 -5 23 -24q4 -23 -16 -33q-2 -1 -30 -16q-57 -28 -73 -36q-1 0 -5 -5q1 0 1 -1q19 4 20 5q12 1 18 0q10 -2 17 -10t7 -19
t-7 -19.5t-18 -10.5q-20 -6 -33 -9q-5 -1 -5 -5q1 -11 1 -31.5v-22.5v-5q3 5 3 6q16 27 17 29q11 17 30 14q17 -2 24 -16.5t-1 -29.5q-4 -6 -9.5 -16t-7.5 -13l-2 -5l2 1q46 26 49.5 28t1.5 7q-8 30 -10 35q-5 21 13 33q13 9 27.5 3t19.5 -22q0 -1 6 -21l0.5 -0.5t1.5 -0.5
l2 5q0 2 -0.5 3.5t-0.5 3.5v3q-1 18 -2 43q-4 60 -4 67q-1 12 7 20t20 10q11 1 20.5 -5.5t12.5 -17.5q1 -5 2 -20q0 -11 1.5 -31.5t1.5 -28.5q0 -1 1 -11q3 6 6 18q19 68 20 73q6 22 32 21q9 0 17 -7t10 -17q1 -7 -2 -19q0 -3 -8 -30l6 3q50 29 52 30q14 8 27.5 1.5
t17.5 -22.5z" />
    <glyph glyph-name="xiaoshouguanli" unicode="&#xe62c;" 
d="M109 -125v0q-14 0 -24 10t-10 24l-6 339q0 14 10 24t24 10t24 -10t10 -24l4 -341v-1q0 -14 -10 -24t-23 -10zM359 -122v0q-14 0 -24 10t-10 24l-5 477v1q0 14 9.5 24t23.5 10h1q14 0 24 -10t10 -23v-1l5 -477v-1q0 -14 -9.5 -24t-23.5 -10h-1zM610 -119v0q-14 0 -24 9.5
t-10 23.5v273v1q0 14 10 24t24 10h1q14 0 23.5 -10t9.5 -23v0v-273v-1q0 -14 -9.5 -24t-23.5 -10h-1zM856 -120q-14 0 -24 10t-10 24v478q0 14 10 24t24 10t24 -10t10 -24v-478q0 -14 -10 -24t-24 -10zM583 368v0q-14 0 -24 10l-217 213l-216 -197q-10 -9 -23 -9
q-14 0 -24.5 10t-10.5 24q0 15 12 25l237 219q10 9 23.5 9t23.5 -9l214 -209l259 358q10 14 27 14q15 0 25 -10t10 -24q0 -11 -7 -20l-281 -390q-9 -13 -25 -15zM921 565v0q-14 0 -24 10t-10 24v216l-198 -57q-4 -1 -9 -1q-15 0 -25.5 10.5t-10.5 24.5q0 11 7.5 21t18.5 13
l238 69q4 1 9 1q14 0 24 -10t10 -23v-262v0q0 -14 -9.5 -24t-23.5 -11z" />
    <glyph glyph-name="guapaiqiye" unicode="&#xe615;" horiz-adv-x="1048" 
d="M944 -128h-839q-43 0 -74 31t-31 76v492q0 44 31 75.5t74 31.5h70l297 230q-2 9 -2 17q0 29 20.5 50t49 21t49 -21t20.5 -50q0 -18 -9 -34l273 -212h70q43 0 74 -31t32 -76v-493q0 -45 -30.5 -76t-74.5 -31zM322.5 37.5q5.5 -5.5 12.5 -5.5h390q13 0 17 12q2 3 2 7
q0 8 -5.5 13.5t-13.5 5.5v0h-390q-7 0 -12.5 -5.5t-5.5 -13.5v0q0 -8 5.5 -13.5zM569 344l-81 54q-11 7 -22 -3l-128 -120q-8 -8 -5 -18t12.5 -13t18.5 4l117 110q43 -29 79 -53q10 -7 23 3q60 49 94 76l-4 -29q-1 -8 3.5 -14t12 -7t13.5 3.5t7 12.5l10 71v3q0 9 -7 15h-0.5
h-0.5q-3 3 -8 3l-70 10q-7 1 -13.5 -3.5t-7.5 -12.5t4 -14t12 -7l23 -3q-14 -12 -82 -68zM351 182v-72v-1q0 -10 9 -16q4 -3 9.5 -3t9.5 3q9 6 9 17v72q0 8 -5.5 13.5t-13 5.5t-13 -5.5t-5.5 -13.5zM460 263v-153v-1q0 -10 9 -16q5 -3 10 -3t9 3q10 6 9 17v153
q0 7 -5.5 12.5t-13 5.5t-13 -5.5t-5.5 -12.5zM569 251v-141q0 -8 5.5 -13.5t13 -5.5t13 5.5t5.5 13.5v141q0 7 -5.5 12.5t-13 5.5t-13 -5.5t-5.5 -12.5zM679 298v-188q0 -11 9 -16t18 0t9 16v188q0 8 -5 13.5t-12.5 5.5t-13 -5.5t-5.5 -13.5zM583 770q-20 -17 -44 -17
q-34 0 -56 29l-273 -204h628z" />
    <glyph glyph-name="kefurexian1" unicode="&#xe61e;" 
d="M834.5 277q-25.5 0 -43.5 17t-18 41v100q0 30 26 48q-26 90 -105.5 148.5t-181.5 58.5t-181.5 -58.5t-105.5 -148.5q26 -18 26 -48v-100q0 -18 -10.5 -32.5t-26.5 -20.5q28 -62 81 -106.5t120 -64.5q8 18 30.5 29t52.5 11q35 0 60 -15.5t25 -38t-25 -38.5t-60 -16
q-30 0 -52.5 11.5t-29.5 28.5q-79 21 -140 72.5t-92 121.5q-23 2 -39 18.5t-16 39.5v100q0 19 11 33.5t28 21.5q30 110 125.5 182t218.5 72t218.5 -72t125.5 -182q17 -7 28 -21.5t11 -33.5v-100q0 -24 -17.5 -41t-43 -17zM356 461q0 17 12.5 28.5t30 11.5t30 -11.5
t12.5 -28.5t-12.5 -28.5t-30 -11.5t-30 11.5t-12.5 28.5zM384 281v32h7q47 -54 121 -54t121 54h7v-32q-54 -49 -128 -49t-128 49zM583 461q0 17 12.5 28.5t30 11.5t30 -11.5t12.5 -28.5t-12.5 -28.5t-30 -11.5t-30 11.5t-12.5 28.5z" />
    <glyph glyph-name="dunpai2" unicode="&#xe6e9;" 
d="M512 805v-784q67 28 123.5 65t93.5 73t66.5 76.5t45 71.5t26 62.5t13.5 45.5t4 24v365zM512 -75l-14 6q-83 32 -151.5 77t-112.5 88.5t-78.5 94t-52 88t-29 75.5t-14 53t-3.5 24v5v452l455 8l455 -8v-457q-1 -9 -3.5 -24t-14 -53t-29 -75.5t-51.5 -87.5t-78.5 -94
t-113 -89t-151.5 -77l-14 -6v0z" />
    <glyph glyph-name="icon-test" unicode="&#xe63a;" horiz-adv-x="1031" 
d="M38 892h918q16 0 27 -11.5t11 -26.5v-518q32 -57 32 -122v0q0 -28 -10.5 -65t-24.5 -61q-2 -6 -6 -10q-4 -6 -8 -11l44 -43q11 -11 11 -26.5t-11 -26.5t-27 -11t-27 11l-43 43q-28 -20 -71.5 -34t-77.5 -14q-52 0 -110.5 29t-90.5 70h-536v0q-16 0 -27 11t-11 26v752
q0 15 11 26.5t27 11.5zM918 419v211h-842v-490h459q-11 36 -11 74q0 103 73.5 176t177.5 73h1q32 0 74 -13t68 -31zM775 389q-73 0 -124.5 -51.5t-51.5 -123.5q0 -70 50 -121l2 -2q21 -21 57.5 -36t66.5 -15q72 0 124 51v0l1 1q50 51 50 122q0 73 -51 124t-124 51v0z
M672 113q-7 6 -7 15.5t7 16.5q7 6 16 6t16 -6q9 -9 15 -13q26 -16 56 -16t55 16q8 5 15 13q7 6 16.5 6t15.5 -6q7 -7 7 -16.5t-7 -15.5q-10 -11 -22 -18q-61 -41 -135 -14q-13 5 -26 14q-12 7 -22 18zM829 348q14 -6 14 -21q0 -4 -1 -8q-6 -14 -21 -14q-5 0 -9 1
q-9 4 -18.5 5.5t-18.5 2.5q-9 0 -19 -2t-19 -6q-4 -1 -8 -1q-16 0 -21 14q-2 4 -2 8q0 15 14 21q14 5 27 8q13 2 28 2t27 -2q15 -3 27 -8zM398 783h2q15 0 26 -11t11 -26.5t-11 -26.5t-26 -11h-2v0q-16 0 -27 11t-11 26.5t11 26.5t27 11zM276 783v0q16 0 27 -11t11 -26
q0 -16 -11 -27t-27 -11v0v0q-16 0 -27 11t-11 26.5t11 26.5t27 11v0zM154 783q16 0 27 -11t11 -26.5t-11 -26.5t-27 -11v0h-2q-15 0 -26 11t-11 26.5t11 26.5t26 11h2zM76 675h842v142h-842v-142z" />
    <glyph glyph-name="geren" unicode="&#xe654;" 
d="M833 246q22 0 29 7t7 27t-24 39l-2 2q-73 55 -127 75q46 39 72 93t26 116q0 114 -82.5 194t-198.5 80t-198 -80t-82 -194q0 -62 26 -116t72 -93q-146 -54 -237 -181t-91 -284v-1q0 -21 10 -34t30 -13t25.5 11t5.5 36q0 67 16 129t51 116.5t85.5 94.5t124.5 62.5t162 20.5
q70 -1 144 -25.5t123 -64.5q16 -13 30 -17h3zM533 407q-69 0 -119 30t-72.5 73.5t-22.5 94.5q0 50 24.5 97t75 79.5t115.5 32.5q56 0 99 -19t67.5 -50.5t36 -67t11.5 -73.5q0 -76 -63 -138t-152 -59v0v0zM627 114q0 -20 14 -30.5t37 -10.5h272q22 0 36.5 10.5t14.5 30.5
q0 38 -51 38h-272q-51 0 -51 -38v0v0zM950 -49h-272q-51 0 -51 -37q0 -38 51 -38h272q51 0 51 38q0 37 -51 37v0v0zM950 -49z" />
    <glyph glyph-name="shangchuantupian4" unicode="&#xe644;" 
d="M669 -128h-551q-49 0 -83.5 34.5t-34.5 83.5v788q0 49 34.5 83.5t83.5 34.5h788q49 0 83.5 -34.5t34.5 -83.5v-552v0q0 -16 -11.5 -27.5t-28 -11.5t-28 11.5t-11.5 27.5v0v552q0 16 -11.5 27.5t-27.5 11.5h-788q-16 0 -27.5 -11.5t-11.5 -27.5v-788q0 -16 11.5 -27.5
t27.5 -11.5h551q17 0 28.5 -11.5t11.5 -28t-11.5 -28t-28.5 -11.5zM39 108v0q-16 0 -27.5 11.5t-11.5 28t12 28.5l196 196q14 14 38.5 24t44.5 10q28 0 53 -12l214 -107q8 -4 17 -4q17 0 28 11l354 354q11 12 27.5 12t28 -12t11.5 -28t-12 -28l-353 -353q-15 -15 -39.5 -25
t-44.5 -10q-28 0 -53 13l-213 106q-8 5 -18 5q-16 0 -27 -12l-197 -196q-11 -12 -27 -12h-1zM354 502v0q-48 0 -83 34.5t-35 83.5t35 84t83.5 35t83.5 -35t35 -83.5t-35 -83.5t-84 -35zM354 660v0q-16 0 -27.5 -11.5t-11.5 -28t11.5 -28t28 -11.5t28 11.5t11.5 27.5v0
q0 17 -11.5 28.5t-28.5 11.5zM827 -128v0q-16 0 -27.5 11.5t-11.5 27.5v0v237q0 16 11.5 27.5t27.5 11.5t27.5 -11.5t11.5 -27.5v-237v0q0 -16 -11.5 -27.5t-27.5 -11.5v0zM985 30h-1q-15 0 -26 10l-131 123l-131 -123q-11 -11 -27 -11t-27.5 11.5t-11.5 28.5t13 29l138 129
q7 9 20.5 15.5t25.5 6.5t25.5 -6.5t20.5 -15.5l138 -129q13 -12 13 -29q0 -16 -11.5 -27.5t-27.5 -11.5v0z" />
    <glyph glyph-name="touxiangxiugai" unicode="&#xe655;" 
d="M416 410zM832 192v-147h-147q-15 0 -23.5 -9t-8.5 -23.5t8.5 -23t23.5 -8.5h179q14 0 23 8.5t9 23.5v179q0 14 -9 23t-23 9t-23 -9t-9 -23zM333 45h-154v147q0 14 -8.5 23t-23 9t-23.5 -9t-9 -23v-173q0 -14 9 -23t23 -9h179q15 0 23.5 9t8.5 23q0 10 -8 18t-17 8z
M179 550v141h147q15 0 23.5 9t8.5 23.5t-8.5 23t-23.5 8.5h-179q-14 0 -23 -8.5t-9 -23.5v-179q0 -14 9 -23t23 -9q32 11 32 38zM685 691h147v-147q0 -14 9 -23t23 -9t23 9t9 23v179q0 15 -9 23.5t-23 8.5h-179q-15 0 -23.5 -8.5t-8.5 -23.5q16 -32 32 -32zM595 301
q-4 0 -8.5 5t-7.5 17.5t3 34.5q30 30 50.5 78.5t20.5 94.5q0 70 -40.5 108.5t-100.5 38.5t-100.5 -38.5t-40.5 -108.5q0 -45 20 -90.5t51 -82.5q3 -17 -2.5 -31t-12.5 -20t-11 -6q-44 -19 -79.5 -38t-64.5 -46t-29 -51v-19q0 -83 263 -83q51 0 95 4.5t83 14t61.5 27.5
t22.5 44v19q4 35 -48.5 70.5t-124.5 57.5z" />
  </font>
</defs>
</svg>
